<?xml version="1.0" encoding="UTF-8" standalone="no"?>
<svg width="48px" height="49px" viewBox="0 0 48 49" version="1.1" xmlns="http://www.w3.org/2000/svg" xmlns:xlink="http://www.w3.org/1999/xlink">
    <!-- Generator: Sketch 41.2 (35397) - http://www.bohemiancoding.com/sketch -->
    <title>Group 3</title>
    <desc>Created with Sketch.</desc>
    <defs>
        <ellipse id="path-1" cx="24" cy="24" rx="24" ry="24"></ellipse>
        <mask id="mask-2" maskContentUnits="userSpaceOnUse" maskUnits="objectBoundingBox" x="0" y="0" width="48" height="48" fill="white">
            <use xlink:href="#path-1"></use>
        </mask>
        <polygon id="path-3" points="12 22 20 25.2307692 20 36 12 36"></polygon>
        <mask id="mask-4" maskContentUnits="userSpaceOnUse" maskUnits="objectBoundingBox" x="0" y="0" width="8" height="14" fill="white">
            <use xlink:href="#path-3"></use>
        </mask>
        <polygon id="path-5" points="19 22 27 25.2307692 27 36 19 36"></polygon>
        <mask id="mask-6" maskContentUnits="userSpaceOnUse" maskUnits="objectBoundingBox" x="0" y="0" width="8" height="14" fill="white">
            <use xlink:href="#path-5"></use>
        </mask>
        <rect id="path-7" x="26" y="18" width="6" height="18"></rect>
        <mask id="mask-8" maskContentUnits="userSpaceOnUse" maskUnits="objectBoundingBox" x="0" y="0" width="6" height="18" fill="white">
            <use xlink:href="#path-7"></use>
        </mask>
    </defs>
    <g id="Page-1" stroke="none" stroke-width="1" fill="none" fill-rule="evenodd">
        <g id="LС-Copy-8" transform="translate(-452.000000, -741.000000)" stroke="#1E9DF2">
            <g id="иконки" transform="translate(248.000000, 72.000000)">
                <g id="Group-3" transform="translate(204.000000, 669.218905)">
                    <use id="Oval-7" mask="url(#mask-2)" stroke-width="2" xlink:href="#path-1"></use>
                    <use id="Rectangle-13" mask="url(#mask-4)" stroke-width="2" xlink:href="#path-3"></use>
                    <use id="Rectangle-13" mask="url(#mask-6)" stroke-width="2" xlink:href="#path-5"></use>
                    <use id="Rectangle-13" mask="url(#mask-8)" stroke-width="2" xlink:href="#path-7"></use>
                    <path d="M30,16 C30.5522847,16 31,15.5522847 31,15 C31,14.4477153 30.5522847,14 30,14 C29.4477153,14 29,14.4477153 29,15 C29,15.5522847 29.4477153,16 30,16 Z M33,15 C34.6568542,15 36,13.6568542 36,12 C36,10.3431458 34.6568542,9 33,9 C31.3431458,9 30,10.3431458 30,12 C30,13.6568542 31.3431458,15 33,15 Z" id="Combined-Shape"></path>
                </g>
            </g>
        </g>
    </g>
</svg>