<?xml version="1.0" encoding="UTF-8" standalone="no"?>
<svg width="48px" height="102px" viewBox="0 0 48 102" version="1.1" xmlns="http://www.w3.org/2000/svg" xmlns:xlink="http://www.w3.org/1999/xlink">
    <!-- Generator: Sketch 42 (36781) - http://www.bohemiancoding.com/sketch -->
    <title>icon_4</title>
    <desc>Created with Sketch.</desc>
    <defs>
        <ellipse id="path-1" cx="24" cy="24" rx="24" ry="24"></ellipse>
        <mask id="mask-2" maskContentUnits="userSpaceOnUse" maskUnits="objectBoundingBox" x="0" y="0" width="48" height="48" fill="white">
            <use xlink:href="#path-1"></use>
        </mask>
        <polygon id="path-3" points="12 22 20 25.2307692 20 36 12 36"></polygon>
        <mask id="mask-4" maskContentUnits="userSpaceOnUse" maskUnits="objectBoundingBox" x="0" y="0" width="8" height="14" fill="white">
            <use xlink:href="#path-3"></use>
        </mask>
        <polygon id="path-5" points="19 22 27 25.2307692 27 36 19 36"></polygon>
        <mask id="mask-6" maskContentUnits="userSpaceOnUse" maskUnits="objectBoundingBox" x="0" y="0" width="8" height="14" fill="white">
            <use xlink:href="#path-5"></use>
        </mask>
        <rect id="path-7" x="26" y="18" width="6" height="18"></rect>
        <mask id="mask-8" maskContentUnits="userSpaceOnUse" maskUnits="objectBoundingBox" x="0" y="0" width="6" height="18" fill="white">
            <use xlink:href="#path-7"></use>
        </mask>
        <ellipse id="path-9" cx="24" cy="24" rx="24" ry="24"></ellipse>
        <mask id="mask-10" maskContentUnits="userSpaceOnUse" maskUnits="objectBoundingBox" x="0" y="0" width="48" height="48" fill="white">
            <use xlink:href="#path-9"></use>
        </mask>
        <polygon id="path-11" points="12 22 20 25.2307692 20 36 12 36"></polygon>
        <mask id="mask-12" maskContentUnits="userSpaceOnUse" maskUnits="objectBoundingBox" x="0" y="0" width="8" height="14" fill="white">
            <use xlink:href="#path-11"></use>
        </mask>
        <polygon id="path-13" points="19 22 27 25.2307692 27 36 19 36"></polygon>
        <mask id="mask-14" maskContentUnits="userSpaceOnUse" maskUnits="objectBoundingBox" x="0" y="0" width="8" height="14" fill="white">
            <use xlink:href="#path-13"></use>
        </mask>
        <rect id="path-15" x="26" y="18" width="6" height="18"></rect>
        <mask id="mask-16" maskContentUnits="userSpaceOnUse" maskUnits="objectBoundingBox" x="0" y="0" width="6" height="18" fill="white">
            <use xlink:href="#path-15"></use>
        </mask>
    </defs>
    <g id="Symbols" stroke="none" stroke-width="1" fill="none" fill-rule="evenodd">
        <g id="icon_4">
            <g id="Group-8">
                <g id="Group-3" transform="translate(0.000000, 0.218905)">
                    <use id="Oval-7" stroke="#1E9DF2" mask="url(#mask-2)" stroke-width="2" fill="#1E9DF2" xlink:href="#path-1"></use>
                    <use id="Rectangle-13" stroke="#19395F" mask="url(#mask-4)" stroke-width="2" xlink:href="#path-3"></use>
                    <use id="Rectangle-13" stroke="#19395F" mask="url(#mask-6)" stroke-width="2" xlink:href="#path-5"></use>
                    <use id="Rectangle-13" stroke="#19395F" mask="url(#mask-8)" stroke-width="2" xlink:href="#path-7"></use>
                    <path d="M30,16 C29.4477153,16 29,15.5522847 29,15 C29,14.4477153 29.4477153,14 30,14 C30.5522847,14 31,14.4477153 31,15 C31,15.5522847 30.5522847,16 30,16 Z M33,15 C31.3431458,15 30,13.6568542 30,12 C30,10.3431458 31.3431458,9 33,9 C34.6568542,9 36,10.3431458 36,12 C36,13.6568542 34.6568542,15 33,15 Z" id="Combined-Shape" stroke="#19395F"></path>
                </g>
            </g>
            <g id="Group-2" transform="translate(0.000000, 54.000000)" stroke="#1E9DF2">
                <use id="Oval-7" mask="url(#mask-10)" stroke-width="2" xlink:href="#path-9"></use>
                <use id="Rectangle-13" mask="url(#mask-12)" stroke-width="2" xlink:href="#path-11"></use>
                <use id="Rectangle-13" mask="url(#mask-14)" stroke-width="2" xlink:href="#path-13"></use>
                <use id="Rectangle-13" mask="url(#mask-16)" stroke-width="2" xlink:href="#path-15"></use>
                <path d="M30,16 C29.4477153,16 29,15.5522847 29,15 C29,14.4477153 29.4477153,14 30,14 C30.5522847,14 31,14.4477153 31,15 C31,15.5522847 30.5522847,16 30,16 Z M33,15 C31.3431458,15 30,13.6568542 30,12 C30,10.3431458 31.3431458,9 33,9 C34.6568542,9 36,10.3431458 36,12 C36,13.6568542 34.6568542,15 33,15 Z" id="Combined-Shape"></path>
            </g>
        </g>
    </g>
</svg>