<?xml version="1.0"?>
<!--Icons from directory ""-->
<svg xmlns="http://www.w3.org/2000/svg" width="48" height="510" viewBox="0 0 48 510"><svg xmlns:xlink="http://www.w3.org/1999/xlink" height="102" width="48" version="1.1" viewBox="0 0 48 102" id="icon_1" y="0"><title>icon_1</title><desc>Created with Sketch.</desc><defs><ellipse id="icon_1-path-1" cy="24" cx="24" rx="24" ry="24"/><mask id="icon_1-mask-2" maskContentUnits="userSpaceOnUse" height="48" width="48" y="0" x="0" maskUnits="objectBoundingBox" fill="white"><use xlink:href="#icon_1-path-1"/></mask></defs><g id="icon_1-Symbols" fill-rule="evenodd" fill="none"><g id="icon_1-icon_1"><g id="icon_1-Group-10"><g id="icon_1-Group-3" transform="translate(0 .21890)"><ellipse id="icon_1-Oval-7" rx="24" ry="24" cy="24" cx="24" fill="#1E9DF2"/><g id="icon_1-Group-8" fill="#19395F" transform="translate(14 8.2189)"><polygon id="icon_1-1" points="0.63663 30.519 3.0164 30.519 3.0164 22.546 0.59116 24.244 0 23.38 3.3347 21 4.1836 21 4.1836 30.519 6.5179 30.519 6.5179 31.611 0.63663 31.611"/><path id="icon_1-2" d="m8.3966 2.8648c0 0.9297-0.4395 1.9655-1.3187 3.1074s-2.1069 2.3848-3.6834 3.7289h5.3356v1.0909h-6.7301v-1.0909c0.192-0.1819 0.4547-0.4194 0.7882-0.7125 0.3335-0.293 0.6922-0.6189 1.0762-0.9777 0.384-0.3587 0.7756-0.7452 1.1748-1.1595 0.3991-0.4143 0.7604-0.8388 1.0837-1.2733 0.3234-0.4345 0.5862-0.869 0.7883-1.3036 0.2021-0.4345 0.3031-0.8539 0.3031-1.2581 0-0.6063-0.1591-1.0838-0.4775-1.4324-0.3183-0.3486-0.7957-0.5229-1.4324-0.5229-0.5457 0-1.0055 0.0606-1.3793 0.1818-0.3739 0.1213-0.7125 0.2982-1.0156 0.5306l-0.5154-0.83371c0.4547-0.32337 0.9373-0.56084 1.4476-0.71242s1.0686-0.22737 1.6749-0.22737c0.9499 0 1.6674 0.25768 2.1525 0.77305 0.485 0.51535 0.7275 1.2126 0.7275 2.0918z"/><path id="icon_1-3" d="m12.425 23.747c0.404 0 0.776-0.054 1.114-0.16 0.339-0.106 0.634-0.255 0.887-0.447s0.45-0.424 0.591-0.697c0.142-0.273 0.212-0.576 0.212-0.91 0-0.697-0.245-1.194-0.735-1.493-0.49-0.298-1.149-0.447-1.978-0.447h-0.97v-0.727l2.986-3.775h-4.532v-1.091h5.987v1.091l-2.986 3.502h0.243c0.465 0 0.889 0.066 1.273 0.197s0.718 0.318 1 0.561c0.283 0.242 0.503 0.535 0.66 0.879 0.156 0.343 0.235 0.733 0.235 1.167 0 0.546-0.106 1.031-0.319 1.455-0.212 0.425-0.5 0.781-0.864 1.069-0.363 0.288-0.79 0.505-1.28 0.652-0.49 0.146-1.013 0.219-1.569 0.219-0.516 0-0.963-0.037-1.342-0.113s-0.725-0.17-1.038-0.281l0.303-1.061c0.263 0.122 0.571 0.22 0.925 0.296 0.353 0.076 0.753 0.114 1.197 0.114z"/><path id="icon_1-4" d="m23.125 15.306h-2.047v3.305h-1.182v-3.305h-4.896v-0.879l5.078-6.427h1v6.306h2.047v1zm-3.229-5.4113l-3.501 4.4113h3.501v-4.4113z"/></g></g></g><g id="icon_1-Group-2" transform="translate(0 54)"><use id="icon_1-Oval-7" xlink:href="#icon_1-path-1" stroke="#1E9DF2" stroke-width="2" mask="url(#icon_1-mask-2)"/><g fill="#1E9DF2"><polygon id="icon_1-1" points="14.637 38.738 17.016 38.738 17.016 30.765 14.591 32.463 14 31.599 17.335 29.219 18.184 29.219 18.184 38.738 20.518 38.738 20.518 39.829 14.637 39.829"/><path id="icon_1-2" d="m22.397 11.084c0 0.929-0.44 1.965-1.319 3.107s-2.107 2.385-3.683 3.729h5.335v1.091h-6.73v-1.091c0.192-0.182 0.455-0.419 0.788-0.712 0.334-0.294 0.692-0.619 1.076-0.978s0.776-0.745 1.175-1.16c0.399-0.414 0.761-0.838 1.084-1.273s0.586-0.869 0.788-1.304c0.202-0.434 0.303-0.853 0.303-1.258 0-0.606-0.159-1.083-0.477-1.4321-0.318-0.3486-0.796-0.5229-1.433-0.5229-0.545 0-1.005 0.0606-1.379 0.1819-0.374 0.1212-0.712 0.2981-1.016 0.5305l-0.515-0.8337c0.455-0.3234 0.937-0.5608 1.448-0.7124 0.51-0.1516 1.068-0.2274 1.675-0.2274 0.95 0 1.667 0.2577 2.152 0.7731 0.485 0.5153 0.728 1.213 0.728 2.092z"/><path id="icon_1-3" d="m26.425 31.965c0.404 0 0.776-0.053 1.114-0.159 0.339-0.106 0.634-0.255 0.887-0.447s0.45-0.424 0.591-0.697c0.142-0.273 0.212-0.576 0.212-0.91 0-0.697-0.245-1.195-0.735-1.493s-1.149-0.447-1.978-0.447h-0.97v-0.727l2.986-3.775h-4.532v-1.091h5.987v1.091l-2.986 3.502h0.243c0.465 0 0.889 0.065 1.273 0.197 0.384 0.131 0.718 0.318 1 0.561 0.283 0.242 0.503 0.535 0.66 0.879 0.156 0.343 0.235 0.732 0.235 1.167 0 0.546-0.106 1.031-0.319 1.455-0.212 0.425-0.5 0.781-0.864 1.069-0.363 0.288-0.79 0.505-1.28 0.652-0.49 0.146-1.013 0.219-1.569 0.219-0.516 0-0.963-0.038-1.342-0.113-0.379-0.076-0.725-0.17-1.038-0.281l0.303-1.061c0.263 0.121 0.571 0.22 0.925 0.296 0.353 0.076 0.753 0.113 1.197 0.113z"/><path id="icon_1-4" d="m37.125 23.525h-2.047v3.304h-1.182v-3.304h-4.896v-0.879l5.078-6.427h1v6.306h2.047v1zm-3.229-5.411l-3.501 4.411h3.501v-4.411z"/></g></g></g></g></svg><svg xmlns:xlink="http://www.w3.org/1999/xlink" height="102" width="48" version="1.1" viewBox="0 0 48 102" id="icon_2" y="102"><title>icon_2 hover</title><desc>Created with Sketch.</desc><defs><ellipse id="icon_2-path-1" cy="24" cx="24" rx="24" ry="24"/><mask id="icon_2-mask-2" maskContentUnits="userSpaceOnUse" height="48" width="48" y="0" x="0" maskUnits="objectBoundingBox" fill="white"><use xlink:href="#icon_2-path-1"/></mask><path id="icon_2-path-3" d="m14 12h20v16.001c0 2.208-1.541 4.923-3.427 6.055l-6.573 3.944-6.573-3.944c-1.892-1.135-3.427-3.848-3.427-6.055v-16.001z"/><mask id="icon_2-mask-4" maskContentUnits="userSpaceOnUse" height="26" width="20" y="0" x="0" maskUnits="objectBoundingBox" fill="white"><use xlink:href="#icon_2-path-3"/></mask><ellipse id="icon_2-path-5" cy="24" cx="24" rx="24" ry="24"/><mask id="icon_2-mask-6" maskContentUnits="userSpaceOnUse" height="48" width="48" y="0" x="0" maskUnits="objectBoundingBox" fill="white"><use xlink:href="#icon_2-path-5"/></mask><path id="icon_2-path-7" d="m14 12h20v16.001c0 2.208-1.541 4.923-3.427 6.055l-6.573 3.944-6.573-3.944c-1.892-1.135-3.427-3.848-3.427-6.055v-16.001z"/><mask id="icon_2-mask-8" maskContentUnits="userSpaceOnUse" height="26" width="20" y="0" x="0" maskUnits="objectBoundingBox" fill="white"><use xlink:href="#icon_2-path-7"/></mask></defs><g id="icon_2-Symbols" fill-rule="evenodd" fill="none"><g id="icon_2-icon_2-hover"><g id="icon_2-Group-8"><g id="icon_2-Group-3" transform="translate(0 .21890)"><use id="icon_2-Oval-7" xlink:href="#icon_2-path-1" mask="url(#icon_2-mask-2)" stroke="#1E9DF2" stroke-width="2" fill="#1E9DF2"/><use id="icon_2-Rectangle-12" xlink:href="#icon_2-path-3" stroke="#19395F" stroke-width="2" mask="url(#icon_2-mask-4)"/><g id="icon_2-Group-39" fill="#19395F" transform="translate(18 17.219)"><g id="icon_2-Group-21-Copy-3"><path id="icon_2-ON" d="m4.3093 5.1674c0 1.0706-0.8073 1.5404-1.571 1.5404-0.7636 0-1.571-0.4698-1.571-1.5404v-2.469c0-1.0706 0.8074-1.5404 1.571-1.5404 0.7637 0 1.571 0.4698 1.571 1.5404v2.469zm-4.3093 0c0 1.6496 1.1019 2.6984 2.7383 2.6984 1.6365 0 2.7384-1.0488 2.7384-2.6984v-2.469c0-1.6496-1.1019-2.6984-2.7384-2.6984-1.6364 0-2.7383 1.0488-2.7383 2.6984v2.469zm12.11-5.0582h-1.168v5.4842l-3.1415-5.4842-1.1674 0.00005v7.6472l1.1674 0.0001v-5.4842l3.1415 5.4842h1.168v-7.6472z"/><polygon id="icon_2-Rectangle-29" points="5.5632 3.999 6.5451 3.999 6.5451 16.125 5.5632 16.125" transform="translate(6.0632 10.062) rotate(90) translate(-6.0632 -10.062)"/><path id="icon_2-place-copy-3" d="m0.3064 12.829v-0.502h0.34757c0.1692 0 0.24695 0.126 0.24695 0.25s-0.07775 0.252-0.24695 0.252h-0.34757zm0 0.304h0.34757c0.37953 0 0.55333-0.265 0.55333-0.556 0-0.293-0.1738-0.554-0.55333-0.554h-0.65397v1.603h0.3064v-0.493zm2.8651-1.11h-0.3064v1.603h0.9741v-0.305h-0.6677v-1.298zm3.08 0.989h-0.3567l0.1784-0.52 0.1783 0.52zm0.1052 0.291l0.1144 0.323h0.3201l-0.5717-1.603h-0.2927l-0.5716 1.603h0.3201l0.1144-0.323h0.567zm2.7851-0.213c-0.016 0.165-0.1395 0.254-0.295 0.254-0.1669 0-0.2972-0.103-0.2972-0.288v-0.463c0-0.185 0.1303-0.288 0.2972-0.288 0.1555 0 0.279 0.091 0.295 0.254h0.3087c-0.0137-0.337-0.231-0.559-0.6037-0.559-0.3841 0-0.6036 0.238-0.6036 0.593v0.463c0 0.354 0.2195 0.593 0.6036 0.593 0.3727 0 0.59-0.222 0.6037-0.559h-0.3087zm2.3002-0.763h0.668v-0.304h-0.974v1.603h0.974v-0.305h-0.668v-0.352h0.508v-0.305h-0.508v-0.337z"/></g><rect id="icon_2-Rectangle-30" transform="translate(3.0171 3.5559) rotate(-30) translate(-3.0171 -3.5559)" height="6.3363" width=".98188" y=".38774" x="2.5171"/></g></g></g><g id="icon_2-Group-2" transform="translate(0 54)"><use id="icon_2-Oval-7" xlink:href="#icon_2-path-5" stroke="#1E9DF2" stroke-width="2" mask="url(#icon_2-mask-6)"/><use id="icon_2-Rectangle-12" xlink:href="#icon_2-path-7" stroke="#1E9DF2" stroke-width="2" mask="url(#icon_2-mask-8)"/><g fill="#1E9DF2"><path id="icon_2-ON" d="m22.309 22.386c0 1.071-0.807 1.541-1.571 1.541-0.763 0-1.571-0.47-1.571-1.541v-2.469c0-1.07 0.808-1.54 1.571-1.54 0.764 0 1.571 0.47 1.571 1.54v2.469zm-4.309 0c0 1.65 1.102 2.699 2.738 2.699 1.637 0 2.739-1.049 2.739-2.699v-2.469c0-1.649-1.102-2.698-2.739-2.698-1.636 0-2.738 1.049-2.738 2.698v2.469zm12.11-5.058h-1.168v5.484l-3.142-5.484h-1.167v7.647h1.167v-5.484l3.142 5.484h1.168v-7.647z"/><polygon id="icon_2-Rectangle-29" transform="translate(24.063 27.281) rotate(90) translate(-24.063 -27.281)" points="23.563 21.218 24.545 21.218 24.545 33.344 23.563 33.344"/><path id="icon_2-place-copy-3" d="m18.306 30.048v-0.502h0.348c0.169 0 0.247 0.126 0.247 0.25s-0.078 0.252-0.247 0.252h-0.348zm0 0.304h0.348c0.38 0 0.553-0.265 0.553-0.556 0-0.293-0.173-0.554-0.553-0.554h-0.654v1.603h0.306v-0.493zm2.866-1.11h-0.307v1.603h0.974v-0.305h-0.667v-1.298zm3.08 0.989h-0.357l0.178-0.52 0.179 0.52zm0.105 0.291l0.114 0.323h0.32l-0.571-1.603h-0.293l-0.572 1.603h0.32l0.115-0.323h0.567zm2.785-0.213c-0.016 0.165-0.14 0.254-0.295 0.254-0.167 0-0.297-0.103-0.297-0.289v-0.462c0-0.186 0.13-0.289 0.297-0.289 0.155 0 0.279 0.092 0.295 0.255h0.308c-0.013-0.337-0.23-0.559-0.603-0.559-0.384 0-0.604 0.238-0.604 0.593v0.462c0 0.355 0.22 0.594 0.604 0.594 0.373 0 0.59-0.223 0.603-0.559h-0.308zm2.3-0.763h0.668v-0.304h-0.974v1.603h0.974v-0.305h-0.668v-0.353h0.508v-0.304h-0.508v-0.337z"/><rect id="icon_2-Rectangle-30" transform="translate(21.017 20.775) rotate(-30) translate(-21.017 -20.775)" height="6.3363" width=".98188" y="17.607" x="20.517"/></g></g></g></g></svg><svg xmlns:xlink="http://www.w3.org/1999/xlink" height="102" width="48" version="1.1" viewBox="0 0 48 102" id="icon_3" y="204"><title>icon_3</title><desc>Created with Sketch.</desc><defs><ellipse id="icon_3-path-1" cy="24" cx="24" rx="24" ry="24"/><mask id="icon_3-mask-2" maskContentUnits="userSpaceOnUse" height="48" width="48" y="0" x="0" maskUnits="objectBoundingBox" fill="white"><use xlink:href="#icon_3-path-1"/></mask><ellipse id="icon_3-path-3" cy="24" cx="24" rx="24" ry="24"/><mask id="icon_3-mask-4" maskContentUnits="userSpaceOnUse" height="48" width="48" y="0" x="0" maskUnits="objectBoundingBox" fill="white"><use xlink:href="#icon_3-path-3"/></mask></defs><g id="icon_3-Symbols" fill-rule="evenodd" fill="none"><g id="icon_3-icon_3"><g id="icon_3-Group-8"><g id="icon_3-Group-3" transform="translate(0 .21890)"><use id="icon_3-Oval-7" xlink:href="#icon_3-path-1" mask="url(#icon_3-mask-2)" stroke="#1E9DF2" stroke-width="2" fill="#1E9DF2"/><polygon id="icon_3-Shape" stroke="#19395F" points="11.426 21.21 12.593 20.638 14.438 17.895 15.002 17.667 15.605 20.448 15.755 21.21 17.826 21.743 18.654 21.21 20.047 22.657 20.649 19.99 21.628 20.981 22.231 20.143 23.209 19.876 24.64 18.543 24.866 17.895 26.033 18.086 26.522 18.733 25.656 20.562 27.802 19.457 27.802 18.924 28.631 18.733 29.534 19.648 30.438 18.543 30.438 17.781 31.906 16.752 32.508 15.876 33.449 15.876 35.106 12.486 36.536 11 37.064 11.838 36.235 12.905 36.536 13.59 38.171 14.657 38.171 16.486 38.171 18.733 39.096 20.486 40 21.971 38.171 21.971 36.536 17.781 35.369 18.314 35.784 20.448 34.805 22.657 34.391 26.2 35.369 26.429 35.784 25.933 36.725 27 37.44 30.2 37.365 32.257 36.461 32.257 35.784 29.514 35.482 30.238 34.089 29.933 32.96 28.981 31.68 29.438 31.755 31.495 30.739 31.762 29.233 32.905 27.426 32.676 26.711 32.257 25.581 32.448 25.958 32.905 25.054 33.438 24.339 33.095 22.984 33.705 20.913 32.676 20.122 30.848 19.445 30.924 18.654 30.276 18.616 29.781 16.094 29.514 15.68 30.886 14.099 30.162 13.308 28.829 11.614 28.829 11.426 30.962 10.447 31.267 9.9576 33.21 9.5812 32.867 8 28.79 9.8824 27.876 9.5812 26.086 9.28 24.257 10.108 23.076 9.8447 22.352 10.974 21.133"/></g></g><g id="icon_3-Group-2" stroke="#1E9DF2" transform="translate(0 54)"><use id="icon_3-Oval-7" xlink:href="#icon_3-path-3" stroke-width="2" mask="url(#icon_3-mask-4)"/><polygon id="icon_3-Shape" points="11.426 21.21 12.593 20.638 14.438 17.895 15.002 17.667 15.605 20.448 15.755 21.21 17.826 21.743 18.654 21.21 20.047 22.657 20.649 19.99 21.628 20.981 22.231 20.143 23.209 19.876 24.64 18.543 24.866 17.895 26.033 18.086 26.522 18.733 25.656 20.562 27.802 19.457 27.802 18.924 28.631 18.733 29.534 19.648 30.438 18.543 30.438 17.781 31.906 16.752 32.508 15.876 33.449 15.876 35.106 12.486 36.536 11 37.064 11.838 36.235 12.905 36.536 13.59 38.171 14.657 38.171 16.486 38.171 18.733 39.096 20.486 40 21.971 38.171 21.971 36.536 17.781 35.369 18.314 35.784 20.448 34.805 22.657 34.391 26.2 35.369 26.429 35.784 25.933 36.725 27 37.44 30.2 37.365 32.257 36.461 32.257 35.784 29.514 35.482 30.238 34.089 29.933 32.96 28.981 31.68 29.438 31.755 31.495 30.739 31.762 29.233 32.905 27.426 32.676 26.711 32.257 25.581 32.448 25.958 32.905 25.054 33.438 24.339 33.095 22.984 33.705 20.913 32.676 20.122 30.848 19.445 30.924 18.654 30.276 18.616 29.781 16.094 29.514 15.68 30.886 14.099 30.162 13.308 28.829 11.614 28.829 11.426 30.962 10.447 31.267 9.9576 33.21 9.5812 32.867 8 28.79 9.8824 27.876 9.5812 26.086 9.28 24.257 10.108 23.076 9.8447 22.352 10.974 21.133"/></g></g></g></svg><svg xmlns:xlink="http://www.w3.org/1999/xlink" height="102" width="48" version="1.1" viewBox="0 0 48 102" id="icon_4" y="306"><title>icon_4</title><desc>Created with Sketch.</desc><defs><ellipse id="icon_4-path-1" cy="24" cx="24" rx="24" ry="24"/><mask id="icon_4-mask-2" maskContentUnits="userSpaceOnUse" height="48" width="48" y="0" x="0" maskUnits="objectBoundingBox" fill="white"><use xlink:href="#icon_4-path-1"/></mask><polygon id="icon_4-path-3" points="12 22 20 25.231 20 36 12 36"/><mask id="icon_4-mask-4" maskContentUnits="userSpaceOnUse" height="14" width="8" y="0" x="0" maskUnits="objectBoundingBox" fill="white"><use xlink:href="#icon_4-path-3"/></mask><polygon id="icon_4-path-5" points="19 22 27 25.231 27 36 19 36"/><mask id="icon_4-mask-6" maskContentUnits="userSpaceOnUse" height="14" width="8" y="0" x="0" maskUnits="objectBoundingBox" fill="white"><use xlink:href="#icon_4-path-5"/></mask><rect id="icon_4-path-7" y="18" x="26" height="18" width="6"/><mask id="icon_4-mask-8" maskContentUnits="userSpaceOnUse" height="18" width="6" y="0" x="0" maskUnits="objectBoundingBox" fill="white"><use xlink:href="#icon_4-path-7"/></mask><ellipse id="icon_4-path-9" cy="24" cx="24" rx="24" ry="24"/><mask id="icon_4-mask-10" maskContentUnits="userSpaceOnUse" height="48" width="48" y="0" x="0" maskUnits="objectBoundingBox" fill="white"><use xlink:href="#icon_4-path-9"/></mask><polygon id="icon_4-path-11" points="12 22 20 25.231 20 36 12 36"/><mask id="icon_4-mask-12" maskContentUnits="userSpaceOnUse" height="14" width="8" y="0" x="0" maskUnits="objectBoundingBox" fill="white"><use xlink:href="#icon_4-path-11"/></mask><polygon id="icon_4-path-13" points="19 22 27 25.231 27 36 19 36"/><mask id="icon_4-mask-14" maskContentUnits="userSpaceOnUse" height="14" width="8" y="0" x="0" maskUnits="objectBoundingBox" fill="white"><use xlink:href="#icon_4-path-13"/></mask><rect id="icon_4-path-15" y="18" x="26" height="18" width="6"/><mask id="icon_4-mask-16" maskContentUnits="userSpaceOnUse" height="18" width="6" y="0" x="0" maskUnits="objectBoundingBox" fill="white"><use xlink:href="#icon_4-path-15"/></mask></defs><g id="icon_4-Symbols" fill-rule="evenodd" fill="none"><g id="icon_4-icon_4"><g id="icon_4-Group-8"><g id="icon_4-Group-3" transform="translate(0 .21890)"><use id="icon_4-Oval-7" xlink:href="#icon_4-path-1" mask="url(#icon_4-mask-2)" stroke="#1E9DF2" stroke-width="2" fill="#1E9DF2"/><g stroke="#19395F"><g stroke-width="2"><use id="icon_4-Rectangle-13" xlink:href="#icon_4-path-3" mask="url(#icon_4-mask-4)"/><use id="icon_4-Rectangle-13" xlink:href="#icon_4-path-5" mask="url(#icon_4-mask-6)"/><use id="icon_4-Rectangle-13" xlink:href="#icon_4-path-7" mask="url(#icon_4-mask-8)"/></g><path id="icon_4-Combined-Shape" d="m30 16c-0.552 0-1-0.448-1-1s0.448-1 1-1 1 0.448 1 1-0.448 1-1 1zm3-1c-1.657 0-3-1.343-3-3s1.343-3 3-3 3 1.343 3 3-1.343 3-3 3z"/></g></g></g><g id="icon_4-Group-2" stroke="#1E9DF2" transform="translate(0 54)"><g stroke-width="2"><use id="icon_4-Oval-7" xlink:href="#icon_4-path-9" mask="url(#icon_4-mask-10)"/><use id="icon_4-Rectangle-13" xlink:href="#icon_4-path-11" mask="url(#icon_4-mask-12)"/><use id="icon_4-Rectangle-13" xlink:href="#icon_4-path-13" mask="url(#icon_4-mask-14)"/><use id="icon_4-Rectangle-13" xlink:href="#icon_4-path-15" mask="url(#icon_4-mask-16)"/></g><path id="icon_4-Combined-Shape" d="m30 16c-0.552 0-1-0.448-1-1s0.448-1 1-1 1 0.448 1 1-0.448 1-1 1zm3-1c-1.657 0-3-1.343-3-3s1.343-3 3-3 3 1.343 3 3-1.343 3-3 3z"/></g></g></g></svg><svg xmlns:xlink="http://www.w3.org/1999/xlink" height="102" width="48" version="1.1" viewBox="0 0 48 102" id="icon_5" y="408"><title>icon_5</title><desc>Created with Sketch.</desc><defs><ellipse id="icon_5-path-1" cy="24" cx="24" rx="24" ry="24"/><mask id="icon_5-mask-2" maskContentUnits="userSpaceOnUse" height="48" width="48" y="0" x="0" maskUnits="objectBoundingBox" fill="white"><use xlink:href="#icon_5-path-1"/></mask><rect id="icon_5-path-3" y="14" x="13" height="19" width="12"/><mask id="icon_5-mask-4" maskContentUnits="userSpaceOnUse" height="19" width="12" y="0" x="0" maskUnits="objectBoundingBox" fill="white"><use xlink:href="#icon_5-path-3"/></mask><rect id="icon_5-path-5" y="17" x="13" height="1" width="12"/><mask id="icon_5-mask-6" maskContentUnits="userSpaceOnUse" height="1" width="12" y="0" x="0" maskUnits="objectBoundingBox" fill="white"><use xlink:href="#icon_5-path-5"/></mask><rect id="icon_5-path-7" y="20" x="13" height="1" width="12"/><mask id="icon_5-mask-8" maskContentUnits="userSpaceOnUse" height="1" width="12" y="0" x="0" maskUnits="objectBoundingBox" fill="white"><use xlink:href="#icon_5-path-7"/></mask><rect id="icon_5-path-9" y="23" x="13" height="1" width="12"/><mask id="icon_5-mask-10" maskContentUnits="userSpaceOnUse" height="1" width="12" y="0" x="0" maskUnits="objectBoundingBox" fill="white"><use xlink:href="#icon_5-path-9"/></mask><rect id="icon_5-path-11" y="26" x="13" height="1" width="12"/><mask id="icon_5-mask-12" maskContentUnits="userSpaceOnUse" height="1" width="12" y="0" x="0" maskUnits="objectBoundingBox" fill="white"><use xlink:href="#icon_5-path-11"/></mask><rect id="icon_5-path-13" y="29" x="13" height="1" width="12"/><mask id="icon_5-mask-14" maskContentUnits="userSpaceOnUse" height="1" width="12" y="0" x="0" maskUnits="objectBoundingBox" fill="white"><use xlink:href="#icon_5-path-13"/></mask><rect id="icon_5-path-15" y="23" x="24" height="10" width="12"/><mask id="icon_5-mask-16" maskContentUnits="userSpaceOnUse" height="10" width="12" y="0" x="0" maskUnits="objectBoundingBox" fill="white"><use xlink:href="#icon_5-path-15"/></mask><rect id="icon_5-path-17" y="26" x="24" height="1" width="12"/><mask id="icon_5-mask-18" maskContentUnits="userSpaceOnUse" height="1" width="12" y="0" x="0" maskUnits="objectBoundingBox" fill="white"><use xlink:href="#icon_5-path-17"/></mask><rect id="icon_5-path-19" y="29" x="24" height="1" width="12"/><mask id="icon_5-mask-20" maskContentUnits="userSpaceOnUse" height="1" width="12" y="0" x="0" maskUnits="objectBoundingBox" fill="white"><use xlink:href="#icon_5-path-19"/></mask><ellipse id="icon_5-path-21" cy="24" cx="24" rx="24" ry="24"/><mask id="icon_5-mask-22" maskContentUnits="userSpaceOnUse" height="48" width="48" y="0" x="0" maskUnits="objectBoundingBox" fill="white"><use xlink:href="#icon_5-path-21"/></mask><rect id="icon_5-path-23" y="14" x="13" height="19" width="12"/><mask id="icon_5-mask-24" maskContentUnits="userSpaceOnUse" height="19" width="12" y="0" x="0" maskUnits="objectBoundingBox" fill="white"><use xlink:href="#icon_5-path-23"/></mask><rect id="icon_5-path-25" y="17" x="13" height="1" width="12"/><mask id="icon_5-mask-26" maskContentUnits="userSpaceOnUse" height="1" width="12" y="0" x="0" maskUnits="objectBoundingBox" fill="white"><use xlink:href="#icon_5-path-25"/></mask><rect id="icon_5-path-27" y="20" x="13" height="1" width="12"/><mask id="icon_5-mask-28" maskContentUnits="userSpaceOnUse" height="1" width="12" y="0" x="0" maskUnits="objectBoundingBox" fill="white"><use xlink:href="#icon_5-path-27"/></mask><rect id="icon_5-path-29" y="23" x="13" height="1" width="12"/><mask id="icon_5-mask-30" maskContentUnits="userSpaceOnUse" height="1" width="12" y="0" x="0" maskUnits="objectBoundingBox" fill="white"><use xlink:href="#icon_5-path-29"/></mask><rect id="icon_5-path-31" y="26" x="13" height="1" width="12"/><mask id="icon_5-mask-32" maskContentUnits="userSpaceOnUse" height="1" width="12" y="0" x="0" maskUnits="objectBoundingBox" fill="white"><use xlink:href="#icon_5-path-31"/></mask><rect id="icon_5-path-33" y="29" x="13" height="1" width="12"/><mask id="icon_5-mask-34" maskContentUnits="userSpaceOnUse" height="1" width="12" y="0" x="0" maskUnits="objectBoundingBox" fill="white"><use xlink:href="#icon_5-path-33"/></mask><rect id="icon_5-path-35" y="23" x="24" height="10" width="12"/><mask id="icon_5-mask-36" maskContentUnits="userSpaceOnUse" height="10" width="12" y="0" x="0" maskUnits="objectBoundingBox" fill="white"><use xlink:href="#icon_5-path-35"/></mask><rect id="icon_5-path-37" y="26" x="24" height="1" width="12"/><mask id="icon_5-mask-38" maskContentUnits="userSpaceOnUse" height="1" width="12" y="0" x="0" maskUnits="objectBoundingBox" fill="white"><use xlink:href="#icon_5-path-37"/></mask><rect id="icon_5-path-39" y="29" x="24" height="1" width="12"/><mask id="icon_5-mask-40" maskContentUnits="userSpaceOnUse" height="1" width="12" y="0" x="0" maskUnits="objectBoundingBox" fill="white"><use xlink:href="#icon_5-path-39"/></mask></defs><g id="icon_5-Symbols" fill-rule="evenodd" fill="none"><g id="icon_5-icon_5" stroke-width="2"><g id="icon_5-Group-8"><g id="icon_5-Group-3"><use id="icon_5-Oval-7" stroke="#1E9DF2" xlink:href="#icon_5-path-1" mask="url(#icon_5-mask-2)" fill="#1E9DF2"/><g stroke="#19395F"><use id="icon_5-Rectangle-13" xlink:href="#icon_5-path-3" mask="url(#icon_5-mask-4)"/><use id="icon_5-Rectangle-15" xlink:href="#icon_5-path-5" mask="url(#icon_5-mask-6)"/><use id="icon_5-Rectangle-15" xlink:href="#icon_5-path-7" mask="url(#icon_5-mask-8)"/><use id="icon_5-Rectangle-15" xlink:href="#icon_5-path-9" mask="url(#icon_5-mask-10)"/><use id="icon_5-Rectangle-15" xlink:href="#icon_5-path-11" mask="url(#icon_5-mask-12)"/><use id="icon_5-Rectangle-15" xlink:href="#icon_5-path-13" mask="url(#icon_5-mask-14)"/><use id="icon_5-Rectangle-13" xlink:href="#icon_5-path-15" mask="url(#icon_5-mask-16)"/><use id="icon_5-Rectangle-15" xlink:href="#icon_5-path-17" mask="url(#icon_5-mask-18)"/><use id="icon_5-Rectangle-15" xlink:href="#icon_5-path-19" mask="url(#icon_5-mask-20)"/></g></g></g><g id="icon_5-Group-8" stroke="#1E9DF2" transform="translate(0 54)"><g id="icon_5-Group-3"><use id="icon_5-Oval-7" xlink:href="#icon_5-path-21" mask="url(#icon_5-mask-22)"/><use id="icon_5-Rectangle-13" xlink:href="#icon_5-path-23" mask="url(#icon_5-mask-24)"/><use id="icon_5-Rectangle-15" xlink:href="#icon_5-path-25" mask="url(#icon_5-mask-26)"/><use id="icon_5-Rectangle-15" xlink:href="#icon_5-path-27" mask="url(#icon_5-mask-28)"/><use id="icon_5-Rectangle-15" xlink:href="#icon_5-path-29" mask="url(#icon_5-mask-30)"/><use id="icon_5-Rectangle-15" xlink:href="#icon_5-path-31" mask="url(#icon_5-mask-32)"/><use id="icon_5-Rectangle-15" xlink:href="#icon_5-path-33" mask="url(#icon_5-mask-34)"/><use id="icon_5-Rectangle-13" xlink:href="#icon_5-path-35" mask="url(#icon_5-mask-36)"/><use id="icon_5-Rectangle-15" xlink:href="#icon_5-path-37" mask="url(#icon_5-mask-38)"/><use id="icon_5-Rectangle-15" xlink:href="#icon_5-path-39" mask="url(#icon_5-mask-40)"/></g></g></g></g></svg></svg>
