<?xml version="1.0" encoding="UTF-8" standalone="no"?>
<svg width="48px" height="102px" viewBox="0 0 48 102" version="1.1" xmlns="http://www.w3.org/2000/svg" xmlns:xlink="http://www.w3.org/1999/xlink">
    <!-- Generator: Sketch 42 (36781) - http://www.bohemiancoding.com/sketch -->
    <title>icon_1</title>
    <desc>Created with Sketch.</desc>
    <defs>
        <ellipse id="path-1" cx="24" cy="24" rx="24" ry="24"></ellipse>
        <mask id="mask-2" maskContentUnits="userSpaceOnUse" maskUnits="objectBoundingBox" x="0" y="0" width="48" height="48" fill="white">
            <use xlink:href="#path-1"></use>
        </mask>
    </defs>
    <g id="Symbols" stroke="none" stroke-width="1" fill="none" fill-rule="evenodd">
        <g id="icon_1">
            <g id="Group-10">
                <g id="Group-3" transform="translate(0.000000, 0.218905)">
                    <ellipse id="Oval-7" fill="#1E9DF2" cx="24" cy="24" rx="24" ry="24"></ellipse>
                    <g id="Group-8" transform="translate(14.000000, 8.218905)" fill="#19395F">
                        <polygon id="1" points="0.636631579 30.5191579 3.01642105 30.5191579 3.01642105 22.5461053 0.591157895 24.2437895 0 23.3797895 3.33473684 21 4.18357895 21 4.18357895 30.5191579 6.51789474 30.5191579 6.51789474 31.6105263 0.636631579 31.6105263"></polygon>
                        <path d="M8.39663158,2.86484211 C8.39663158,3.79453096 7.95705703,4.83031008 7.07789474,5.97221053 C6.19873245,7.11411097 4.97095525,8.35704591 3.39452632,9.70105263 L8.73010526,9.70105263 L8.73010526,10.7924211 L2,10.7924211 L2,9.70105263 C2.19200096,9.51915699 2.45473517,9.28168568 2.78821053,8.98863158 C3.12168588,8.69557748 3.48041913,8.369686 3.86442105,8.01094737 C4.24842297,7.65220873 4.639998,7.26568628 5.03915789,6.85136842 C5.43831779,6.43705056 5.79957733,6.01263375 6.12294737,5.57810526 C6.44631741,5.14357677 6.70905162,4.7090548 6.91115789,4.27452632 C7.11326417,3.83999783 7.21431579,3.4206336 7.21431579,3.01642105 C7.21431579,2.41010223 7.05515949,1.93263332 6.73684211,1.584 C6.41852472,1.23536668 5.94105581,1.06105263 5.30442105,1.06105263 C4.75873411,1.06105263 4.29894924,1.1216836 3.92505263,1.24294737 C3.55115603,1.36421113 3.21263309,1.54105147 2.90947368,1.77347368 L2.39410526,0.939789474 C2.84884438,0.616419436 3.33136587,0.378948126 3.84168421,0.227368421 C4.35200255,0.0757887158 4.91031276,0 5.51663158,0 C6.46653107,0 7.18399757,0.257681634 7.66905263,0.773052632 C8.15410769,1.28842363 8.39663158,1.98567981 8.39663158,2.86484211 Z" id="2"></path>
                        <path d="M12.4252632,23.7465263 C12.8294757,23.7465263 13.2008404,23.6934742 13.5393684,23.5873684 C13.8778964,23.4812626 14.1734724,23.3322115 14.4261053,23.1402105 C14.6787381,22.9482096 14.8757888,22.7157908 15.0172632,22.4429474 C15.1587375,22.1701039 15.2294737,21.866949 15.2294737,21.5334737 C15.2294737,20.836207 14.9844235,20.3385278 14.4943158,20.0404211 C14.0042081,19.7423143 13.3448462,19.5932632 12.5162105,19.5932632 L11.5461053,19.5932632 L11.5461053,18.8656842 L14.5322105,15.0913684 L10,15.0913684 L10,14 L15.9873684,14 L15.9873684,15.0913684 L13.0012632,18.5928421 L13.2437895,18.5928421 C13.7086339,18.5928421 14.1330507,18.6585257 14.5170526,18.7898947 C14.9010546,18.9212638 15.2345249,19.1082093 15.5174737,19.3507368 C15.8004225,19.5932644 16.0202097,19.8863141 16.1768421,20.2298947 C16.3334745,20.5734754 16.4117895,20.9625241 16.4117895,21.3970526 C16.4117895,21.9427396 16.3056853,22.4277874 16.0934737,22.8522105 C15.8812621,23.2766337 15.593265,23.6328407 15.2294737,23.9208421 C14.8656824,24.2088435 14.4387393,24.4261045 13.9486316,24.5726316 C13.4585239,24.7191586 12.9355817,24.7924211 12.3797895,24.7924211 C11.8644185,24.7924211 11.4172651,24.7545267 11.0383158,24.6787368 C10.6593665,24.602947 10.3132647,24.5094742 10,24.3983158 L10.3031579,23.3372632 C10.5658961,23.4585269 10.8741035,23.5570523 11.2277895,23.6328421 C11.5814755,23.708632 11.9806294,23.7465263 12.4252632,23.7465263 Z" id="3"></path>
                        <path d="M23.1246316,15.3061053 L21.0783158,15.3061053 L21.0783158,18.6105263 L19.896,18.6105263 L19.896,15.3061053 L15,15.3061053 L15,14.4269474 L20.0778947,8 L21.0783158,8 L21.0783158,14.3056842 L23.1246316,14.3056842 L23.1246316,15.3061053 Z M19.896,9.89473684 L16.3945263,14.3056842 L19.896,14.3056842 L19.896,9.89473684 Z" id="4"></path>
                    </g>
                </g>
            </g>
            <g id="Group-2" transform="translate(0.000000, 54.000000)">
                <use id="Oval-7" stroke="#1E9DF2" mask="url(#mask-2)" stroke-width="2" xlink:href="#path-1"></use>
                <polygon id="1" fill="#1E9DF2" points="14.6366316 38.7380634 17.0164211 38.7380634 17.0164211 30.7650107 14.5911579 32.4626949 14 31.5986949 17.3347368 29.2189055 18.1835789 29.2189055 18.1835789 38.7380634 20.5178947 38.7380634 20.5178947 39.8294318 14.6366316 39.8294318"></polygon>
                <path d="M22.3966316,11.0837476 C22.3966316,12.0134364 21.957057,13.0492156 21.0778947,14.191116 C20.1987324,15.3330164 18.9709553,16.5759514 17.3945263,17.9199581 L22.7301053,17.9199581 L22.7301053,19.0113265 L16,19.0113265 L16,17.9199581 C16.192001,17.7380625 16.4547352,17.5005911 16.7882105,17.2075371 C17.1216859,16.914483 17.4804191,16.5885915 17.8644211,16.2298528 C18.248423,15.8711142 18.639998,15.4845918 19.0391579,15.0702739 C19.4383178,14.655956 19.7995773,14.2315392 20.1229474,13.7970107 C20.4463174,13.3624822 20.7090516,12.9279603 20.9111579,12.4934318 C21.1132642,12.0589033 21.2143158,11.6395391 21.2143158,11.2353265 C21.2143158,10.6290077 21.0551595,10.1515388 20.7368421,9.80290547 C20.4185247,9.45427215 19.9410558,9.2799581 19.3044211,9.2799581 C18.7587341,9.2799581 18.2989492,9.34058908 17.9250526,9.46185284 C17.551156,9.58311661 17.2126331,9.75995694 16.9094737,9.99237916 L16.3941053,9.15869495 C16.8488444,8.83532491 17.3313659,8.5978536 17.8416842,8.44627389 C18.3520026,8.29469419 18.9103128,8.21890547 19.5166316,8.21890547 C20.4665311,8.21890547 21.1839976,8.47658711 21.6690526,8.9919581 C22.1541077,9.5073291 22.3966316,10.2045853 22.3966316,11.0837476 Z" id="2" fill="#1E9DF2"></path>
                <path d="M26.4252632,31.9654318 C26.8294757,31.9654318 27.2008404,31.9123797 27.5393684,31.8062739 C27.8778964,31.7001681 28.1734724,31.551117 28.4261053,31.359116 C28.6787381,31.167115 28.8757888,30.9346963 29.0172632,30.6618528 C29.1587375,30.3890094 29.2294737,30.0858545 29.2294737,29.7523792 C29.2294737,29.0551125 28.9844235,28.5574333 28.4943158,28.2593265 C28.0042081,27.9612198 27.3448462,27.8121686 26.5162105,27.8121686 L25.5461053,27.8121686 L25.5461053,27.0845897 L28.5322105,23.3102739 L24,23.3102739 L24,22.2189055 L29.9873684,22.2189055 L29.9873684,23.3102739 L27.0012632,26.8117476 L27.2437895,26.8117476 C27.7086339,26.8117476 28.1330507,26.8774311 28.5170526,27.0088002 C28.9010546,27.1401693 29.2345249,27.3271148 29.5174737,27.5696423 C29.8004225,27.8121698 30.0202097,28.1052195 30.1768421,28.4488002 C30.3334745,28.7923809 30.4117895,29.1814296 30.4117895,29.6159581 C30.4117895,30.161645 30.3056853,30.6466928 30.0934737,31.071116 C29.8812621,31.4955392 29.593265,31.8517461 29.2294737,32.1397476 C28.8656824,32.427749 28.4387393,32.64501 27.9486316,32.7915371 C27.4585239,32.9380641 26.9355817,33.0113265 26.3797895,33.0113265 C25.8644185,33.0113265 25.4172651,32.9734322 25.0383158,32.8976423 C24.6593665,32.8218525 24.3132647,32.7283797 24,32.6172213 L24.3031579,31.5561686 C24.5658961,31.6774324 24.8741035,31.7759577 25.2277895,31.8517476 C25.5814755,31.9275374 25.9806294,31.9654318 26.4252632,31.9654318 Z" id="3" fill="#1E9DF2"></path>
                <path d="M37.1246316,23.5250107 L35.0783158,23.5250107 L35.0783158,26.8294318 L33.896,26.8294318 L33.896,23.5250107 L29,23.5250107 L29,22.6458528 L34.0778947,16.2189055 L35.0783158,16.2189055 L35.0783158,22.5245897 L37.1246316,22.5245897 L37.1246316,23.5250107 Z M33.896,18.1136423 L30.3945263,22.5245897 L33.896,22.5245897 L33.896,18.1136423 Z" id="4" fill="#1E9DF2"></path>
            </g>
        </g>
    </g>
</svg>