<?xml version="1.0" encoding="UTF-8" standalone="no"?>
<svg width="48px" height="102px" viewBox="0 0 48 102" version="1.1" xmlns="http://www.w3.org/2000/svg" xmlns:xlink="http://www.w3.org/1999/xlink">
    <!-- Generator: Sketch 42 (36781) - http://www.bohemiancoding.com/sketch -->
    <title>icon_3</title>
    <desc>Created with Sketch.</desc>
    <defs>
        <ellipse id="path-1" cx="24" cy="24" rx="24" ry="24"></ellipse>
        <mask id="mask-2" maskContentUnits="userSpaceOnUse" maskUnits="objectBoundingBox" x="0" y="0" width="48" height="48" fill="white">
            <use xlink:href="#path-1"></use>
        </mask>
        <ellipse id="path-3" cx="24" cy="24" rx="24" ry="24"></ellipse>
        <mask id="mask-4" maskContentUnits="userSpaceOnUse" maskUnits="objectBoundingBox" x="0" y="0" width="48" height="48" fill="white">
            <use xlink:href="#path-3"></use>
        </mask>
    </defs>
    <g id="Symbols" stroke="none" stroke-width="1" fill="none" fill-rule="evenodd">
        <g id="icon_3">
            <g id="Group-8">
                <g id="Group-3" transform="translate(0.000000, 0.218905)">
                    <use id="Oval-7" stroke="#1E9DF2" mask="url(#mask-2)" stroke-width="2" fill="#1E9DF2" xlink:href="#path-1"></use>
                    <polygon id="Shape" stroke="#19395F" points="11.4258824 21.2095238 12.5929412 20.6380952 14.4376471 17.8952381 15.0023529 17.6666667 15.6047059 20.447619 15.7552941 21.2095238 17.8258824 21.7428571 18.6541176 21.2095238 20.0470588 22.6571429 20.6494118 19.9904762 21.6282353 20.9809524 22.2305882 20.1428571 23.2094118 19.8761905 24.64 18.5428571 24.8658824 17.8952381 26.0329412 18.0857143 26.5223529 18.7333333 25.6564706 20.5619048 27.8023529 19.4571429 27.8023529 18.9238095 28.6305882 18.7333333 29.5341176 19.647619 30.4376471 18.5428571 30.4376471 17.7809524 31.9058824 16.752381 32.5082353 15.8761905 33.4494118 15.8761905 35.1058824 12.4857143 36.5364706 11 37.0635294 11.8380952 36.2352941 12.9047619 36.5364706 13.5904762 38.1714286 14.6571429 38.1714286 16.4857143 38.1714286 18.7333333 39.0964706 20.4857143 40 21.9714286 38.1714286 21.9714286 36.5364706 17.7809524 35.3694118 18.3142857 35.7835294 20.447619 34.8047059 22.6571429 34.3905882 26.2 35.3694118 26.4285714 35.7835294 25.9333333 36.7247059 27 37.44 30.2 37.3647059 32.2571429 36.4611765 32.2571429 35.7835294 29.5142857 35.4823529 30.2380952 34.0894118 29.9333333 32.96 28.9809524 31.68 29.4380952 31.7552941 31.4952381 30.7388235 31.7619048 29.2329412 32.9047619 27.4258824 32.6761905 26.7105882 32.2571429 25.5811765 32.447619 25.9576471 32.9047619 25.0541176 33.4380952 24.3388235 33.0952381 22.9835294 33.7047619 20.9129412 32.6761905 20.1223529 30.847619 19.4447059 30.9238095 18.6541176 30.2761905 18.6164706 29.7809524 16.0941176 29.5142857 15.68 30.8857143 14.0988235 30.1619048 13.3082353 28.8285714 11.6141176 28.8285714 11.4258824 30.9619048 10.4470588 31.2666667 9.95764706 33.2095238 9.58117647 32.8666667 8 28.7904762 9.88235294 27.8761905 9.58117647 26.0857143 9.28 24.2571429 10.1082353 23.0761905 9.84470588 22.352381 10.9741176 21.1333333"></polygon>
                </g>
            </g>
            <g id="Group-2" transform="translate(0.000000, 54.000000)" stroke="#1E9DF2">
                <use id="Oval-7" mask="url(#mask-4)" stroke-width="2" xlink:href="#path-3"></use>
                <polygon id="Shape" points="11.4258824 21.2095238 12.5929412 20.6380952 14.4376471 17.8952381 15.0023529 17.6666667 15.6047059 20.447619 15.7552941 21.2095238 17.8258824 21.7428571 18.6541176 21.2095238 20.0470588 22.6571429 20.6494118 19.9904762 21.6282353 20.9809524 22.2305882 20.1428571 23.2094118 19.8761905 24.64 18.5428571 24.8658824 17.8952381 26.0329412 18.0857143 26.5223529 18.7333333 25.6564706 20.5619048 27.8023529 19.4571429 27.8023529 18.9238095 28.6305882 18.7333333 29.5341176 19.647619 30.4376471 18.5428571 30.4376471 17.7809524 31.9058824 16.752381 32.5082353 15.8761905 33.4494118 15.8761905 35.1058824 12.4857143 36.5364706 11 37.0635294 11.8380952 36.2352941 12.9047619 36.5364706 13.5904762 38.1714286 14.6571429 38.1714286 16.4857143 38.1714286 18.7333333 39.0964706 20.4857143 40 21.9714286 38.1714286 21.9714286 36.5364706 17.7809524 35.3694118 18.3142857 35.7835294 20.447619 34.8047059 22.6571429 34.3905882 26.2 35.3694118 26.4285714 35.7835294 25.9333333 36.7247059 27 37.44 30.2 37.3647059 32.2571429 36.4611765 32.2571429 35.7835294 29.5142857 35.4823529 30.2380952 34.0894118 29.9333333 32.96 28.9809524 31.68 29.4380952 31.7552941 31.4952381 30.7388235 31.7619048 29.2329412 32.9047619 27.4258824 32.6761905 26.7105882 32.2571429 25.5811765 32.447619 25.9576471 32.9047619 25.0541176 33.4380952 24.3388235 33.0952381 22.9835294 33.7047619 20.9129412 32.6761905 20.1223529 30.847619 19.4447059 30.9238095 18.6541176 30.2761905 18.6164706 29.7809524 16.0941176 29.5142857 15.68 30.8857143 14.0988235 30.1619048 13.3082353 28.8285714 11.6141176 28.8285714 11.4258824 30.9619048 10.4470588 31.2666667 9.95764706 33.2095238 9.58117647 32.8666667 8 28.7904762 9.88235294 27.8761905 9.58117647 26.0857143 9.28 24.2571429 10.1082353 23.0761905 9.84470588 22.352381 10.9741176 21.1333333"></polygon>
            </g>
        </g>
    </g>
</svg>