<?xml version="1.0" encoding="UTF-8" standalone="no"?>
<svg width="48px" height="102px" viewBox="0 0 48 102" version="1.1" xmlns="http://www.w3.org/2000/svg" xmlns:xlink="http://www.w3.org/1999/xlink">
    <!-- Generator: Sketch 42 (36781) - http://www.bohemiancoding.com/sketch -->
    <title>icon_2 hover</title>
    <desc>Created with Sketch.</desc>
    <defs>
        <ellipse id="path-1" cx="24" cy="24" rx="24" ry="24"></ellipse>
        <mask id="mask-2" maskContentUnits="userSpaceOnUse" maskUnits="objectBoundingBox" x="0" y="0" width="48" height="48" fill="white">
            <use xlink:href="#path-1"></use>
        </mask>
        <path d="M14,12 L34,12 L34,28.00077 C34,30.2094838 32.4594153,32.9243508 30.5725579,34.0564653 L24,38 L17.4274421,34.0564653 C15.5345181,32.9207109 14,30.2075324 14,28.00077 L14,12 Z" id="path-3"></path>
        <mask id="mask-4" maskContentUnits="userSpaceOnUse" maskUnits="objectBoundingBox" x="0" y="0" width="20" height="26" fill="white">
            <use xlink:href="#path-3"></use>
        </mask>
        <ellipse id="path-5" cx="24" cy="24" rx="24" ry="24"></ellipse>
        <mask id="mask-6" maskContentUnits="userSpaceOnUse" maskUnits="objectBoundingBox" x="0" y="0" width="48" height="48" fill="white">
            <use xlink:href="#path-5"></use>
        </mask>
        <path d="M14,12 L34,12 L34,28.00077 C34,30.2094838 32.4594153,32.9243508 30.5725579,34.0564653 L24,38 L17.4274421,34.0564653 C15.5345181,32.9207109 14,30.2075324 14,28.00077 L14,12 Z" id="path-7"></path>
        <mask id="mask-8" maskContentUnits="userSpaceOnUse" maskUnits="objectBoundingBox" x="0" y="0" width="20" height="26" fill="white">
            <use xlink:href="#path-7"></use>
        </mask>
    </defs>
    <g id="Symbols" stroke="none" stroke-width="1" fill="none" fill-rule="evenodd">
        <g id="icon_2-hover">
            <g id="Group-8">
                <g id="Group-3" transform="translate(0.000000, 0.218905)">
                    <use id="Oval-7" stroke="#1E9DF2" mask="url(#mask-2)" stroke-width="2" fill="#1E9DF2" xlink:href="#path-1"></use>
                    <use id="Rectangle-12" stroke="#19395F" mask="url(#mask-4)" stroke-width="2" xlink:href="#path-3"></use>
                    <g id="Group-39" transform="translate(18.000000, 17.218905)" fill="#19395F">
                        <g id="Group-21-Copy-3">
                            <path d="M4.30934198,5.16739032 C4.30934198,6.23801242 3.50202222,6.70777517 2.73834136,6.70777517 C1.9746605,6.70777517 1.16734074,6.23801242 1.16734074,5.16739032 L1.16734074,2.69840467 C1.16734074,1.62778257 1.9746605,1.15801982 2.73834136,1.15801982 C3.50202222,1.15801982 4.30934198,1.62778257 4.30934198,2.69840467 L4.30934198,5.16739032 Z M0,5.16739032 C0,6.81702233 1.10188238,7.86579499 2.73834136,7.86579499 C4.37480034,7.86579499 5.47668272,6.81702233 5.47668272,5.16739032 L5.47668272,2.69840467 C5.47668272,1.04877267 4.37480034,0 2.73834136,0 C1.10188238,0 0,1.04877267 0,2.69840467 L0,5.16739032 Z M12.1097964,0.109247153 L10.9424557,0.109247153 L10.9424557,5.59345422 L7.80045447,0.109247153 L6.63311373,0.109247153 L6.63311373,7.75654784 L7.80045447,7.75654784 L7.80045447,2.27234078 L10.9424557,7.75654784 L12.1097964,7.75654784 L12.1097964,0.109247153 Z" id="ON"></path>
                            <polygon id="Rectangle-29" transform="translate(6.063217, 10.062189) rotate(90.000000) translate(-6.063217, -10.062189) " points="5.56321697 3.99897208 6.54509236 3.99897208 6.54509236 16.125406 5.56321697 16.125406"></polygon>
                            <path d="M0.30640346,12.8288839 L0.30640346,12.327432 L0.653965594,12.327432 C0.823173474,12.327432 0.900917636,12.4533674 0.900917636,12.5770131 C0.900917636,12.7006588 0.823173474,12.8288839 0.653965594,12.8288839 L0.30640346,12.8288839 Z M0.30640346,13.1334186 L0.653965594,13.1334186 C1.03354003,13.1334186 1.2073211,12.8678094 1.2073211,12.5770131 C1.2073211,12.2839271 1.03354003,12.0228973 0.653965594,12.0228973 L0,12.0228973 L0,13.6257115 L0.30640346,13.6257115 L0.30640346,13.1334186 Z M3.17150447,12.0228973 L2.86510101,12.0228973 L2.86510101,13.6257115 L3.83918962,13.6257115 L3.83918962,13.3211768 L3.17150447,13.3211768 L3.17150447,12.0228973 Z M6.25154522,13.0120627 L5.89483671,13.0120627 L6.07319097,12.4922929 L6.25154522,13.0120627 Z M6.3567285,13.3028589 L6.47105815,13.6257115 L6.79118116,13.6257115 L6.21953292,12.0228973 L5.92684902,12.0228973 L5.35520077,13.6257115 L5.67532379,13.6257115 L5.78965344,13.3028589 L6.3567285,13.3028589 Z M9.14179875,13.0899136 C9.1257926,13.2547745 9.00231658,13.3440742 8.84682826,13.3440742 C8.67990697,13.3440742 8.54957117,13.2410361 8.54957117,13.0555676 L8.54957117,12.5930412 C8.54957117,12.4075727 8.67990697,12.3045347 8.84682826,12.3045347 C9.00231658,12.3045347 9.1257926,12.3961241 9.14179875,12.5586952 L9.4504888,12.5586952 C9.43676925,12.2221042 9.21954291,12 8.84682826,12 C8.46268064,12 8.24316771,12.2381324 8.24316771,12.5930412 L8.24316771,13.0555676 C8.24316771,13.4104765 8.46268064,13.6486088 8.84682826,13.6486088 C9.21954291,13.6486088 9.43676925,13.4265046 9.4504888,13.0899136 L9.14179875,13.0899136 Z M11.4421113,12.327432 L12.1097964,12.327432 L12.1097964,12.0228973 L11.1357078,12.0228973 L11.1357078,13.6257115 L12.1097964,13.6257115 L12.1097964,13.3211768 L11.4421113,13.3211768 L11.4421113,12.9685577 L11.9497349,12.9685577 L11.9497349,12.664023 L11.4421113,12.664023 L11.4421113,12.327432 Z" id="place-copy-3"></path>
                        </g>
                        <rect id="Rectangle-30" transform="translate(3.017096, 3.555903) rotate(-30.000000) translate(-3.017096, -3.555903) " x="2.51709642" y="0.387735103" width="0.981875388" height="6.33633485"></rect>
                    </g>
                </g>
            </g>
            <g id="Group-2" transform="translate(0.000000, 54.000000)">
                <use id="Oval-7" stroke="#1E9DF2" mask="url(#mask-6)" stroke-width="2" xlink:href="#path-5"></use>
                <use id="Rectangle-12" stroke="#1E9DF2" mask="url(#mask-8)" stroke-width="2" xlink:href="#path-7"></use>
                <path d="M22.309342,22.3862958 C22.309342,23.4569179 21.5020222,23.9266806 20.7383414,23.9266806 C19.9746605,23.9266806 19.1673407,23.4569179 19.1673407,22.3862958 L19.1673407,19.9173101 C19.1673407,18.846688 19.9746605,18.3769253 20.7383414,18.3769253 C21.5020222,18.3769253 22.309342,18.846688 22.309342,19.9173101 L22.309342,22.3862958 Z M18,22.3862958 C18,24.0359278 19.1018824,25.0847005 20.7383414,25.0847005 C22.3748003,25.0847005 23.4766827,24.0359278 23.4766827,22.3862958 L23.4766827,19.9173101 C23.4766827,18.2676781 22.3748003,17.2189055 20.7383414,17.2189055 C19.1018824,17.2189055 18,18.2676781 18,19.9173101 L18,22.3862958 Z M30.1097964,17.3281526 L28.9424557,17.3281526 L28.9424557,22.8123597 L25.8004545,17.3281526 L24.6331137,17.3281526 L24.6331137,24.9754533 L25.8004545,24.9754533 L25.8004545,19.4912462 L28.9424557,24.9754533 L30.1097964,24.9754533 L30.1097964,17.3281526 Z" id="ON" fill="#1E9DF2"></path>
                <polygon id="Rectangle-29" fill="#1E9DF2" transform="translate(24.063217, 27.281095) rotate(90.000000) translate(-24.063217, -27.281095) " points="23.563217 21.2178776 24.5450924 21.2178776 24.5450924 33.3443115 23.563217 33.3443115"></polygon>
                <path d="M18.3064035,30.0477894 L18.3064035,29.5463375 L18.6539656,29.5463375 C18.8231735,29.5463375 18.9009176,29.6722729 18.9009176,29.7959186 C18.9009176,29.9195642 18.8231735,30.0477894 18.6539656,30.0477894 L18.3064035,30.0477894 Z M18.3064035,30.3523241 L18.6539656,30.3523241 C19.03354,30.3523241 19.2073211,30.0867149 19.2073211,29.7959186 C19.2073211,29.5028326 19.03354,29.2418028 18.6539656,29.2418028 L18,29.2418028 L18,30.844617 L18.3064035,30.844617 L18.3064035,30.3523241 Z M21.1715045,29.2418028 L20.865101,29.2418028 L20.865101,30.844617 L21.8391896,30.844617 L21.8391896,30.5400823 L21.1715045,30.5400823 L21.1715045,29.2418028 Z M24.2515452,30.2309681 L23.8948367,30.2309681 L24.073191,29.7111984 L24.2515452,30.2309681 Z M24.3567285,30.5217644 L24.4710581,30.844617 L24.7911812,30.844617 L24.2195329,29.2418028 L23.926849,29.2418028 L23.3552008,30.844617 L23.6753238,30.844617 L23.7896534,30.5217644 L24.3567285,30.5217644 Z M27.1417988,30.3088191 C27.1257926,30.47368 27.0023166,30.5629796 26.8468283,30.5629796 C26.679907,30.5629796 26.5495712,30.4599416 26.5495712,30.2744731 L26.5495712,29.8119467 C26.5495712,29.6264782 26.679907,29.5234402 26.8468283,29.5234402 C27.0023166,29.5234402 27.1257926,29.6150295 27.1417988,29.7776007 L27.4504888,29.7776007 C27.4367692,29.4410097 27.2195429,29.2189055 26.8468283,29.2189055 C26.4626806,29.2189055 26.2431677,29.4570379 26.2431677,29.8119467 L26.2431677,30.2744731 C26.2431677,30.6293819 26.4626806,30.8675143 26.8468283,30.8675143 C27.2195429,30.8675143 27.4367692,30.6454101 27.4504888,30.3088191 L27.1417988,30.3088191 Z M29.4421113,29.5463375 L30.1097964,29.5463375 L30.1097964,29.2418028 L29.1357078,29.2418028 L29.1357078,30.844617 L30.1097964,30.844617 L30.1097964,30.5400823 L29.4421113,30.5400823 L29.4421113,30.1874632 L29.9497349,30.1874632 L29.9497349,29.8829285 L29.4421113,29.8829285 L29.4421113,29.5463375 Z" id="place-copy-3" fill="#1E9DF2"></path>
                <rect id="Rectangle-30" fill="#1E9DF2" transform="translate(21.017096, 20.774808) rotate(-30.000000) translate(-21.017096, -20.774808) " x="20.5170964" y="17.6066406" width="0.981875388" height="6.33633485"></rect>
            </g>
        </g>
    </g>
</svg>