<?xml version="1.0" encoding="UTF-8" standalone="no"?>
<svg width="11px" height="22px" viewBox="0 0 11 22" version="1.1" xmlns="http://www.w3.org/2000/svg" xmlns:xlink="http://www.w3.org/1999/xlink">
    <!-- Generator: Sketch 41.2 (35397) - http://www.bohemiancoding.com/sketch -->
    <title>facebook</title>
    <desc>Created with Sketch.</desc>
    <defs></defs>
    <g id="Page-1" stroke="none" stroke-width="1" fill="none" fill-rule="evenodd" opacity="0.699999988">
        <g id="main_new" transform="translate(-552.000000, -9998.000000)" fill="#FFFFFF">
            <g id="footer" transform="translate(0.000000, 9726.000000)">
                <g id="socials" transform="translate(552.000000, 271.000000)">
                    <path d="M2.93080718,22.9998699 L2.94651372,13.4953212 L0.571697258,13.4953212 C0.263073117,13.4953212 0.0125819503,13.2358425 0.0113930089,12.9149424 L4.20243314e-06,9.85123209 C-0.0011847389,9.52857532 0.250057339,9.26636382 0.560371028,9.26636382 L2.93086975,9.26636382 L2.93086975,6.30604157 C2.93086975,2.87061551 4.94875351,1 7.89613908,1 L10.3146961,1 C10.6241337,1 10.8750629,1.26084513 10.8750629,1.58265607 L10.8750629,4.16599236 C10.8750629,4.48767316 10.6243214,4.74845323 10.3150089,4.74864842 L8.83077213,4.74936414 C7.22789147,4.74936414 6.91751521,5.54133395 6.91751521,6.70358803 L6.91751521,9.26642888 L10.4395975,9.26642888 C10.7751918,9.26642888 11.03557,9.57112775 10.996022,9.91766334 L10.6467862,12.9813737 C10.6133706,13.2745561 10.3742683,13.4954514 10.0903616,13.4954514 L6.93322175,13.4954514 L6.91751521,23 L2.93080718,22.9998699 Z" id="facebook"></path>
                </g>
            </g>
        </g>
    </g>
</svg>