<?xml version="1.0" encoding="UTF-8" standalone="no"?>
<svg width="22px" height="22px" viewBox="0 0 22 22" version="1.1" xmlns="http://www.w3.org/2000/svg" xmlns:xlink="http://www.w3.org/1999/xlink">
    <!-- Generator: Sketch 41.2 (35397) - http://www.bohemiancoding.com/sketch -->
    <title>instagram</title>
    <desc>Created with Sketch.</desc>
    <defs></defs>
    <g id="Page-1" stroke="none" stroke-width="1" fill="none" fill-rule="evenodd" opacity="0.699999988">
        <g id="main_new" transform="translate(-600.000000, -9998.000000)" fill="#FFFFFF">
            <g id="footer" transform="translate(0.000000, 9726.000000)">
                <g id="socials" transform="translate(552.000000, 271.000000)">
                    <g id="instagram" transform="translate(48.000000, 1.000000)">
                        <g id="Page-1">
                            <path d="M20.0522453,10.8307536 C20.0373457,10.8304647 20.0224943,10.8301275 20.0075946,10.8297904 C20.0075946,9.96299106 20.0253874,9.09575827 20.0024834,8.22958502 C19.9804957,7.39645013 19.9484783,6.56124432 19.8641918,5.7326847 C19.6754633,3.87719086 18.5669603,2.59717125 16.7335353,2.24983505 C15.7632275,2.06600501 14.7553091,2.03985366 13.7629171,2.02160069 C11.9234165,1.9877436 10.0825176,1.99183727 8.24282411,2.02020402 C7.29763837,2.03479677 6.3431464,2.06793145 5.4116066,2.2128475 C3.82091523,2.46029806 2.73517157,3.37236862 2.2966212,4.94828861 C2.1561115,5.45320717 2.07409125,5.98856341 2.06165079,6.51231287 C2.01454098,8.50135681 1.98483817,10.4914603 1.99236031,12.4809858 C1.99723041,13.7550335 2.02620994,15.0334638 2.13836696,16.3015877 C2.30081624,18.1381543 3.42325444,19.4176441 5.22678378,19.7631984 C6.21213581,19.9520372 7.236304,19.9802113 8.2446082,19.9996201 C10.0759598,20.034922 11.9087098,20.0236042 13.7405918,20.0034248 C14.5905453,19.9940816 15.4426687,19.9477508 16.2884754,19.8640472 C17.072128,19.7865564 17.8055848,19.5300516 18.4354193,19.0291786 C19.4565979,18.21709 19.8500155,17.0985056 19.9099997,15.8581224 C19.9910074,14.1839542 20.007884,12.5067037 20.0522453,10.8307536 L20.0522453,10.8307536 Z M11.0104892,0 C12.4881556,0.0261995134 13.9661595,0.0417554745 15.4434402,0.0817771576 C16.7179606,0.116260341 17.9550632,0.340497352 19.0640483,1.0095 C20.5438846,1.90225805 21.4488558,3.22595957 21.7349864,4.91481681 C21.9042346,5.91352877 21.9646045,6.93882554 21.9800346,7.95362323 C22.0131609,10.1277012 22.0001418,12.3028869 21.9765628,14.4773502 C21.9641224,15.6228084 21.9261741,16.7726491 21.5474634,17.8748588 C20.8128011,20.0129607 19.3113628,21.3102219 17.1121979,21.7316295 C16.1184075,21.9220576 15.0866207,21.9644391 14.0706498,21.9798988 C11.8859023,22.0131298 9.70004572,22.0002708 7.51496069,21.9765275 C6.36802732,21.9640538 5.21685069,21.9240321 4.11384469,21.5439947 C1.9836327,20.8100712 0.727338998,19.3074521 0.248574119,17.1326035 C0.0264781336,16.1235851 0.016303958,15.093087 0.00969797672,14.0676939 C-0.00443014391,11.8931343 -0.00457480043,9.71823752 0.0190042132,7.54377423 C0.0314446743,6.39831609 0.069633997,5.24852348 0.44834478,4.1463138 C1.18295883,2.00830829 2.68449356,0.711336053 4.88351384,0.290169243 C5.87735239,0.0997893231 6.90865697,0.0794654359 7.9252066,0.0396845571 C8.95202683,-0.000433447832 9.98164376,0.0308229569 11.0100552,0.0308229569 L11.0104892,0 Z" id="Fill-1"></path>
                            <path d="M14.5684647,10.9985215 C14.5674319,9.04089416 12.9530851,7.42772245 10.9987795,7.43143132 C9.03780712,7.43514019 7.43064359,9.04333545 7.43153562,11.0010098 C7.43242765,12.9580738 9.04484949,14.5695084 11.0011739,14.5684756 C12.9588129,14.5674427 14.5694976,12.9554916 14.5684647,10.9985215 M16.5,11.0022304 C16.4999531,14.0555714 14.0531977,16.5001878 10.997418,16.5 C7.92576939,16.4998592 5.49892053,14.0498438 5.50000036,10.9501184 C5.50108019,7.92593199 7.9728594,5.49840456 11.0494846,5.50000079 C14.057564,5.50159701 16.5000469,7.96724601 16.5,11.0022304" id="Fill-4"></path>
                            <path d="M18.0714223,5.10865124 C18.0694064,5.75539604 17.5492124,6.2811818 16.9069477,6.2856856 C16.2592357,6.29023228 15.7165663,5.75376609 15.714293,5.10667814 C15.7120197,4.45534376 16.2416929,3.92874303 16.8992271,3.92857145 C17.5649108,3.92844277 18.0734812,4.4404598 18.0714223,5.10865124" id="Fill-6"></path>
                        </g>
                    </g>
                </g>
            </g>
        </g>
    </g>
</svg>