<?xml version="1.0" encoding="UTF-8" standalone="no"?>
<svg width="22px" height="22px" viewBox="0 0 22 22" version="1.1" xmlns="http://www.w3.org/2000/svg" xmlns:xlink="http://www.w3.org/1999/xlink">
    <!-- Generator: Sketch 41.2 (35397) - http://www.bohemiancoding.com/sketch -->
    <title>linkedIn</title>
    <desc>Created with Sketch.</desc>
    <defs></defs>
    <g id="Page-1" stroke="none" stroke-width="1" fill="none" fill-rule="evenodd" opacity="0.699999988">
        <g id="main_new" transform="translate(-717.000000, -9998.000000)" fill="#FFFFFF">
            <g id="footer" transform="translate(0.000000, 9726.000000)">
                <g id="socials" transform="translate(552.000000, 271.000000)">
                    <g id="linkedIn" transform="translate(165.000000, 1.000000)">
                        <path d="M3.18671536,5.77476195 C1.60223879,5.77476195 0.317739703,4.49026287 0.317739703,2.9057863 C0.317739703,1.32130973 1.60223879,0.0368106457 3.18671536,0.0368106457 C4.77119193,0.0368106457 6.05569101,1.32130973 6.05569101,2.9057863 C6.05569101,4.49026287 4.77126248,5.77476195 3.18671536,5.77476195 Z" id="Path"></path>
                        <path d="M5.40613957,20.3370745 C5.40613957,20.7289078 5.08852465,21.0465227 4.6966914,21.0465227 L1.67673931,21.0465227 C1.28490606,21.0465227 0.967291143,20.7289078 0.967291143,20.3370745 L0.967291143,7.67755894 C0.967291143,7.2857257 1.28490606,6.96811078 1.67673931,6.96811078 L4.6966914,6.96811078 C5.08852465,6.96811078 5.40613957,7.2857257 5.40613957,7.67755894 L5.40613957,20.3370745 Z" id="Path"></path>
                        <path d="M21.1883277,20.3942198 C21.1883277,20.7544468 20.8962517,21.0465227 20.5360248,21.0465227 L17.2953931,21.0465227 C16.9351661,21.0465227 16.6430902,20.7544468 16.6430902,20.3942198 L16.6430902,14.4561894 C16.6430902,13.5703669 16.9029249,10.5744723 14.3281417,10.5744723 C12.3309491,10.5744723 11.9258525,12.625071 11.8445087,13.5453218 L11.8445087,20.3942198 C11.8445087,20.7544468 11.5525033,21.0465227 11.1922058,21.0465227 L8.05796313,21.0465227 C7.69773617,21.0465227 7.40566025,20.7544468 7.40566025,20.3942198 L7.40566025,7.62041366 C7.40566025,7.26018669 7.69773617,6.96811078 8.05796313,6.96811078 L11.1922058,6.96811078 C11.5524328,6.96811078 11.8445087,7.26018669 11.8445087,7.62041366 L11.8445087,8.72486981 C12.5850693,7.61349978 13.6856452,6.75568551 16.0289548,6.75568551 C21.2180291,6.75568551 21.1883277,11.6035813 21.1883277,14.2672572 L21.1883277,20.3942198 L21.1883277,20.3942198 Z" id="Path"></path>
                    </g>
                </g>
            </g>
        </g>
    </g>
</svg>