<?xml version="1.0" encoding="UTF-8" standalone="no"?>
<svg width="24px" height="20px" viewBox="0 0 24 20" version="1.1" xmlns="http://www.w3.org/2000/svg" xmlns:xlink="http://www.w3.org/1999/xlink">
    <!-- Generator: Sketch 41.2 (35397) - http://www.bohemiancoding.com/sketch -->
    <title>twitter</title>
    <desc>Created with Sketch.</desc>
    <defs></defs>
    <g id="Page-1" stroke="none" stroke-width="1" fill="none" fill-rule="evenodd" opacity="0.699999988">
        <g id="main_new" transform="translate(-660.000000, -9999.000000)" fill="#1E9DF2">
            <g id="footer" transform="translate(0.000000, 9726.000000)">
                <g id="socials" transform="translate(552.000000, 271.000000)">
                    <path d="M131.618296,4.32662022 C131.085054,4.56350884 130.531507,4.7503935 129.963506,4.88569142 C130.589377,4.28986467 131.059951,3.54461226 131.325431,2.71277622 L131.325431,2.71277622 C131.401207,2.47530139 131.143744,2.26995102 130.929698,2.39710059 L130.929698,2.39710059 C130.139518,2.86665709 129.288366,3.2189124 128.399824,3.444194 C128.348273,3.45726655 128.295083,3.46389075 128.241718,3.46389075 C128.079867,3.46389075 127.922521,3.40368669 127.798763,3.29441662 C126.853403,2.45970812 125.637531,2 124.375198,2 C123.828965,2 123.277466,2.08529397 122.735973,2.25353706 C121.058246,2.77485616 119.763731,4.16130819 119.357581,5.87187732 C119.20521,6.51348729 119.163957,7.15568348 119.234877,7.78058639 C119.24301,7.85239746 119.20913,7.90251866 119.188241,7.9260258 C119.151552,7.96723656 119.099533,7.99086094 119.045524,7.99086094 C119.039497,7.99086094 119.033294,7.99056784 119.02715,7.98998162 C115.354664,7.6481609 112.042979,5.87562908 109.702107,2.99896533 L109.702107,2.99896533 C109.582738,2.85223626 109.353829,2.87023299 109.258684,3.03372776 L109.258684,3.03372776 C108.800282,3.82159784 108.558032,4.72272425 108.558032,5.6396784 C108.558032,7.04494787 109.121585,8.36926134 110.100474,9.3346953 C109.688824,9.236915 109.290399,9.08291688 108.920295,8.8769803 L108.920295,8.8769803 C108.741241,8.77732411 108.520934,8.90541162 108.518418,9.11058612 L108.518418,9.11058612 C108.492788,11.1982074 109.712815,13.0557987 111.540457,13.8922658 C111.503651,13.8931451 111.466845,13.8935555 111.429981,13.8935555 C111.140276,13.8935555 110.846943,13.8655345 110.558233,13.8102546 L110.558233,13.8102546 C110.356592,13.7716818 110.187192,13.9633148 110.249803,14.1591685 L110.249803,14.1591685 C110.843023,16.0145908 112.437659,17.3822254 114.345933,17.6927424 C112.76218,18.7578325 110.917863,19.3196589 108.998295,19.3196589 L108.399867,19.3193072 C108.215488,19.3193072 108.059547,19.4397153 108.01256,19.6186275 C107.966275,19.7948431 108.051531,19.9807312 108.208759,20.0723563 C110.371805,21.333476 112.839068,22 115.344893,22 C117.538308,22 119.59006,21.5639163 121.443213,20.703942 C123.142064,19.9155443 124.643311,18.7885501 125.905235,17.3542631 C127.080791,16.0181667 128.000053,14.4757821 128.637393,12.7700199 C129.244949,11.1440413 129.566076,9.40908571 129.566076,7.75268266 L129.566076,7.67377841 C129.566018,7.40781363 129.686089,7.15755936 129.895571,6.9872059 C130.69049,6.34061312 131.382717,5.57947434 131.95294,4.72495186 L131.95294,4.72495186 C132.103498,4.49931853 131.866046,4.21652944 131.618296,4.32662022 L131.618296,4.32662022 Z" id="twitter"></path>
                </g>
            </g>
        </g>
    </g>
</svg>