
<svg width="66px" height="65px" viewBox="-1 -1 66 65" version="1.1" xmlns="http://www.w3.org/2000/svg" xmlns:xlink="http://www.w3.org/1999/xlink">
    <!-- Generator: Sketch 42 (36781) - http://www.bohemiancoding.com/sketch -->
    <desc>Created with Sketch.</desc>
    <defs></defs>
    <g id="Group" stroke="none" stroke-width="1" fill="none" fill-rule="evenodd" transform="translate(0.247059, 0.000000)">
        <path d="M62.7529412,0 L0,0 L0,59.0644068 L5.06470588,59.0644068 L5.06470588,63.1412429 L15.1817647,63.1412429 L15.1817647,59.0644068 L47.5711765,59.0644068 L47.5711765,63.1412429 L57.6882353,63.1412429 L57.6882353,59.0644068 L62.7529412,59.0644068 L62.7529412,0 Z M13.1558824,61.1028249 L7.09058824,61.1028249 L7.09058824,59.0644068 L13.1682353,59.0644068 L13.1682353,61.1028249 L13.1558824,61.1028249 Z M55.6623529,61.1028249 L49.5847059,61.1028249 L49.5847059,59.0644068 L55.6623529,59.0644068 L55.6623529,61.1028249 Z M60.7270588,57.0259887 L2.02588235,57.0259887 L2.02588235,2.03841808 L60.7270588,2.03841808 L60.7270588,57.0259887 L60.7270588,57.0259887 Z" id="Shape" stroke="#1E9DF2" stroke-width="0.5" fill="#19395F" fill-rule="nonzero"></path>
        <path d="M56.6752941,6.11525424 L6.07764706,6.11525424 L6.07764706,52.9615819 L56.6876471,52.9615819 L56.6876471,6.11525424 L56.6752941,6.11525424 Z M54.6617647,50.9231638 L8.09117647,50.9231638 L8.09117647,8.14124294 L54.6494118,8.14124294 L54.6494118,50.9231638 L54.6617647,50.9231638 Z" id="Shape" stroke="#1E9DF2" stroke-width="0.5" fill="#19395F" fill-rule="nonzero"></path>
        <path d="M14.4405882,35.9706215 L12.2541176,38.1706215 L13.6870588,39.6124294 L15.8735294,37.4124294 C17.6152941,38.8542373 19.8511765,39.7118644 22.2723529,39.7118644 C24.6935294,39.7118644 26.9294118,38.8418079 28.6711765,37.4124294 L30.8576471,39.6124294 L32.2905882,38.1706215 L30.1041176,35.9706215 C31.5370588,34.2180791 32.3894118,31.9683616 32.3894118,29.5322034 C32.3894118,27.0960452 31.5247059,24.8463277 30.1041176,23.0937853 L32.2905882,20.8937853 L30.8576471,19.4519774 L28.6711765,21.6519774 C26.9294118,20.2101695 24.6935294,19.3525424 22.2723529,19.3525424 C19.8511765,19.3525424 17.6152941,20.2225989 15.8735294,21.6519774 L13.6870588,19.4519774 L12.2541176,20.8937853 L14.4405882,23.0937853 C13.0076471,24.8463277 12.1552941,27.0960452 12.1552941,29.5322034 C12.1552941,31.9683616 13.0076471,34.2180791 14.4405882,35.9706215 Z M22.2723529,21.3909605 C26.7317647,21.3909605 30.3635294,25.0451977 30.3635294,29.5322034 C30.3635294,34.019209 26.7317647,37.6734463 22.2723529,37.6734463 C17.8129412,37.6734463 14.1811765,34.019209 14.1811765,29.5322034 C14.1811765,25.0451977 17.8005882,21.3909605 22.2723529,21.3909605 Z" id="Shape" stroke="#1E9DF2" stroke-width="0.5" fill="#19395F" fill-rule="nonzero"></path>
        <path d="M22.2723529,35.6474576 C25.62,35.6474576 28.35,32.900565 28.35,29.5322034 C28.35,26.1638418 25.62,23.4169492 22.2723529,23.4169492 C18.9247059,23.4169492 16.1947059,26.1638418 16.1947059,29.5322034 C16.1947059,32.900565 18.9123529,35.6474576 22.2723529,35.6474576 Z M22.2723529,25.4553672 C24.5082353,25.4553672 26.3241176,27.2824859 26.3241176,29.5322034 C26.3241176,31.7819209 24.5082353,33.6090395 22.2723529,33.6090395 C20.0364706,33.6090395 18.2205882,31.7819209 18.2205882,29.5322034 C18.2205882,27.2824859 20.0364706,25.4553672 22.2723529,25.4553672 Z" id="Shape" stroke="#1E9DF2" stroke-width="0.5" fill="#19395F" fill-rule="nonzero"></path>
        <polygon id="Shape" stroke="#1E9DF2" stroke-width="0.5" fill="#19395F" fill-rule="nonzero" points="49.5970588 22.4101695 44.5323529 22.4101695 44.5323529 24.4361582 47.5711765 24.4361582 47.5711765 34.6282486 44.5323529 34.6282486 44.5323529 36.6666667 49.5970588 36.6666667"></polygon>
    </g>
</svg>