
<svg width="61px" height="74px" viewBox="27 19 61 74" version="1.1" xmlns="http://www.w3.org/2000/svg" xmlns:xlink="http://www.w3.org/1999/xlink">
    <!-- Generator: Sketch 42 (36781) - http://www.bohemiancoding.com/sketch -->
    <desc>Created with Sketch.</desc>
    <defs></defs>
    <g id="Group" stroke="none" stroke-width="1" fill="none" fill-rule="evenodd" transform="translate(27.000000, 19.000000)">
        <text id="$" font-family="PTMono-Regular, PT Mono" font-size="31.3043478" font-weight="normal" letter-spacing="1.11801241" fill="#19395F">
            <tspan x="0" y="28">$</tspan>
        </text>
        <text id="€" font-family="PTMono-Regular, PT Mono" font-size="31.3043478" font-weight="normal" letter-spacing="1.11801241" fill="#19395F">
            <tspan x="30" y="33">€</tspan>
        </text>
        <path d="M48.4616528,55.4058625 C48.4616528,56.1675211 48.4658297,56.9291798 48.458575,57.6910607 C48.4570362,57.8563681 48.4990252,57.9196916 48.672697,57.9141369 C49.4394909,57.8890297 50.2082634,57.9028053 50.9726392,57.8499247 C51.6602916,57.8021544 52.3459654,57.6792847 52.9667871,57.3546688 C53.5410032,57.0540492 54.00596,56.6467795 54.1677606,55.9602202 C54.4032067,54.9603766 53.954518,53.9423135 53.0474675,53.4768308 C52.5075461,53.199763 51.9309118,53.0300118 51.3336127,52.9931286 C50.4551412,52.9386927 49.5731523,52.9444696 48.6929221,52.9138077 C48.4968268,52.9071421 48.455937,52.982908 48.4579155,53.1639908 C48.4662694,53.9112073 48.4616528,54.658646 48.4616528,55.4058625 L48.4616528,55.4058625 Z M48.4614329,65.8840017 C49.2372402,65.8840017 49.975895,65.9024432 50.7134505,65.8793357 C51.681396,65.8488961 52.641867,65.7386911 53.5592498,65.4000774 C54.1459966,65.1834446 54.6964703,64.8963783 55.0343608,64.3318 C55.6896971,63.2370823 55.3485089,61.835968 54.2534973,61.1849587 C53.4548268,60.7101441 52.5671221,60.4986216 51.6503989,60.4561838 C50.6791558,60.4110797 49.7057144,60.4168566 48.7329325,60.4046363 C48.4620925,60.4010813 48.4616528,60.4079691 48.4616528,60.6930357 C48.4614329,62.3378895 48.4616528,63.9825213 48.4614329,65.6269308 L48.4614329,65.8840017 Z M50.376879,46 L52.8520318,46 C52.8485144,46.0857644 52.8419193,46.1717509 52.8419193,46.2577375 C52.8412598,47.4073355 52.8414796,48.5569335 52.8414796,49.7065315 C52.8414796,50.1020252 52.8416994,50.0993589 53.243343,50.1437964 C54.341872,50.265333 55.420176,50.4641908 56.4334081,50.9407829 C57.389922,51.3907126 58.1360512,52.0448325 58.5275822,53.0620068 C58.8087546,53.7936701 58.8782233,54.5539957 58.8226044,55.3278747 C58.7276345,56.6465573 58.1208824,57.6517335 56.990257,58.326739 C56.9139733,58.3725096 56.8363706,58.4160584 56.7310683,58.4767156 C56.8003172,58.5095993 56.8299953,58.5262634 56.8616519,58.5382615 C57.2859387,58.6995696 57.7289117,58.823328 58.1314346,59.0281849 C59.1189456,59.5309952 59.8248445,60.2930982 60.1042583,61.4062575 C60.3838918,62.5200833 60.3212381,63.6301319 60.0466608,64.7317374 C59.8087964,65.6855883 59.3587886,66.5230129 58.6106808,67.1700228 C57.7612279,67.9043524 56.7420602,68.2931805 55.6683728,68.5051473 C54.8136438,68.6740098 53.9386897,68.7411104 53.0705505,68.8362067 C52.8836884,68.8568701 52.8307076,68.9179717 52.8377424,69.0994988 C52.850493,69.4294472 52.8406003,69.7602844 52.8416994,70.0908994 C52.8445573,71.0605255 52.8485144,72.0303739 52.8520318,73 L50.376879,73 L50.376879,68.9137501 C49.7457249,68.9137501 49.1365546,68.9126392 48.5276041,68.9148611 C48.3807525,68.9153054 48.4119695,69.0339535 48.4119695,69.1212732 C48.4115298,70.41396 48.4128488,71.7070911 48.4137282,73 L45.9385753,73 L45.9385753,68.8415392 L41.0170683,68.8415392 C41.0062963,68.7973239 40.9981623,68.7831039 41.0003607,68.7704392 C41.1531479,67.8496943 41.3094525,66.9296159 41.4574033,66.0082045 C41.4796069,65.8693373 41.5616064,65.8802245 41.6554771,65.8802245 C42.1602245,65.8808911 42.6651917,65.8817798 43.1699391,65.8800023 C43.8641866,65.8775582 44.1961416,65.537167 44.1961416,64.8294999 C44.1963614,61.2507262 44.1963614,57.6719525 44.1961416,54.0929567 C44.1961416,53.3175224 43.726788,52.8064912 42.9566965,52.7631646 C42.5526348,52.7402793 42.1470342,52.7420568 41.7420931,52.7362799 C41.4960947,52.7325027 41.2498765,52.7353912 41.0021194,52.7353912 L41.0021194,50.0815839 L45.9385753,50.0815839 L45.9385753,46 L48.4137282,46 C48.4124091,47.2722455 48.4130686,48.544491 48.407133,49.8167365 C48.4066933,49.9669352 48.4524196,50.0160386 48.6025688,50.0107061 C49.0288341,49.9955974 49.4555391,49.9938199 49.8822441,49.9882652 C50.042286,49.9860433 50.2023278,49.9878208 50.3478604,49.9878208 C50.3656672,49.9296077 50.3731417,49.9162765 50.3731417,49.9029452 C50.3749004,48.6018154 50.3757798,47.3009077 50.376879,46 L50.376879,46 Z" id="Fill-1" stroke="#1E9DF2" fill="#19395F"></path>
        <path d="M21.2355455,55.8422963 C23.4552727,55.8422963 25.1257273,55.2792593 26.2466364,54.1534568 C27.3667273,53.0271111 27.9271818,51.4504444 27.9271818,49.4210123 C27.9271818,47.3926667 27.3667273,45.8149136 26.2463636,44.6893827 C25.1257273,43.5633086 23.455,43 21.2352727,43 L12.8647273,43 L12.8647273,53.4079012 L10,53.4079012 L10,55.8422963 L12.8647273,55.8422963 L12.8647273,58.1628889 L10,58.1628889 L10,60.5970123 L12.8647273,60.5970123 L12.8647273,64.7283951 L15.7676364,64.7283951 L15.7676364,60.5970123 L23.6074545,60.5970123 L23.6074545,58.1628889 L15.7676364,58.1628889 L15.7676364,55.8422963 L21.2355455,55.8422963 Z M15.7676364,45.4349383 L20.2572727,45.4349383 C21.9072727,45.4349383 23.1146364,45.774716 23.8782727,46.4545432 C24.6427273,47.1343704 25.0245455,48.1235556 25.0245455,49.4210123 C25.0245455,50.7198272 24.6427273,51.7090123 23.8782727,52.3882963 C23.1146364,53.0681235 21.9072727,53.4079012 20.2572727,53.4079012 L15.7676364,53.4079012 L15.7676364,45.4349383 Z" id="Shape" fill="#19395F" fill-rule="nonzero"></path>
    </g>
</svg>