<svg width="85" height="77" viewBox="0 0 85 77" xmlns="http://www.w3.org/2000/svg"><title>Shape</title><path d="M83.437 44.898h-2.325l-10.093-27.67a2.688 2.688 0 0 0 1.509-2.406h-1.375c0 .465-.244.872-.609 1.107l-.123-.34a.687.687 0 0 0-1.293 0l-.098.271a1.312 1.312 0 0 1-.516-1.04.688.688 0 0 0-.688-.687H45.808v-1.845a.688.688 0 0 0-.687-.688h-1.547l2.155-2.828a.694.694 0 0 0 .095-.666L42.828.41c-.206-.53-1.076-.53-1.281 0l-2.995 7.697a.685.685 0 0 0 .094.666L40.8 11.6h-1.546a.688.688 0 0 0-.687.688v1.845H16.548a.688.688 0 0 0-.687.688c0 .45-.228.848-.573 1.086l-.117-.318a.688.688 0 0 0-1.292 0l-.108.298a1.315 1.315 0 0 1-.548-1.066h-1.375c0 1.033.59 1.922 1.446 2.374L3.192 44.898H.937a.688.688 0 0 0-.687.688c0 4.17 6.287 7.436 14.314 7.436 8.025 0 14.312-3.266 14.312-7.436a.688.688 0 0 0-.688-.688h-2.326L15.765 17.215a2.703 2.703 0 0 0 1.382-1.707h21.42v1.845c0 .38.308.688.687.688h.5v44.953h-.872a.688.688 0 0 0-.688.688v2.349h-5.027a5.777 5.777 0 0 0-5.768 5.637h-3.226a.688.688 0 0 0-.687.687v3.949c0 .379.308.688.687.688h36.029c.38 0 .687-.31.687-.688v-3.949a.688.688 0 0 0-.687-.687h-3.228a5.776 5.776 0 0 0-5.768-5.637H46.18v-2.35a.688.688 0 0 0-.687-.687h-.872V18.041h.5c.38 0 .688-.308.688-.688v-1.845h21.419a2.71 2.71 0 0 0 1.318 1.679L58.44 44.898h-2.254a.688.688 0 0 0-.688.688c0 4.17 6.288 7.435 14.314 7.435s14.31-3.266 14.31-7.435a.684.684 0 0 0-.685-.688zM42.187 2.554l2.215 5.691-2.215 2.908-2.213-2.908 2.213-5.691zm-28.35 17.163v25.181h-9.18l9.18-25.181zm.727 31.93c-6.519 0-12.097-2.396-12.853-5.374h25.702c-.754 2.978-6.33 5.374-12.85 5.374zm.649-6.749V19.717l9.184 25.181h-9.184zm44.301 28.145v2.574H24.861v-2.574h34.653zm-14.71-8.674v2.35c0 .378.308.687.688.687h5.714c2.378 0 4.309 1.9 4.381 4.262H28.786c.072-2.362 2.004-4.262 4.381-4.262h5.714c.38 0 .687-.309.687-.688V64.37h.873c.38 0 .688-.308.688-.687V17.353a.688.688 0 0 0-.688-.687h-.5v-3.69h4.492v3.69h-.5a.688.688 0 0 0-.688.687v46.329c0 .38.308.687.688.687h.871zm25.659-44.653l9.186 25.182h-9.186V19.716zm-1.375 0v25.182h-9.183l9.183-25.182zm.727 31.93c-6.519 0-12.098-2.395-12.853-5.373h25.7c-.755 2.978-6.332 5.374-12.847 5.374z" fill="#19395F" fill-rule="evenodd"/></svg>