<svg width="109" height="103" viewBox="0 0 109 103" xmlns="http://www.w3.org/2000/svg" xmlns:xlink="http://www.w3.org/1999/xlink"><title>Group 8</title><defs><circle id="a" cx="56" cy="56" r="56"/><path d="M80.908 54.56h-1.103v-9.988C79.805 42.6 78.24 41 76.308 41H35.449c-1.93 0-3.496 1.599-3.496 3.572v9.988H30.85c-3.783 0-6.85 3.133-6.85 6.997v61.007c0 3.864 3.067 6.996 6.85 6.996h50.058c3.783 0 6.85-3.132 6.85-6.996V61.557c0-3.864-3.067-6.997-6.85-6.997" id="d"/><filter x="-50%" y="-50%" width="200%" height="200%" filterUnits="objectBoundingBox" id="c"><feOffset dy="1" in="SourceAlpha" result="shadowOffsetOuter1"/><feGaussianBlur stdDeviation="1" in="shadowOffsetOuter1" result="shadowBlurOuter1"/><feColorMatrix values="0 0 0 0 0.411764706 0 0 0 0 0.588235294 0 0 0 0 0.674509804 0 0 0 0.5 0" in="shadowBlurOuter1"/></filter><path d="M49.719 23.019s.238 2.88-6.302 5.712l-18.893 8.182c-5.683 2.462-6.331 5.726-6.331 5.726l-7.02-16.262s-.079-2.95 7.137-6.075l17.897-7.75c5.681-2.461 6.49-5.795 6.49-5.795l7.022 16.262z" id="f"/><filter x="-50%" y="-50%" width="200%" height="200%" filterUnits="objectBoundingBox" id="e"><feOffset dy="1" in="SourceAlpha" result="shadowOffsetOuter1"/><feGaussianBlur stdDeviation=".5" in="shadowOffsetOuter1" result="shadowBlurOuter1"/><feColorMatrix values="0 0 0 0 0.411764706 0 0 0 0 0.588235294 0 0 0 0 0.674509804 0 0 0 0.5 0" in="shadowBlurOuter1"/></filter><path d="M39.104 16.846s.238 2.88-6.302 5.712L13.91 30.741c-5.683 2.461-6.331 5.725-6.331 5.725L.558 20.204s-.079-2.95 7.137-6.075l17.897-7.75c5.681-2.46 6.49-5.795 6.49-5.795l7.022 16.262z" id="h"/><filter x="-50%" y="-50%" width="200%" height="200%" filterUnits="objectBoundingBox" id="g"><feOffset dy="1" in="SourceAlpha" result="shadowOffsetOuter1"/><feGaussianBlur stdDeviation="1" in="shadowOffsetOuter1" result="shadowBlurOuter1"/><feColorMatrix values="0 0 0 0 0.130084012 0 0 0 0 0.275786277 0 0 0 0 0.347018495 0 0 0 0.5 0" in="shadowBlurOuter1"/></filter><path d="M51.262 25.84s.274 3.3-7.217 6.544l-21.642 9.372c-6.51 2.82-7.252 6.558-7.252 6.558L7.109 29.687s-.09-3.379 8.176-6.958l20.5-8.878c6.508-2.819 7.435-6.638 7.435-6.638l8.042 18.627z" id="j"/><filter x="-50%" y="-50%" width="200%" height="200%" filterUnits="objectBoundingBox" id="i"><feOffset dy="3" in="SourceAlpha" result="shadowOffsetOuter1"/><feGaussianBlur stdDeviation="2" in="shadowOffsetOuter1" result="shadowBlurOuter1"/><feColorMatrix values="0 0 0 0 0.172786897 0 0 0 0 0.326360054 0 0 0 0 0.401440264 0 0 0 0.5 0" in="shadowBlurOuter1"/></filter></defs><g fill="none" fill-rule="evenodd"><g transform="translate(-22 -9)"><mask id="b" fill="#fff"><use xlink:href="#a"/></mask><g mask="url(#b)"><use fill="#000" filter="url(#c)" xlink:href="#d"/><use fill="#FFF" xlink:href="#d"/></g></g><g transform="translate(9 57)"><use fill="#000" filter="url(#e)" xlink:href="#f"/><use fill="#1E9DF2" xlink:href="#f"/></g><path d="M43.276 80.286c-.904-2.092-3.31-3.064-5.377-2.17-2.065.896-3.008 3.317-2.104 5.41.903 2.093 3.31 3.064 5.376 2.17 2.066-.895 3.009-3.317 2.105-5.41" fill="#FFF" opacity=".403"/><g transform="translate(9 57)"><use fill="#000" filter="url(#g)" xlink:href="#h"/><use fill="#1E9DF2" xlink:href="#h"/></g><path d="M32.66 74.114c-.903-2.093-3.31-3.065-5.376-2.17-2.065.895-3.008 3.317-2.104 5.41.903 2.092 3.31 3.063 5.376 2.17 2.066-.896 3.008-3.318 2.105-5.41" fill="#FFF" opacity=".403"/><g transform="rotate(1 452.274 3087.518)"><use fill="#000" filter="url(#i)" xlink:href="#j"/><use fill="#1E9DF2" xlink:href="#j"/></g><path d="M87.983 19.486c-.993-2.415-3.73-3.576-6.115-2.592-2.383.983-3.51 3.738-2.518 6.153.992 2.415 3.73 3.575 6.114 2.592 2.384-.983 3.512-3.739 2.519-6.153" fill="#FFF" opacity=".403"/></g></svg>