
<svg width="76px" height="79px" viewBox="0 0 76 79" version="1.1" xmlns="http://www.w3.org/2000/svg" xmlns:xlink="http://www.w3.org/1999/xlink">
    <!-- Generator: Sketch 42 (36781) - http://www.bohemiancoding.com/sketch -->
    <desc>Created with Sketch.</desc>
    <defs></defs>
    <path d="M53.4323619,59.7559965 C50.0650765,66.1445326 45.044264,71.7425044 38.3774532,75.7719577 L38.4602707,56.211552 C44.0457482,56.2775132 49.5860524,56.7237213 54.5108719,57.5569665 C54.1720729,58.29903 53.8125696,59.0343034 53.4323619,59.7559965 Z M38.6899012,1.8313933 C45.2804822,5.84726631 50.2316527,11.4035273 53.5405893,17.7396825 C53.7532798,18.1461199 53.9575003,18.5544974 54.1560741,18.9667549 C49.3554809,19.7020282 44.0033983,20.0716049 38.6127303,20.0832451 L38.6899012,1.8313933 Z M14.9269179,39.6358907 C15.0219698,45.2144621 16.0731878,50.7813933 18.0843361,56.0000882 C13.5340777,56.8731041 9.58236418,58.0924162 6.70069072,59.6686949 C6.47576585,59.7899471 6.32236521,59.9965608 6.26025206,60.2303351 C2.4308826,54.287037 0.148695103,47.1962081 0.00658775773,39.5689594 L14.9269179,39.6358907 Z M38.4574474,56.211552 L38.4602707,56.211552 L38.4574474,56.211552 Z M56.3309753,57.8867725 C60.8595881,58.7694885 64.7642463,59.9926808 67.5461622,61.5641093 C67.7042684,61.654321 67.874609,61.6882716 68.0440085,61.6746914 C66.8629177,63.3402116 65.5566594,64.9048501 64.1384093,66.3540564 C57.6137058,73.0180776 48.739055,77.2366843 38.9167082,77.5732804 C46.0597198,73.3527337 51.424978,67.4210758 54.9993071,60.6367725 C55.4726845,59.732716 55.9178287,58.8150794 56.3309753,57.8867725 Z M54.9484872,20.7011464 C57.2833768,26.1536155 58.4908187,32.0600529 58.5708129,37.9878307 L38.5374416,37.897619 L38.6052014,21.9311287 C44.2678497,21.9156085 49.9050881,21.5091711 54.9484872,20.7011464 Z M36.0340937,77.5606702 L36.0312704,77.5635802 L36.0256237,77.5597002 L36.0340937,77.5606702 Z M21.2925741,18.807672 C21.4949124,18.4031746 21.700074,17.9986772 21.9127644,17.6 C25.2762853,11.2939153 30.272629,5.78130511 36.8999133,1.82557319 L36.8227424,20.074515 L36.8227424,20.077425 C31.4386621,20.0095238 26.0912851,19.5856261 21.2925741,18.807672 Z M8.00694897,14.8800705 C8.97817268,13.6025573 10.0237439,12.3929453 11.1398983,11.2502646 C17.6598963,4.58915344 26.5260771,0.36957672 36.3427772,0.0281305115 C29.2562321,4.17592593 23.9248539,10.0154321 20.3514659,16.7114638 C20.039959,17.2954145 19.7388044,17.8900353 19.4564719,18.4875661 C14.8713925,17.6291005 10.8905046,16.4253086 8.00694897,14.8800705 Z M36.7474537,37.8888889 L16.7140825,37.7986772 C16.8420732,31.8679894 18.1022171,25.9664021 20.4907499,20.5323633 C25.5266201,21.3879189 31.1582119,21.8506173 36.8152135,21.9223986 L36.7474537,37.8888889 Z M19.8827939,55.6799824 C17.8641168,50.5796296 16.8072522,45.1164903 16.7122003,39.6475309 L36.7399249,39.7377425 L36.6778117,54.3626984 C30.8485872,54.3791887 25.0419494,54.8186067 19.8827939,55.6799824 Z M20.0926611,60.4825397 C23.6086415,67.2969136 28.9211976,73.2761023 36.0265648,77.5606702 C26.2108058,77.1328924 17.3747405,72.8357143 10.9083857,66.1154321 C9.50236997,64.6507055 8.20928724,63.0773369 7.03948969,61.3992063 C7.20606585,61.4127866 7.37546534,61.380776 7.53357152,61.2944444 C10.3465441,59.7589065 14.2615544,58.5706349 18.7920495,57.7315697 C19.1948438,58.6608466 19.6258714,59.5794533 20.0926611,60.4825397 Z M36.5874653,75.7641975 C29.9526522,71.6775132 24.9817184,66.0310406 21.6690174,59.6134039 C21.2944563,58.8907407 20.9415407,58.1574074 20.6121528,57.4163139 C25.5463834,56.6276896 31.089511,56.2222222 36.6702829,56.2037919 L36.5874653,75.7641975 Z M58.5585785,39.8318342 C58.4136478,45.2978836 57.3134923,50.7425926 55.2562296,55.8216049 C50.1093086,54.9165785 44.3017296,54.4335097 38.4677996,54.3665785 L38.5299128,39.7416226 L58.5585785,39.8318342 Z M56.7610617,20.3907407 C61.4873073,19.5196649 65.5867749,18.2702822 68.5399726,16.6513228 C72.6582622,22.7459436 75.124907,30.1141975 75.2679554,38.062522 L60.3532719,37.9955908 C60.276101,31.9708113 59.0790113,25.960582 56.7610617,20.3907407 Z M39.2573894,0.0407407407 L39.2602128,0.0407407407 L39.2573894,0.0407407407 Z M57.0537464,56.1591711 C59.102539,50.9656966 60.197989,45.4152557 60.3400964,39.8434744 L75.2604265,39.9104056 C75.0515005,47.5328042 72.7119054,54.5993827 68.8373628,60.5087302 C68.7752496,60.2768959 68.6256134,60.0693122 68.404453,59.9461199 C65.5547772,58.3358907 61.6087103,57.0748677 57.0537464,56.1591711 Z M64.3670986,11.4888889 C65.4738419,12.6402998 66.5109432,13.860582 67.4699325,15.1429453 C64.5910823,16.6716931 60.5998423,17.8463845 55.9978229,18.6611993 C55.7145494,18.0588183 55.4218647,17.4583774 55.1103579,16.8666667 C51.5953186,10.1395944 46.3119369,4.24867725 39.2602128,0.0407407407 C49.0722073,0.471428571 57.9045082,4.76957672 64.3670986,11.4888889 Z M18.6791165,20.2035273 C16.3112881,25.7539683 15.0605553,31.7593474 14.9297412,37.7909171 L0.015057732,37.7239859 C0.224924871,29.7766314 2.75368273,22.4287478 6.9265567,16.3709877 C9.88351881,18.0112875 13.9735753,19.2868607 18.6791165,20.2035273 Z" id="Combined-Shape" stroke="none" fill="#1E9DF2" fill-rule="nonzero"></path>
</svg>