<?xml version="1.0" encoding="UTF-8" standalone="no"?>
<svg width="70px" height="29px" viewBox="0 0 70 29" version="1.1" xmlns="http://www.w3.org/2000/svg" xmlns:xlink="http://www.w3.org/1999/xlink">
    <!-- Generator: Sketch 42 (36781) - http://www.bohemiancoding.com/sketch -->
    <title>Page 1</title>
    <desc>Created with Sketch.</desc>
    <defs></defs>
    <g id="Page-1" stroke="none" stroke-width="1" fill="none" fill-rule="evenodd">
        <g id="main_new-copy-2" transform="translate(-1007.000000, -2588.000000)" fill="#000000">
            <g id="Новости-Copy" transform="translate(0.000000, 1620.000000)">
                <g id="Page-1" transform="translate(1007.000000, 968.000000)">
                    <path d="M5.79920833,19.37548 L10.031,19.37548 L10.031,10.86195 L5.79920833,10.86195 L5.79920833,19.37548 Z M15.75,0 L15.75,23.15186 C11.6937917,23.15186 7.77670833,23.15186 3.85933333,23.15157 C3.7625,23.15157 3.665375,23.15128 3.56825,23.14896 C1.65170833,23.09966 0.572833333,22.01332 0,20.3 L0,9.86 C0.76825,7.69573 2.422875,7.09166 4.56458333,7.18649 C6.3385,7.26479 8.11854167,7.20244 9.91666667,7.20244 L9.91666667,0 L15.75,0 Z" id="Fill-1"></path>
                    <path d="M23.6611667,19.36185 L27.86,19.36185 L27.86,10.85789 L23.6611667,10.85789 L23.6611667,19.36185 Z M17.7916667,29 C17.8397917,28.42841 17.9284583,27.85682 17.9293333,27.28465 C17.9395417,21.20364 17.93575,15.12263 17.93575,9.04162 L17.93575,7.25609 C22.3180417,7.25609 26.5335,7.18533 30.7445833,7.29147 C32.4149583,7.33352 33.5113333,8.57385 33.5489583,10.2602 C33.621875,13.5401 33.637625,16.82464 33.544,20.10338 C33.4882917,22.05073 32.1932917,23.09241 30.0040417,23.14142 C27.9270833,23.18782 25.8480833,23.15157 23.625,23.15157 L23.625,29 L17.7916667,29 Z" id="Fill-3"></path>
                    <path d="M70,20.3 C69.2329167,22.58897 67.487,23.25858 65.2490417,23.2087 C62.873125,23.15592 60.493125,23.23857 58.1198333,23.1449 C55.477625,23.04021 54.3678333,21.98664 54.3135833,19.40535 C54.229875,15.4106 54.2917083,11.41266 54.2917083,7.30945 L59.9235,7.30945 L59.9235,19.38244 L64.28275,19.38244 L64.28275,7.25 L70,7.25 L70,20.3 Z" id="Fill-4"></path>
                    <path d="M53.6193875,7.236399 L53.6193875,10.741629 L48.3848458,10.741629 L48.3848458,23.067209 L42.6716792,23.067209 C42.6716792,18.719239 42.5789292,14.432169 42.7157208,10.152349 C42.7731792,8.356669 44.0008042,7.321949 45.7869708,7.259309 C48.3507208,7.169409 50.9197208,7.236399 53.6193875,7.236399" id="Fill-5"></path>
                    <polygon id="Fill-6" points="35.4745417 23.08516 40.7087917 23.08516 40.7087917 17.85907 35.4745417 17.85907"></polygon>
                </g>
            </g>
        </g>
    </g>
</svg>