<?xml version="1.0" encoding="UTF-8" standalone="no"?>
<svg width="115px" height="115px" viewBox="0 0 115 115" version="1.1" xmlns="http://www.w3.org/2000/svg" xmlns:xlink="http://www.w3.org/1999/xlink">
    <!-- Generator: Sketch 41.2 (35397) - http://www.bohemiancoding.com/sketch -->
    <title>Group 2</title>
    <desc>Created with Sketch.</desc>
    <defs></defs>
    <g id="Page-1" stroke="none" stroke-width="1" fill="none" fill-rule="evenodd">
        <g id="Group-2">
            <rect id="Rectangle" fill="#FFFFFF" x="0" y="0" width="115" height="115"></rect>
            <g id="on-place-logo" transform="translate(32.000000, 31.000000)" fill="#1E9DF2">
                <g id="Group">
                    <path d="M17.823,21.11 C17.823,25.483 14.525,27.402 11.405,27.402 C8.285,27.402 4.987,25.482 4.987,21.109 L4.987,11.023 C4.987,6.65 8.285,4.731 11.405,4.731 C14.525,4.731 17.823,6.65 17.823,11.023 L17.823,21.11 Z M0.219,21.11 C0.219,27.848 4.72,32.132 11.405,32.132 C18.09,32.132 22.591,27.848 22.591,21.109 L22.591,11.023 C22.591,4.284 18.091,0 11.405,0 C4.72,0 0.22,4.284 0.22,11.023 L0.22,21.11 L0.219,21.11 Z M49.688,0.445 L44.919,0.445 L44.919,22.85 L32.084,0.446 L27.315,0.446 L27.315,31.686 L32.085,31.686 L32.085,9.283 L44.919,31.686 L49.688,31.686 L49.688,0.446 L49.688,0.445 Z M49.588,37.49 L49.588,41.501 L0.051,41.501 L0.051,37.491 L49.588,37.49 Z M1.337,50.384 L1.337,48.335 L2.757,48.335 C3.447,48.335 3.765,48.85 3.765,49.355 C3.765,49.86 3.448,50.384 2.757,50.384 L1.337,50.384 L1.337,50.384 Z M1.337,51.628 L2.757,51.628 C4.307,51.628 5.017,50.543 5.017,49.355 C5.017,48.157 4.307,47.091 2.757,47.091 L0.085,47.091 L0.085,53.639 L1.337,53.639 L1.337,51.628 L1.337,51.628 Z M13.04,47.09 L11.788,47.09 L11.788,53.638 L15.768,53.638 L15.768,52.394 L13.04,52.394 L13.04,47.09 Z M25.622,51.13 L24.165,51.13 L24.893,49.008 L25.622,51.131 L25.622,51.13 Z M26.052,52.319 L26.519,53.638 L27.826,53.638 L25.491,47.09 L24.296,47.09 L21.96,53.64 L23.268,53.64 L23.735,52.32 L26.052,52.32 L26.052,52.319 Z M37.429,51.449 C37.364,52.122 36.859,52.487 36.224,52.487 C35.542,52.487 35.01,52.067 35.01,51.309 L35.01,49.419 C35.01,48.662 35.542,48.241 36.224,48.241 C36.859,48.241 37.364,48.615 37.429,49.279 L38.689,49.279 C38.634,47.904 37.746,46.997 36.224,46.997 C34.654,46.997 33.758,47.969 33.758,49.419 L33.758,51.309 C33.758,52.759 34.655,53.731 36.224,53.731 C37.746,53.731 38.634,52.824 38.69,51.449 L37.43,51.449 L37.429,51.449 Z M46.826,48.334 L49.553,48.334 L49.553,47.09 L45.574,47.09 L45.574,53.638 L49.554,53.638 L49.554,52.394 L46.826,52.394 L46.826,50.954 L48.9,50.954 L48.9,49.71 L46.827,49.71 L46.827,48.335 L46.826,48.334 Z" id="Shape"></path>
                    <polygon id="Shape" points="2.796 5.415 6.269 3.409 19.211 25.826 15.738 27.831"></polygon>
                </g>
            </g>
        </g>
    </g>
</svg>