<?xml version="1.0" encoding="UTF-8" standalone="no"?>
<svg width="50px" height="54px" viewBox="0 0 50 54" version="1.1" xmlns="http://www.w3.org/2000/svg" xmlns:xlink="http://www.w3.org/1999/xlink">
  <!-- Generator: Sketch 41.2 (35397) - http://www.bohemiancoding.com/sketch -->
  <title>Group 39</title>
  <desc>Created with Sketch.</desc>
  <defs></defs>
  <g id="Page-1" stroke="none" stroke-width="1" fill="none" fill-rule="evenodd">
    <g id="main" transform="translate(-72.000000, -9.000000)" fill="#ffffff">
      <g id="шапка">
        <g id="Group-39" transform="translate(72.000000, 9.000000)">
          <g id="Group-21-Copy-3">
            <path d="M17.8227204,21.1090909 C17.8227204,25.4826446 14.524772,27.4016529 11.4050912,27.4016529 C8.28541033,27.4016529 4.98746201,25.4826446 4.98746201,21.1090909 L4.98746201,11.0231405 C4.98746201,6.64958678 8.28541033,4.73057851 11.4050912,4.73057851 C14.524772,4.73057851 17.8227204,6.64958678 17.8227204,11.0231405 L17.8227204,21.1090909 Z M0.218806991,21.1090909 C0.218806991,27.8479339 4.72006079,32.1322314 11.4050912,32.1322314 C18.0901216,32.1322314 22.5913754,27.8479339 22.5913754,21.1090909 L22.5913754,11.0231405 C22.5913754,4.28429752 18.0901216,0 11.4050912,0 C4.72006079,0 0.218806991,4.28429752 0.218806991,11.0231405 L0.218806991,21.1090909 Z M49.6880319,0.446280992 L44.9193769,0.446280992 L44.9193769,22.8495868 L32.0841185,0.446280992 L27.3154635,0.446280992 L27.3154635,31.6859504 L32.0841185,31.6859504 L32.0841185,9.28264463 L44.9193769,31.6859504 L49.6880319,31.6859504 L49.6880319,0.446280992 Z" id="ON"></path>
            <polygon id="Rectangle-29" transform="translate(24.819719, 39.495868) rotate(90.000000) translate(-24.819719, -39.495868) " points="22.8142097 14.7272727 26.825228 14.7272727 26.825228 64.2644628 22.8142097 64.2644628"></polygon>
            <path d="M1.33678239,50.3836072 L1.33678239,48.3351471 L2.75659398,48.3351471 C3.44781805,48.3351471 3.76540748,48.8496005 3.76540748,49.3547003 C3.76540748,49.8598 3.44781805,50.3836072 2.75659398,50.3836072 L1.33678239,50.3836072 Z M1.33678239,51.6276491 L2.75659398,51.6276491 C4.30717769,51.6276491 5.01708349,50.54262 5.01708349,49.3547003 C5.01708349,48.1574268 4.30717769,47.0911051 2.75659398,47.0911051 L0.085106383,47.0911051 L0.085106383,53.6386944 L1.33678239,53.6386944 L1.33678239,51.6276491 Z M13.0408872,47.0911051 L11.7892111,47.0911051 L11.7892111,53.6386944 L15.7684199,53.6386944 L15.7684199,52.3946524 L13.0408872,52.3946524 L13.0408872,47.0911051 Z M25.6230333,51.1319031 L24.1658582,51.1319031 L24.8944458,49.0086134 L25.6230333,51.1319031 Z M26.0527131,52.3198229 L26.5197564,53.6386944 L27.8274776,53.6386944 L25.4922612,47.0911051 L24.2966304,47.0911051 L21.9614139,53.6386944 L23.2691351,53.6386944 L23.7361784,52.3198229 L26.0527131,52.3198229 Z M37.4298876,51.4499288 C37.3645015,52.1233952 36.8600948,52.4881894 36.2249159,52.4881894 C35.5430327,52.4881894 35.0106034,52.067273 35.0106034,51.3096234 L35.0106034,49.4201762 C35.0106034,48.6625265 35.5430327,48.2416101 36.2249159,48.2416101 C36.8600948,48.2416101 37.3645015,48.615758 37.4298876,49.2798707 L38.6909045,49.2798707 C38.6348593,47.9048769 37.747477,46.9975681 36.2249159,46.9975681 C34.6556505,46.9975681 33.7589274,47.9703528 33.7589274,49.4201762 L33.7589274,51.3096234 C33.7589274,52.7594467 34.6556505,53.7322314 36.2249159,53.7322314 C37.747477,53.7322314 38.6348593,52.8249226 38.6909045,51.4499288 L37.4298876,51.4499288 Z M46.8267985,48.3351471 L49.5543313,48.3351471 L49.5543313,47.0911051 L45.5751225,47.0911051 L45.5751225,53.6386944 L49.5543313,53.6386944 L49.5543313,52.3946524 L46.8267985,52.3946524 L46.8267985,50.9541828 L48.9004707,50.9541828 L48.9004707,49.7101408 L46.8267985,49.7101408 L46.8267985,48.3351471 Z" id="place-copy-3"></path>
          </g>
          <rect id="Rectangle-30" transform="translate(11.003989, 15.619835) rotate(-30.000000) translate(-11.003989, -15.619835) " x="8.99848024" y="2.67768595" width="4.01101824" height="25.8842975"></rect>
        </g>
      </g>
    </g>
  </g>
</svg>