<?xml version="1.0" encoding="UTF-8" standalone="no"?>
<svg width="170px" height="37px" viewBox="0 0 170 37" version="1.1" xmlns="http://www.w3.org/2000/svg" xmlns:xlink="http://www.w3.org/1999/xlink">
    <defs></defs>
    <g id="Page-1" stroke="none" stroke-width="1" fill="none" fill-rule="evenodd">
        <g id="3-copy-9-[Converted]" fill="#000000">
            <path d="M0.014,0.986 L35.995,0.986 L35.995,36.995 L0.014,36.995 L0.014,0.986 Z M27.659,28.915 L7.286,28.915 L7.286,25.938 L27.659,25.938 L27.659,28.915 Z M27.636,23.933 L20.532,23.933 L20.493,22.142 L22.284,21.588 L21.918,14.005 L18.113,23.028 L16.073,23.028 L12.174,14.146 L11.843,21.605 L13.936,22.04 L13.895,23.931 L7.331,23.931 L7.291,22.081 L9.351,21.559 L10.154,11.282 L8.2,10.713 L8.322,9.001 C8.607,9.003 13.571,9.004 13.853,9.001 C13.954,9.443 17.587,18.284 17.587,18.284 L21.422,9.001 C21.658,9.009 26.512,9.004 26.774,9.001 L26.816,10.771 L24.837,11.284 L25.603,21.58 L27.679,22.042 L27.636,23.933 Z" id="Shape"></path>
            <path d="M49.241,23.717 L51.901,23.717 L51.901,18.117 L54.393,21.925 L54.449,21.925 L56.955,18.089 L56.955,23.717 L59.657,23.717 L59.657,13.917 L56.787,13.917 L54.449,17.711 L52.111,13.917 L49.241,13.917 L49.241,23.717 L49.241,23.717 Z" id="Shape"></path>
            <path d="M61.309,23.717 L64.165,23.717 L64.865,21.967 L68.645,21.967 L69.359,23.717 L72.271,23.717 L68.099,13.846 L65.481,13.846 L61.309,23.717 L61.309,23.717 Z M65.663,19.853 L66.769,17.067 L67.861,19.853 L65.663,19.853 L65.663,19.853 Z" id="Shape"></path>
            <path d="M73.922,23.717 L76.61,23.717 L76.61,18.341 L80.796,23.717 L83.176,23.717 L83.176,13.917 L80.488,13.917 L80.488,19.097 L76.456,13.917 L73.922,13.917 L73.922,23.717 L73.922,23.717 Z" id="Shape"></path>
            <path d="M90.022,23.899 C92.808,23.899 94.614,22.513 94.614,19.349 L94.614,13.917 L91.856,13.917 L91.856,19.433 C91.856,20.805 91.142,21.449 90.05,21.449 C88.958,21.449 88.244,20.777 88.244,19.363 L88.244,13.917 L85.486,13.917 L85.486,19.419 C85.486,22.485 87.236,23.899 90.022,23.899 L90.022,23.899 Z" id="Shape"></path>
            <path d="M96.924,23.717 L99.64,23.717 L99.64,20.217 L104.274,20.217 L104.274,17.963 L99.64,17.963 L99.64,16.297 L104.764,16.297 L104.764,13.917 L96.924,13.917 L96.924,23.717 L96.924,23.717 Z" id="Shape"></path>
            <path d="M104.792,23.717 L107.648,23.717 L108.348,21.967 L112.128,21.967 L112.842,23.717 L115.754,23.717 L111.582,13.846 L108.964,13.846 L104.792,23.717 L104.792,23.717 Z M109.146,19.853 L110.252,17.067 L111.344,19.853 L109.146,19.853 L109.146,19.853 Z" id="Shape"></path>
            <path d="M121.495,23.913 C123.665,23.913 124.912,22.975 125.835,21.701 L123.791,20.245 C123.203,20.959 122.601,21.435 121.579,21.435 C120.207,21.435 119.241,20.287 119.241,18.817 C119.241,17.361 120.207,16.199 121.579,16.199 C122.517,16.199 123.175,16.633 123.735,17.333 L125.723,15.793 C124.855,14.589 123.609,13.721 121.607,13.721 C118.639,13.721 116.44,15.961 116.44,18.817 C116.44,21.771 118.694,23.913 121.495,23.913 L121.495,23.913 Z" id="Shape"></path>
            <path d="M130.09,23.717 L132.806,23.717 L132.806,16.297 L135.746,16.297 L135.746,13.917 L127.149,13.917 L127.149,16.297 L130.089,16.297 L130.089,23.717 L130.09,23.717 Z" id="Shape"></path>
            <path d="M142.046,23.899 C144.832,23.899 146.638,22.513 146.638,19.349 L146.638,13.917 L143.88,13.917 L143.88,19.433 C143.88,20.805 143.166,21.449 142.074,21.449 C140.982,21.449 140.268,20.777 140.268,19.363 L140.268,13.917 L137.51,13.917 L137.51,19.419 C137.51,22.485 139.26,23.899 142.046,23.899 L142.046,23.899 Z" id="Shape"></path>
            <path d="M148.948,23.717 L151.664,23.717 L151.664,20.749 L152.854,20.749 L154.828,23.717 L157.964,23.717 L155.626,20.301 C156.844,19.783 157.642,18.789 157.642,17.291 C157.642,16.297 157.348,15.541 156.774,14.967 C156.116,14.309 155.08,13.917 153.582,13.917 L148.948,13.917 L148.948,23.717 L148.948,23.717 Z M151.664,18.621 L151.664,16.269 L153.442,16.269 C154.352,16.269 154.912,16.661 154.912,17.431 C154.912,18.173 154.38,18.621 153.456,18.621 L151.664,18.621 L151.664,18.621 Z" id="Shape"></path>
            <path d="M158.762,23.717 L161.618,23.717 L162.318,21.967 L166.098,21.967 L166.812,23.717 L169.724,23.717 L165.552,13.846 L162.934,13.846 L158.762,23.717 L158.762,23.717 Z M163.116,19.853 L164.222,17.067 L165.314,19.853 L163.116,19.853 L163.116,19.853 Z" id="Shape"></path>
            <path d="M50.204,7.717 L51.13,7.717 L51.13,3.89 L52.806,6.4 L52.837,6.4 L54.528,3.875 L54.528,7.717 L55.469,7.717 L55.469,2.36 L54.467,2.36 L52.837,4.893 L51.207,2.36 L50.204,2.36 L50.204,7.717 L50.204,7.717 Z" id="Shape"></path>
            <path d="M56.77,7.717 L57.734,7.717 L58.285,6.424 L60.818,6.424 L61.361,7.717 L62.356,7.717 L60,2.321 L59.127,2.321 L56.77,7.717 L56.77,7.717 Z M58.629,5.589 L59.547,3.446 L60.473,5.589 L58.629,5.589 L58.629,5.589 Z" id="Shape"></path>
            <path d="M63.657,7.717 L65.655,7.717 C67.339,7.717 68.502,6.546 68.502,5.038 C68.502,3.515 67.339,2.36 65.655,2.36 L63.657,2.36 L63.657,7.717 L63.657,7.717 Z M64.598,6.86 L64.598,3.217 L65.654,3.217 C66.779,3.217 67.513,3.99 67.513,5.038 C67.513,6.102 66.779,6.86 65.654,6.86 L64.598,6.86 L64.598,6.86 Z" id="Shape"></path>
            <path d="M70.023,7.717 L74.033,7.717 L74.033,6.875 L70.964,6.875 L70.964,5.437 L73.651,5.437 L73.651,4.594 L70.964,4.594 L70.964,3.202 L73.995,3.202 L73.995,2.36 L70.023,2.36 L70.023,7.717 L70.023,7.717 Z" id="Shape"></path>
            <path d="M78.265,7.717 L79.206,7.717 L79.206,2.36 L78.265,2.36 L78.265,7.717 L78.265,7.717 Z" id="Shape"></path>
            <path d="M81.019,7.717 L81.945,7.717 L81.945,3.906 L84.899,7.717 L85.687,7.717 L85.687,2.36 L84.761,2.36 L84.761,6.064 L81.891,2.36 L81.018,2.36 L81.018,7.717 L81.019,7.717 Z" id="Shape"></path>
            <path d="M48.958,36.717 L53.534,36.717 L53.534,35.74 L50.522,35.74 L51.824,34.655 C52.937,33.733 53.47,33.199 53.47,32.204 C53.47,31.056 52.62,30.296 51.381,30.296 C50.251,30.296 49.653,30.775 49.048,31.626 L49.835,32.241 C50.323,31.608 50.721,31.291 51.3,31.291 C51.879,31.291 52.322,31.653 52.322,32.277 C52.322,32.847 52.006,33.254 51.137,33.986 L48.957,35.84 L48.957,36.717 L48.958,36.717 Z" id="Shape"></path>
            <path d="M57.776,36.826 C59.44,36.826 60.544,35.361 60.544,33.552 C60.544,31.725 59.45,30.278 57.794,30.278 C56.13,30.278 55.026,31.743 55.026,33.552 C55.026,35.378 56.112,36.826 57.776,36.826 L57.776,36.826 Z M57.794,35.822 C56.808,35.822 56.175,34.8 56.175,33.552 C56.175,32.277 56.799,31.282 57.776,31.282 C58.753,31.282 59.395,32.304 59.395,33.552 C59.395,34.818 58.78,35.822 57.794,35.822 L57.794,35.822 Z" id="Shape"></path>
            <path d="M63.121,36.717 L64.225,36.717 L64.225,30.342 L63.447,30.342 L61.747,30.884 L61.982,31.788 L63.122,31.472 L63.122,36.717 L63.121,36.717 Z" id="Shape"></path>
            <path d="M68.293,36.826 C69.695,36.826 70.635,35.976 70.635,34.682 C70.635,33.326 69.667,32.674 68.437,32.674 C68.012,32.674 67.732,32.746 67.433,32.855 L67.533,31.372 L70.355,31.372 L70.355,30.386 L66.575,30.386 L66.394,33.488 L67.063,33.931 C67.389,33.777 67.777,33.65 68.23,33.65 C68.999,33.65 69.542,34.057 69.542,34.699 C69.542,35.377 69.044,35.811 68.285,35.811 C67.697,35.811 67.164,35.522 66.658,35.051 L65.97,35.856 C66.566,36.437 67.326,36.826 68.293,36.826 L68.293,36.826 Z" id="Shape"></path>
        </g>
    </g>
</svg>