<?xml version="1.0" encoding="UTF-8" standalone="no"?>
<svg width="172px" height="36px" viewBox="0 0 172 36" version="1.1" xmlns="http://www.w3.org/2000/svg" xmlns:xlink="http://www.w3.org/1999/xlink">
    <!-- Generator: Sketch 41.2 (35397) - http://www.bohemiancoding.com/sketch -->
    <title>М</title>
    <desc>Created with Sketch.</desc>
    <defs>
        <polygon id="path-1" points="35.9807 0.991 0 0.991 0 36.9997 35.9807 36.9997 35.9807 0.991"></polygon>
        <polygon id="path-3" points="8.152 10.7211 8.152 0.9201 0.1993 0.9201 0.1993 10.7211 8.152 10.7211"></polygon>
    </defs>
    <g id="Page-1" stroke="none" stroke-width="1" fill="none" fill-rule="evenodd">
        <g id="main_new" transform="translate(-1032.000000, -9371.000000)">
            <g id="подвал" transform="translate(74.000000, 9310.000000)">
                <g id="М" transform="translate(958.000000, 60.000000)">
                    <g id="Group-3" transform="translate(0.000000, 0.009400)">
                        <mask id="mask-2" fill="white">
                            <use xlink:href="#path-1"></use>
                        </mask>
                        <g id="Clip-2"></g>
                        <path d="M27.6217,23.9377 L20.5187,23.9377 L20.4797,22.1477 L22.2707,21.5937 L21.9047,14.0107 L18.0997,23.0347 L16.0597,23.0347 L12.1597,14.1527 L11.8287,21.6117 L13.9217,22.0457 L13.8817,23.9377 L7.3167,23.9377 L7.2777,22.0877 L9.3377,21.5657 L10.1407,11.2877 L8.1857,10.7177 L8.3077,9.0057 C8.5927,9.0087 13.5567,9.0087 13.8387,9.0057 C13.9397,9.4487 17.5737,18.2897 17.5737,18.2897 L21.4077,9.0057 C21.6447,9.0137 26.4987,9.0087 26.7597,9.0057 L26.8007,10.7757 L24.8227,11.2877 L25.5887,21.5837 L27.6647,22.0457 L27.6217,23.9377 Z M7.2717,28.9197 L27.6447,28.9197 L27.6447,25.9427 L7.2717,25.9427 L7.2717,28.9197 Z M-0.0003,36.9997 L35.9807,36.9997 L35.9807,0.9907 L-0.0003,0.9907 L-0.0003,36.9997 Z" id="Fill-1" fill="#221F20" mask="url(#mask-2)"></path>
                    </g>
                    <polygon id="Fill-4" fill="#221F20" points="49.2263 23.7305 51.8863 23.7305 51.8863 18.1305 54.3783 21.9385 54.4343 21.9385 56.9413 18.1025 56.9413 23.7305 59.6433 23.7305 59.6433 13.9295 56.7733 13.9295 54.4343 17.7245 52.0963 13.9295 49.2263 13.9295"></polygon>
                    <path d="M65.6485,19.8663 L66.7545,17.0803 L67.8465,19.8663 L65.6485,19.8663 Z M61.2945,23.7303 L64.1505,23.7303 L64.8505,21.9803 L68.6305,21.9803 L69.3445,23.7303 L72.2565,23.7303 L68.0845,13.8603 L65.4665,13.8603 L61.2945,23.7303 Z" id="Fill-6" fill="#221F20"></path>
                    <polygon id="Fill-8" fill="#221F20" points="73.9082 23.7305 76.6242 23.7305 76.6242 20.0065 80.1102 20.0065 80.1102 23.7305 82.8272 23.7305 82.8272 13.9295 80.1102 13.9295 80.1102 17.5985 76.6242 17.5985 76.6242 13.9295 73.9082 13.9295"></polygon>
                    <path d="M87.5582,23.8706 C89.0702,23.8706 89.9802,23.1566 90.8762,21.4066 L94.6982,13.9296 L91.7442,13.9296 L89.6442,18.5366 L87.4182,13.9296 L84.3942,13.9296 L88.2302,21.1686 C87.9362,21.5046 87.6142,21.5886 87.3762,21.5886 C87.0822,21.5886 86.6482,21.5046 86.2702,21.2526 L85.2062,23.2126 C85.8642,23.6046 86.6202,23.8706 87.5582,23.8706" id="Fill-10" fill="#221F20"></path>
                    <path d="M102.9025,20.6503 L102.9025,16.7863 C104.1905,16.7863 105.0865,17.4863 105.0865,18.7043 C105.0865,19.9643 104.1905,20.6503 102.9025,20.6503 L102.9025,20.6503 Z M100.1725,20.6503 C98.8845,20.6503 97.9885,19.9643 97.9885,18.7043 C97.9885,17.4863 98.8845,16.7863 100.1725,16.7863 L100.1725,20.6503 Z M100.1725,24.1503 L102.9025,24.1503 L102.9025,23.0583 C106.0805,23.0583 107.8725,21.1823 107.8725,18.6623 C107.8725,16.1703 106.0525,14.3783 102.9025,14.3783 L102.9025,13.5103 L100.1725,13.5103 L100.1725,14.3783 C97.0225,14.3783 95.2015,16.1703 95.2015,18.6623 C95.2015,21.1823 96.9945,23.0583 100.1725,23.0583 L100.1725,24.1503 Z" id="Fill-12" fill="#221F20"></path>
                    <path d="M112.9541,19.8663 L114.0601,17.0803 L115.1521,19.8663 L112.9541,19.8663 Z M108.6001,23.7303 L111.4561,23.7303 L112.1561,21.9803 L115.9361,21.9803 L116.6501,23.7303 L119.5621,23.7303 L115.3901,13.8603 L112.7721,13.8603 L108.6001,23.7303 Z" id="Fill-14" fill="#221F20"></path>
                    <polygon id="Fill-16" fill="#221F20" points="121.2138 23.7305 123.9298 23.7305 123.9298 21.1965 124.9238 20.0905 127.3878 23.7305 130.6508 23.7305 126.8138 18.1445 130.5248 13.9295 127.3038 13.9295 123.9298 17.9065 123.9298 13.9295 121.2138 13.9295"></polygon>
                    <polygon id="Fill-18" fill="#221F20" points="134.5279 23.7305 137.2439 23.7305 137.2439 16.3105 140.1839 16.3105 140.1839 13.9295 131.5879 13.9295 131.5879 16.3105 134.5279 16.3105"></polygon>
                    <path d="M144.3697,23.8706 C145.8817,23.8706 146.7917,23.1566 147.6877,21.4066 L151.5107,13.9296 L148.5557,13.9296 L146.4557,18.5366 L144.2297,13.9296 L141.2057,13.9296 L145.0417,21.1686 C144.7477,21.5046 144.4257,21.5886 144.1877,21.5886 C143.8937,21.5886 143.4597,21.5046 143.0817,21.2526 L142.0177,23.2126 C142.6757,23.6046 143.4317,23.8706 144.3697,23.8706" id="Fill-20" fill="#221F20"></path>
                    <path d="M155.7937,18.8022 L155.7937,16.2122 L157.0677,16.2122 C158.0477,16.2122 158.6357,16.6602 158.6357,17.5002 C158.6357,18.2982 158.0477,18.8022 157.0817,18.8022 L155.7937,18.8022 Z M153.0777,23.7302 L155.7937,23.7302 L155.7937,20.9302 L157.1377,20.9302 C159.5737,20.9302 161.3517,19.7122 161.3517,17.4022 C161.3517,15.2042 159.7557,13.9302 157.2777,13.9302 L153.0777,13.9302 L153.0777,23.7302 Z" id="Fill-22" fill="#221F20"></path>
                    <g id="Group-26" transform="translate(163.000000, 13.009400)">
                        <mask id="mask-4" fill="white">
                            <use xlink:href="#path-3"></use>
                        </mask>
                        <g id="Clip-25"></g>
                        <polygon id="Fill-24" fill="#221F20" mask="url(#mask-4)" points="0.1993 10.7211 8.1523 10.7211 8.1523 8.4111 2.8873 8.4111 2.8873 6.8571 7.5923 6.8571 7.5923 4.7151 2.8873 4.7151 2.8873 3.2311 8.0823 3.2311 8.0823 0.9201 0.1993 0.9201"></polygon>
                    </g>
                    <path d="M52.6772,7.8224 C53.6802,7.8224 54.2922,7.4554 54.8512,6.8734 L54.2462,6.2614 C53.7872,6.6894 53.3662,6.9574 52.7082,6.9574 C51.6822,6.9574 50.9402,6.1004 50.9402,5.0524 C50.9402,3.9884 51.6822,3.1464 52.7082,3.1464 C53.3202,3.1464 53.7792,3.4144 54.2082,3.8124 L54.8122,3.1154 C54.2992,2.6254 53.7032,2.2814 52.7152,2.2814 C51.0932,2.2814 49.9522,3.5284 49.9522,5.0524 C49.9522,6.6054 51.1162,7.8224 52.6772,7.8224" id="Fill-27" fill="#221F20"></path>
                    <path d="M57.1305,6.8887 C57.4975,6.1467 57.7125,5.0747 57.7125,3.8347 L57.7125,3.2227 L59.6025,3.2227 L59.6025,6.8887 L57.1305,6.8887 Z M55.6075,8.8787 L56.4335,8.8787 L56.5255,7.7307 L60.2985,7.7307 L60.2985,8.8787 L61.0795,8.8787 L61.2095,6.8887 L60.5435,6.8887 L60.5435,2.3737 L56.8085,2.3737 L56.8085,3.1307 C56.8085,4.9217 56.5715,6.0087 56.1275,6.8887 L55.6075,6.8887 L55.6075,8.8787 Z" id="Fill-29" fill="#221F20"></path>
                    <polygon id="Fill-31" fill="#221F20" points="62.4332 7.7305 66.4432 7.7305 66.4432 6.8885 63.3742 6.8885 63.3742 5.4495 66.0612 5.4495 66.0612 4.6075 63.3742 4.6075 63.3742 3.2155 66.4052 3.2155 66.4052 2.3735 62.4332 2.3735"></polygon>
                    <path d="M67.9428,7.7918 C68.9988,7.7918 69.6188,7.1108 69.6188,3.7048 L69.6188,3.2228 L71.4708,3.2228 L71.4708,7.7308 L72.4118,7.7308 L72.4118,2.3728 L68.7388,2.3728 L68.7388,3.4298 C68.7388,6.6358 68.2338,6.9808 67.6898,6.9808 C67.5758,6.9808 67.4528,6.9578 67.3838,6.9348 L67.2918,7.7078 C67.4378,7.7458 67.7358,7.7918 67.9428,7.7918" id="Fill-33" fill="#221F20"></path>
                    <path d="M75.5798,5.6029 L76.4978,3.4599 L77.4238,5.6029 L75.5798,5.6029 Z M73.7198,7.7309 L74.6848,7.7309 L75.2358,6.4369 L77.7688,6.4369 L78.3118,7.7309 L79.3068,7.7309 L76.9498,2.3349 L76.0768,2.3349 L73.7198,7.7309 Z" id="Fill-35" fill="#221F20"></path>
                    <polygon id="Fill-37" fill="#221F20" points="80.607 7.7305 81.548 7.7305 81.548 5.4725 84.105 5.4725 84.105 7.7305 85.046 7.7305 85.046 2.3735 84.105 2.3735 84.105 4.6005 81.548 4.6005 81.548 2.3735 80.607 2.3735"></polygon>
                    <path d="M89.3767,6.9576 C88.3127,6.9576 87.5547,6.0926 87.5547,5.0516 C87.5547,3.9956 88.2977,3.1466 89.3617,3.1466 C90.4247,3.1466 91.1827,4.0106 91.1827,5.0516 C91.1827,6.1076 90.4407,6.9576 89.3767,6.9576 M89.3617,7.8226 C91.0067,7.8226 92.1707,6.5596 92.1707,5.0516 C92.1707,3.5286 91.0217,2.2816 89.3767,2.2816 C87.7317,2.2816 86.5677,3.5446 86.5677,5.0516 C86.5677,6.5746 87.7157,7.8226 89.3617,7.8226" id="Fill-39" fill="#221F20"></path>
                    <path d="M97.2963,6.8963 L97.2963,5.4273 L98.7883,5.4273 C99.5313,5.4273 99.8903,5.6953 99.8903,6.1463 C99.8903,6.6443 99.5003,6.8963 98.8573,6.8963 L97.2963,6.8963 Z M97.2963,4.6313 L97.2963,3.2073 L98.6513,3.2073 C99.2553,3.2073 99.5923,3.4673 99.5923,3.8883 C99.5923,4.3933 99.1863,4.6313 98.5823,4.6313 L97.2963,4.6313 Z M96.3703,7.7303 L98.8503,7.7303 C100.0433,7.7303 100.8323,7.2183 100.8323,6.2613 C100.8323,5.5193 100.3963,5.1593 99.7683,4.9453 C100.1663,4.7383 100.5333,4.3933 100.5333,3.7513 C100.5333,3.3763 100.4113,3.0853 100.1743,2.8483 C99.8683,2.5413 99.3853,2.3733 98.7733,2.3733 L96.3703,2.3733 L96.3703,7.7303 Z" id="Fill-41" fill="#221F20"></path>
                    <path d="M48.9443,36.7305 L53.5203,36.7305 L53.5203,35.7535 L50.5083,35.7535 L51.8113,34.6685 C52.9233,33.7465 53.4573,33.2125 53.4573,32.2175 C53.4573,31.0695 52.6073,30.3095 51.3683,30.3095 C50.2373,30.3095 49.6403,30.7885 49.0343,31.6385 L49.8213,32.2535 C50.3103,31.6205 50.7083,31.3045 51.2863,31.3045 C51.8653,31.3045 52.3083,31.6655 52.3083,32.2895 C52.3083,32.8595 51.9923,33.2665 51.1243,33.9995 L48.9443,35.8535 L48.9443,36.7305 Z" id="Fill-43" fill="#221F20"></path>
                    <path d="M57.7797,35.8352 C56.7937,35.8352 56.1607,34.8132 56.1607,33.5652 C56.1607,32.2902 56.7847,31.2952 57.7617,31.2952 C58.7387,31.2952 59.3807,32.3172 59.3807,33.5652 C59.3807,34.8312 58.7657,35.8352 57.7797,35.8352 M57.7617,36.8392 C59.4257,36.8392 60.5287,35.3742 60.5287,33.5652 C60.5287,31.7382 59.4347,30.2912 57.7797,30.2912 C56.1157,30.2912 55.0127,31.7562 55.0127,33.5652 C55.0127,35.3922 56.0977,36.8392 57.7617,36.8392" id="Fill-45" fill="#221F20"></path>
                    <polygon id="Fill-47" fill="#221F20" points="63.1063 36.7305 64.2093 36.7305 64.2093 30.3545 63.4323 30.3545 61.7313 30.8975 61.9663 31.8015 63.1063 31.4855"></polygon>
                    <path d="M68.5504,35.8804 C67.7544,35.8804 67.2394,35.3834 67.2394,34.7414 C67.2394,34.1174 67.7364,33.6104 68.5234,33.6104 C69.3104,33.6104 69.8164,34.0804 69.8164,34.7134 C69.8164,35.3834 69.3374,35.8804 68.5504,35.8804 M68.5774,36.8394 C69.9074,36.8394 70.9294,35.9434 70.9294,34.6864 C70.9294,33.4024 69.9434,32.6794 68.7134,32.6794 C67.9714,32.6794 67.5374,32.9864 67.2034,33.3124 C67.2574,32.1544 67.7814,31.3044 68.7224,31.3044 C69.2744,31.3044 69.6534,31.5124 70.0974,31.8564 L70.6934,30.9964 C70.1424,30.5534 69.5814,30.2914 68.7584,30.2914 C66.9674,30.2914 66.0454,31.8014 66.0454,33.7374 C66.0454,35.0304 66.3344,35.6904 66.8234,36.1794 C67.2394,36.5954 67.7994,36.8394 68.5774,36.8394" id="Fill-49" fill="#221F20"></path>
                </g>
            </g>
        </g>
    </g>
</svg>