<?xml version="1.0" encoding="utf-8"?>
<!-- Generator: Adobe Illustrator 21.0.0, SVG Export Plug-In . SVG Version: 6.00 Build 0)  -->
<svg version="1.1" id="Слой_1" xmlns="http://www.w3.org/2000/svg" xmlns:xlink="http://www.w3.org/1999/xlink" x="0px" y="0px"
	 viewBox="0 0 172 36" style="enable-background:new 0 0 172 36;" xml:space="preserve">
<style type="text/css">
	.st0{fill:#FFFFFF;}
	.st1{filter:url(#Adobe_OpacityMaskFilter);}
	.st2{fill:#FFFFFF;}
	.st3{mask:url(#mask-4);fill:#FFFFFF;}
	.st4{font-family:'GothamPro-Medium';}
	.st5{font-size:9px;}
</style>
<title>М</title>
<desc>Created with Sketch.</desc>
<g id="Clip-2">
</g>
<g>
	<polygon id="Fill-4" class="st0" points="49.2,22.7 51.9,22.7 51.9,17.1 54.4,20.9 54.4,20.9 56.9,17.1 56.9,22.7 59.6,22.7
		59.6,12.9 56.8,12.9 54.4,16.7 52.1,12.9 49.2,12.9 	"/>
	<path id="Fill-6" class="st0" d="M65.6,18.9l1.1-2.8l1.1,2.8H65.6z M61.3,22.7h2.9l0.7-1.8h3.8l0.7,1.8h2.9l-4.2-9.9h-2.6
		L61.3,22.7z"/>
	<polygon id="Fill-8" class="st0" points="73.9,22.7 76.6,22.7 76.6,19 80.1,19 80.1,22.7 82.8,22.7 82.8,12.9 80.1,12.9 80.1,16.6
		76.6,16.6 76.6,12.9 73.9,12.9 	"/>
	<path id="Fill-10" class="st0" d="M87.6,22.9c1.5,0,2.4-0.7,3.3-2.5l3.8-7.5h-3l-2.1,4.6l-2.2-4.6h-3l3.8,7.2
		c-0.3,0.3-0.6,0.4-0.9,0.4c-0.3,0-0.7-0.1-1.1-0.3l-1.1,2C85.9,22.6,86.6,22.9,87.6,22.9"/>
	<path id="Fill-12" class="st0" d="M102.9,19.7v-3.9c1.3,0,2.2,0.7,2.2,1.9C105.1,19,104.2,19.7,102.9,19.7L102.9,19.7z M100.2,19.7
		c-1.3,0-2.2-0.7-2.2-1.9c0-1.2,0.9-1.9,2.2-1.9V19.7z M100.2,23.2h2.7v-1.1c3.2,0,5-1.9,5-4.4c0-2.5-1.8-4.3-5-4.3v-0.9h-2.7v0.9
		c-3.2,0-5,1.8-5,4.3c0,2.5,1.8,4.4,5,4.4V23.2z"/>
	<path id="Fill-14" class="st0" d="M113,18.9l1.1-2.8l1.1,2.8H113z M108.6,22.7h2.9l0.7-1.8h3.8l0.7,1.8h2.9l-4.2-9.9h-2.6
		L108.6,22.7z"/>
	<polygon id="Fill-16" class="st0" points="121.2,22.7 123.9,22.7 123.9,20.2 124.9,19.1 127.4,22.7 130.7,22.7 126.8,17.1
		130.5,12.9 127.3,12.9 123.9,16.9 123.9,12.9 121.2,12.9 	"/>
	<polygon id="Fill-18" class="st0" points="134.5,22.7 137.2,22.7 137.2,15.3 140.2,15.3 140.2,12.9 131.6,12.9 131.6,15.3
		134.5,15.3 	"/>
	<path id="Fill-20" class="st0" d="M144.4,22.9c1.5,0,2.4-0.7,3.3-2.5l3.8-7.5h-3l-2.1,4.6l-2.2-4.6h-3l3.8,7.2
		c-0.3,0.3-0.6,0.4-0.9,0.4c-0.3,0-0.7-0.1-1.1-0.3l-1.1,2C142.7,22.6,143.4,22.9,144.4,22.9"/>
	<path id="Fill-22" class="st0" d="M155.8,17.8v-2.6h1.3c1,0,1.6,0.4,1.6,1.3c0,0.8-0.6,1.3-1.6,1.3H155.8z M153.1,22.7h2.7v-2.8
		h1.3c2.4,0,4.2-1.2,4.2-3.5c0-2.2-1.6-3.5-4.1-3.5h-4.2V22.7z"/>
	<g id="Group-26" transform="translate(163.000000, 13.009400)">
		<g id="Clip-25">
		</g>
		<defs>
			<filter id="Adobe_OpacityMaskFilter" filterUnits="userSpaceOnUse" x="0.2" y="-0.1" width="8" height="9.8">
				<feColorMatrix  type="matrix" values="1 0 0 0 0  0 1 0 0 0  0 0 1 0 0  0 0 0 1 0"/>
			</filter>
		</defs>
		<mask maskUnits="userSpaceOnUse" x="0.2" y="-0.1" width="8" height="9.8" id="mask-4">
			<g class="st1">
				<polygon id="path-3" class="st2" points="8.2,9.7 8.2,-0.1 0.2,-0.1 0.2,9.7 				"/>
			</g>
		</mask>
		<polygon id="Fill-24" class="st3" points="0.2,9.7 8.2,9.7 8.2,7.4 2.9,7.4 2.9,5.9 7.6,5.9 7.6,3.7 2.9,3.7 2.9,2.2 8.1,2.2
			8.1,-0.1 0.2,-0.1 		"/>
	</g>
</g>
<g>
	<path id="Fill-27" class="st0" d="M51.7,6.8c1,0,1.6-0.4,2.2-0.9l-0.6-0.6C52.8,5.7,52.4,6,51.7,6c-1,0-1.8-0.9-1.8-1.9
		c0-1.1,0.7-1.9,1.8-1.9c0.6,0,1.1,0.3,1.5,0.7l0.6-0.7c-0.5-0.5-1.1-0.8-2.1-0.8c-1.6,0-2.8,1.2-2.8,2.8C49,5.6,50.1,6.8,51.7,6.8"
		/>
	<path id="Fill-29" class="st0" d="M56.1,5.9c0.4-0.7,0.6-1.8,0.6-3.1V2.2h1.9v3.7H56.1z M54.6,7.9h0.8l0.1-1.1h3.8v1.1h0.8l0.1-2
		h-0.7V1.4h-3.7v0.8c0,1.8-0.2,2.9-0.7,3.8h-0.5V7.9z"/>
	<polygon id="Fill-31" class="st0" points="61.4,6.7 65.4,6.7 65.4,5.9 62.4,5.9 62.4,4.4 65.1,4.4 65.1,3.6 62.4,3.6 62.4,2.2
		65.4,2.2 65.4,1.4 61.4,1.4 	"/>
	<path id="Fill-33" class="st0" d="M66.9,6.8c1.1,0,1.7-0.7,1.7-4.1V2.2h1.9v4.5h0.9V1.4h-3.7v1.1c0,3.2-0.5,3.6-1,3.6
		c-0.1,0-0.2,0-0.3,0l-0.1,0.8C66.4,6.7,66.7,6.8,66.9,6.8"/>
	<path id="Fill-35" class="st0" d="M74.6,4.6l0.9-2.1l0.9,2.1H74.6z M72.7,6.7h1l0.6-1.3h2.5l0.5,1.3h1l-2.4-5.4h-0.9L72.7,6.7z"/>
	<polygon id="Fill-37" class="st0" points="79.6,6.7 80.5,6.7 80.5,4.5 83.1,4.5 83.1,6.7 84,6.7 84,1.4 83.1,1.4 83.1,3.6
		80.5,3.6 80.5,1.4 79.6,1.4 	"/>
	<path id="Fill-39" class="st0" d="M88.4,6c-1.1,0-1.8-0.9-1.8-1.9c0-1.1,0.7-1.9,1.8-1.9c1.1,0,1.8,0.9,1.8,1.9
		C90.2,5.1,89.4,6,88.4,6 M88.4,6.8c1.6,0,2.8-1.3,2.8-2.8c0-1.5-1.1-2.8-2.8-2.8c-1.6,0-2.8,1.3-2.8,2.8
		C85.6,5.6,86.7,6.8,88.4,6.8"/>
	<path id="Fill-41" class="st0" d="M96.3,5.9V4.4h1.5c0.7,0,1.1,0.3,1.1,0.7c0,0.5-0.4,0.8-1,0.8H96.3z M96.3,3.6V2.2h1.4
		c0.6,0,0.9,0.3,0.9,0.7c0,0.5-0.4,0.7-1,0.7H96.3z M95.4,6.7h2.5c1.2,0,2-0.5,2-1.5c0-0.7-0.4-1.1-1.1-1.3c0.4-0.2,0.8-0.6,0.8-1.2
		c0-0.4-0.1-0.7-0.4-0.9c-0.3-0.3-0.8-0.5-1.4-0.5h-2.4V6.7z"/>
</g>
<text transform="matrix(1 0 0 1 48.561 35.7308)" class="st0 st4 st5">2017</text>
<path class="st0" d="M0,0v36h36V0H0z M27.7,27.9L27.7,27.9H7.3v-3h20.4h0V27.9z M27.6,22.9h-7.1l0-1.8l1.8-0.6L21.9,13l-3.8,9h-2
	l-3.9-8.9l-0.3,7.5l2.1,0.4l0,1.9H7.3l0-1.8l2.1-0.5l0.8-10.3l-2-0.6L8.3,8c0.3,0,5.2,0,5.5,0c0.1,0.4,3.7,9.3,3.7,9.3L21.4,8
	c0.2,0,5.1,0,5.4,0l0,1.8l-2,0.5l0.8,10.3l2.1,0.5L27.6,22.9z"/>
</svg>
