<?xml version="1.0" encoding="utf-8"?>
<!-- Generator: Adobe Illustrator 21.0.0, SVG Export Plug-In . SVG Version: 6.00 Build 0)  -->
<svg version="1.1" id="Слой_1" xmlns="http://www.w3.org/2000/svg" xmlns:xlink="http://www.w3.org/1999/xlink" x="0px" y="0px"
	 viewBox="0 0 172 36" style="enable-background:new 0 0 172 36;" xml:space="preserve">
<style type="text/css">
	.st0{fill:#FFFFFF;}
	.st1{font-family:'GothamPro-Medium';}
	.st2{font-size:9px;}
	.st3{fill:#FFFFFF;}
</style>
<title>М</title>
<desc>Created with Sketch.</desc>
<g id="Clip-2">
</g>
<text transform="matrix(1 0 0 1 48.561 35.7308)" class="st0 st1 st2">2017</text>
<path class="st0" d="M0,0v36h36V0H0z M27.7,27.9L27.7,27.9H7.3v-3h20.4h0V27.9z M27.6,22.9h-7.1l0-1.8l1.8-0.6L21.9,13l-3.8,9h-2
	l-3.9-8.9l-0.3,7.5l2.1,0.4l0,1.9H7.3l0-1.8l2.1-0.5l0.8-10.3l-2-0.6L8.3,8c0.3,0,5.2,0,5.5,0c0.1,0.4,3.7,9.3,3.7,9.3L21.4,8
	c0.2,0,5.1,0,5.4,0l0,1.8l-2,0.5l0.8,10.3l2.1,0.5L27.6,22.9z"/>
<g>
	<path id="Shape_1_" class="st0" d="M49.2,22.7h2.7v-5.6l2.5,3.8h0.1l2.5-3.8v5.6h2.7v-9.8h-2.9l-2.3,3.8l-2.3-3.8h-2.9V22.7
		L49.2,22.7z"/>
	<path id="Shape_2_" class="st0" d="M61.3,22.7h2.9l0.7-1.8h3.8l0.7,1.8h2.9l-4.2-9.9h-2.6L61.3,22.7L61.3,22.7z M65.6,18.9l1.1-2.8
		l1.1,2.8H65.6L65.6,18.9z"/>
	<path id="Shape_3_" class="st0" d="M73.9,22.7h2.7v-5.4l4.2,5.4h2.4v-9.8h-2.7v5.2l-4-5.2h-2.5V22.7L73.9,22.7z"/>
	<path id="Shape_4_" class="st0" d="M90,22.9c2.8,0,4.6-1.4,4.6-4.5v-5.4h-2.8v5.5c0,1.4-0.7,2-1.8,2c-1.1,0-1.8-0.7-1.8-2.1v-5.4
		h-2.8v5.5C85.5,21.5,87.2,22.9,90,22.9L90,22.9z"/>
	<path id="Shape_5_" class="st0" d="M96.9,22.7h2.7v-3.5h4.6V17h-4.6v-1.7h5.1v-2.4h-7.8V22.7L96.9,22.7z"/>
	<path id="Shape_6_" class="st0" d="M104.8,22.7h2.9l0.7-1.8h3.8l0.7,1.8h2.9l-4.2-9.9h-2.6L104.8,22.7L104.8,22.7z M109.1,18.9
		l1.1-2.8l1.1,2.8H109.1L109.1,18.9z"/>
	<path id="Shape_7_" class="st0" d="M121.5,22.9c2.2,0,3.4-0.9,4.3-2.2l-2-1.5c-0.6,0.7-1.2,1.2-2.2,1.2c-1.4,0-2.3-1.1-2.3-2.6
		c0-1.5,1-2.6,2.3-2.6c0.9,0,1.6,0.4,2.2,1.1l2-1.5c-0.9-1.2-2.1-2.1-4.1-2.1c-3,0-5.2,2.2-5.2,5.1
		C116.4,20.8,118.7,22.9,121.5,22.9L121.5,22.9z"/>
	<path id="Shape_8_" class="st0" d="M130.1,22.7h2.7v-7.4h2.9v-2.4h-8.6v2.4h2.9L130.1,22.7L130.1,22.7z"/>
	<path id="Shape_9_" class="st0" d="M142,22.9c2.8,0,4.6-1.4,4.6-4.5v-5.4h-2.8v5.5c0,1.4-0.7,2-1.8,2s-1.8-0.7-1.8-2.1v-5.4h-2.8
		v5.5C137.5,21.5,139.2,22.9,142,22.9L142,22.9z"/>
	<path id="Shape_10_" class="st0" d="M148.9,22.7h2.7v-3h1.2l2,3h3.1l-2.3-3.4c1.2-0.5,2-1.5,2-3c0-1-0.3-1.8-0.9-2.3
		c-0.7-0.7-1.7-1.1-3.2-1.1h-4.6V22.7L148.9,22.7z M151.6,17.6v-2.4h1.8c0.9,0,1.5,0.4,1.5,1.2c0,0.7-0.5,1.2-1.5,1.2H151.6
		L151.6,17.6z"/>
	<path id="Shape_11_" class="st0" d="M158.7,22.7h2.9l0.7-1.8h3.8l0.7,1.8h2.9l-4.2-9.9h-2.6L158.7,22.7L158.7,22.7z M163.1,18.9
		l1.1-2.8l1.1,2.8H163.1L163.1,18.9z"/>
</g>
<g>
	<path id="Shape_12_" class="st3" d="M49,6.7H50V2.9l1.7,2.5h0l1.7-2.5v3.8h0.9V1.4h-1l-1.6,2.5L50,1.4h-1V6.7L49,6.7z"/>
	<path id="Shape_13_" class="st3" d="M55.6,6.7h1l0.6-1.3h2.5l0.5,1.3h1l-2.4-5.4H58L55.6,6.7L55.6,6.7z M57.5,4.6l0.9-2.1l0.9,2.1
		H57.5L57.5,4.6z"/>
	<path id="Shape_14_" class="st3" d="M62.5,6.7h2c1.7,0,2.8-1.2,2.8-2.7c0-1.5-1.2-2.7-2.8-2.7h-2V6.7L62.5,6.7z M63.4,5.9V2.2h1.1
		c1.1,0,1.9,0.8,1.9,1.8c0,1.1-0.7,1.8-1.9,1.8H63.4L63.4,5.9z"/>
	<path id="Shape_15_" class="st3" d="M68.9,6.7h4V5.9h-3.1V4.5h2.7V3.6h-2.7V2.2h3V1.4h-4V6.7L68.9,6.7z"/>
	<path id="Shape_16_" class="st3" d="M77.1,6.7H78V1.4h-0.9V6.7L77.1,6.7z"/>
	<path id="Shape_17_" class="st3" d="M79.8,6.7h0.9V2.9l3,3.8h0.8V1.4h-0.9v3.7l-2.9-3.7h-0.9L79.8,6.7L79.8,6.7z"/>
</g>
</svg>
