<svg width="50" height="54" viewBox="0 0 50 54" xmlns="http://www.w3.org/2000/svg"><title>Group 39</title><g fill="#fff" fill-rule="evenodd"><path d="M17.823 21.11c0 4.373-3.298 6.292-6.418 6.292s-6.418-1.92-6.418-6.293V11.023c0-4.373 3.298-6.292 6.418-6.292s6.418 1.919 6.418 6.292V21.11zm-17.604 0c0 6.738 4.501 11.022 11.186 11.022s11.186-4.284 11.186-11.023V11.023C22.591 4.284 18.091 0 11.405 0 4.72 0 .22 4.284.22 11.023V21.11zM49.688.445h-4.769V22.85L32.084.446h-4.769v31.24h4.77V9.283l12.834 22.403h4.769V.446zM49.588 37.49v4.011H.051v-4.01zM1.337 50.384v-2.049h1.42c.69 0 1.008.515 1.008 1.02s-.317 1.029-1.008 1.029h-1.42zm0 1.244h1.42c1.55 0 2.26-1.085 2.26-2.273 0-1.198-.71-2.264-2.26-2.264H.085v6.548h1.252v-2.011zM13.04 47.09h-1.252v6.548h3.98v-1.244H13.04V47.09zm12.582 4.04h-1.457l.728-2.122.729 2.123zm.43 1.189l.467 1.319h1.307l-2.335-6.548h-1.195L21.96 53.64h1.308l.467-1.32h2.317zm11.377-.87c-.065.673-.57 1.038-1.205 1.038-.682 0-1.214-.42-1.214-1.178v-1.89c0-.757.532-1.178 1.214-1.178.635 0 1.14.374 1.205 1.038h1.26c-.055-1.375-.943-2.282-2.465-2.282-1.57 0-2.466.972-2.466 2.422v1.89c0 1.45.897 2.422 2.466 2.422 1.522 0 2.41-.907 2.466-2.282H37.43zm9.397-3.115h2.727v-1.244h-3.979v6.548h3.98v-1.244h-2.728v-1.44H48.9V49.71h-2.073v-1.375z"/><path d="M2.796 5.415l3.473-2.006 12.942 22.417-3.473 2.005z"/></g></svg>