<svg width="248" height="1194" viewBox="0 0 248 1194" xmlns="http://www.w3.org/2000/svg" xmlns:xlink="http://www.w3.org/1999/xlink"><title>scheme_phone_2.0</title><defs><path id="a" d="M91 329h50v31H91z"/><mask id="ag" x="0" y="0" width="50" height="31" fill="#fff"><use xlink:href="#a"/></mask><path id="b" d="M87 333h50v31H87z"/><mask id="ah" x="0" y="0" width="50" height="31" fill="#fff"><use xlink:href="#b"/></mask><path id="c" d="M83 337h50v31H83z"/><mask id="ai" x="0" y="0" width="50" height="31" fill="#fff"><use xlink:href="#c"/></mask><path id="d" d="M84 450h57v41H84z"/><mask id="aj" x="0" y="0" width="57" height="41" fill="#fff"><use xlink:href="#d"/></mask><path id="e" d="M110 461h6l2 13-5-3-5 3z"/><mask id="ak" x="0" y="0" width="10" height="13" fill="#fff"><use xlink:href="#e"/></mask><path id="f" d="M87 575h50v35H87z"/><mask id="al" x="0" y="0" width="50" height="35" fill="#fff"><use xlink:href="#f"/></mask><path id="g" d="M103 569h18v7h-18z"/><mask id="am" x="0" y="0" width="18" height="7" fill="#fff"><use xlink:href="#g"/></mask><path id="h" d="M107 586h10v7h-10z"/><mask id="an" x="0" y="0" width="10" height="7" fill="#fff"><use xlink:href="#h"/></mask><path id="i" d="M85 988h57v41H85z"/><mask id="ao" x="0" y="0" width="57" height="41" fill="#fff"><use xlink:href="#i"/></mask><path id="j" d="M111 999h6l2 13-5-3-5 3z"/><mask id="ap" x="0" y="0" width="10" height="13" fill="#fff"><use xlink:href="#j"/></mask><path id="k" d="M86 1113h50v35H86z"/><mask id="aq" x="0" y="0" width="50" height="35" fill="#fff"><use xlink:href="#k"/></mask><path id="l" d="M102 1107h18v7h-18z"/><mask id="ar" x="0" y="0" width="18" height="7" fill="#fff"><use xlink:href="#l"/></mask><path id="m" d="M106 1124h10v7h-10z"/><mask id="as" x="0" y="0" width="10" height="7" fill="#fff"><use xlink:href="#m"/></mask><path id="n" d="M135.253 37h10.505l3.939 92.143H130z"/><mask id="at" x="0" y="0" width="19.697" height="92.143" fill="#fff"><use xlink:href="#n"/></mask><path id="o" d="M118 93.53L160.02 83v46.071H118z"/><mask id="au" x="0" y="0" width="42.02" height="46.071" fill="#fff"><use xlink:href="#o"/></mask><path id="p" d="M229 93h10.505v5.265H229z"/><mask id="av" x="0" y="0" width="10.505" height="5.265" fill="#fff"><use xlink:href="#p"/></mask><path id="q" d="M217.38 70.62h10.505v5.265H217.38z"/><mask id="aw" x="0" y="0" width="10.505" height="5.265" fill="#fff"><use xlink:href="#q"/></mask><path id="r" d="M220 97h27.576v31.592H220z"/><mask id="ax" x="0" y="0" width="27.576" height="31.592" fill="#fff"><use xlink:href="#r"/></mask><path id="s" d="M186.879 0h15.757l7.88 129H179z"/><mask id="ay" x="0" y="0" width="31.515" height="129" fill="#fff"><use xlink:href="#s"/></mask><path id="t" d="M158 64.112L221.03 47v81.612H158z"/><mask id="az" x="0" y="0" width="63.03" height="81.612" fill="#fff"><use xlink:href="#t"/></mask><path id="u" d="M164 105h14.444v15.796H164z"/><mask id="aA" x="0" y="0" width="14.444" height="15.796" fill="#fff"><use xlink:href="#u"/></mask><path id="v" d="M123 105h13.131v15.796H123z"/><mask id="aB" x="0" y="0" width="13.131" height="15.796" fill="#fff"><use xlink:href="#v"/></mask><path id="w" d="M141 105h13.131v15.796H141z"/><mask id="aC" x="0" y="0" width="13.131" height="15.796" fill="#fff"><use xlink:href="#w"/></mask><path id="x" d="M228 109h11.818v19.745H228z"/><mask id="aD" x="0" y="0" width="11.818" height="19.745" fill="#fff"><use xlink:href="#x"/></mask><path id="y" d="M182 105h14.444v15.796H182z"/><mask id="aE" x="0" y="0" width="14.444" height="15.796" fill="#fff"><use xlink:href="#y"/></mask><path id="z" d="M200 105h14.444v15.796H200z"/><mask id="aF" x="0" y="0" width="14.444" height="15.796" fill="#fff"><use xlink:href="#z"/></mask><path id="A" d="M164 83h14.444v15.796H164z"/><mask id="aG" x="0" y="0" width="14.444" height="15.796" fill="#fff"><use xlink:href="#A"/></mask><path id="B" d="M182 83h14.444v15.796H182z"/><mask id="aH" x="0" y="0" width="14.444" height="15.796" fill="#fff"><use xlink:href="#B"/></mask><path id="C" d="M200 83h14.444v15.796H200z"/><mask id="aI" x="0" y="0" width="14.444" height="15.796" fill="#fff"><use xlink:href="#C"/></mask><path id="D" d="M36 72h57v52H36z"/><mask id="aJ" x="0" y="0" width="57" height="52" fill="#fff"><use xlink:href="#D"/></mask><path id="E" d="M58 81h13l-2.6 13h-7.8z"/><mask id="aK" x="0" y="0" width="13" height="13" fill="#fff"><use xlink:href="#E"/></mask><path id="F" d="M8 72h5v52H8z"/><mask id="aL" x="0" y="0" width="5" height="52" fill="#fff"><use xlink:href="#F"/></mask><path id="G" d="M36 102h57v4H36z"/><mask id="aM" x="0" y="0" width="57" height="4" fill="#fff"><use xlink:href="#G"/></mask><path id="H" d="M73 99h9v4h-9z"/><mask id="aN" x="0" y="0" width="9" height="4" fill="#fff"><use xlink:href="#H"/></mask><path id="I" d="M60 99h9v4h-9z"/><mask id="aO" x="0" y="0" width="9" height="4" fill="#fff"><use xlink:href="#I"/></mask><path id="J" d="M47 99h9v4h-9z"/><mask id="aP" x="0" y="0" width="9" height="4" fill="#fff"><use xlink:href="#J"/></mask><path id="K" d="M66 109h10v10H66z"/><mask id="aQ" x="0" y="0" width="10" height="10" fill="#fff"><use xlink:href="#K"/></mask><path id="L" d="M53 109h10v10H53z"/><mask id="aR" x="0" y="0" width="10" height="10" fill="#fff"><use xlink:href="#L"/></mask><path id="M" d="M40 109h10v10H40z"/><mask id="aS" x="0" y="0" width="10" height="10" fill="#fff"><use xlink:href="#M"/></mask><path id="N" d="M79 109h10v10H79z"/><mask id="aT" x="0" y="0" width="10" height="10" fill="#fff"><use xlink:href="#N"/></mask><path id="O" d="M12 72h25v57H12z"/><mask id="aU" x="0" y="0" width="25" height="57" fill="#fff"><use xlink:href="#O"/></mask><path id="P" d="M15 72h19v27H15z"/><mask id="aV" x="0" y="0" width="19" height="27" fill="#fff"><use xlink:href="#P"/></mask><path id="Q" d="M36 123h62v6H36z"/><mask id="aW" x="0" y="0" width="62" height="6" fill="#fff"><use xlink:href="#Q"/></mask><path id="R" d="M3 123h10v6H3z"/><mask id="aX" x="0" y="0" width="10" height="6" fill="#fff"><use xlink:href="#R"/></mask><path id="S" d="M9 43h83v9H9z"/><mask id="aY" x="0" y="0" width="83" height="9" fill="#fff"><use xlink:href="#S"/></mask><path id="T" d="M9 51h83l5 14v8H4v-8z"/><mask id="aZ" x="0" y="0" width="93" height="22" fill="#fff"><use xlink:href="#T"/></mask><path id="U" d="M32 102h1v4h-1z"/><mask id="ba" x="0" y="0" width="1" height="4" fill="#fff"><use xlink:href="#U"/></mask><path id="V" d="M6 721h89v74.372H6z"/><mask id="bb" x="0" y="0" width="89" height="74.372" fill="#fff"><use xlink:href="#V"/></mask><path id="W" d="M0 713h100v8.581H0z"/><mask id="bc" x="0" y="0" width="100" height="8.581" fill="#fff"><use xlink:href="#W"/></mask><path id="X" d="M14 735h73v60.07H14z"/><mask id="bd" x="0" y="0" width="73" height="60.07" fill="#fff"><use xlink:href="#X"/></mask><path id="Y" d="M11 729h79v6.674H11z"/><mask id="be" x="0" y="0" width="79" height="6.674" fill="#fff"><use xlink:href="#Y"/></mask><path id="Z" d="M24 771h54v4.767H24z"/><mask id="bf" x="0" y="0" width="54" height="4.767" fill="#fff"><use xlink:href="#Z"/></mask><path id="aa" d="M29 775h5l-2 20.023h-1z"/><mask id="bg" x="0" y="0" width="5" height="20.023" fill="#fff"><use xlink:href="#aa"/></mask><path id="ab" d="M65 775h5l-2 20.023h-1z"/><mask id="bh" x="0" y="0" width="5" height="20.023" fill="#fff"><use xlink:href="#ab"/></mask><path id="ac" d="M52 752h24v14.302H52z"/><mask id="bi" x="0" y="0" width="24" height="14.302" fill="#fff"><use xlink:href="#ac"/></mask><path id="ad" d="M62.167 765h4.666L68 771.674h-7z"/><mask id="bj" x="0" y="0" width="7" height="6.674" fill="#fff"><use xlink:href="#ad"/></mask><path id="ae" d="M27 768h11v3.814H27z"/><mask id="bk" x="0" y="0" width="11" height="3.814" fill="#fff"><use xlink:href="#ae"/></mask><path d="M36.445 755.658v4.238h-4.444v-4.238l-1.778-5.297h8l-1.778 5.297z" id="af"/><mask id="bl" x="0" y="0" width="8" height="9.535" fill="#fff"><use xlink:href="#af"/></mask></defs><g fill="none" fill-rule="evenodd"><text opacity=".8" font-family="PTMono-Regular, PT Mono" font-size="13" fill="#000"><tspan x="3" y="396">Доход в виде процента</tspan> <tspan x="3" y="414">от инвестиций</tspan></text><text font-family="PTMono-Regular, PT Mono" font-size="30" fill="#1E9DF2"><tspan x="3" y="370">B1</tspan></text><use stroke="#1E9DF2" mask="url(#ag)" stroke-width="2" fill="#FFF" xlink:href="#a"/><path d="M98 329v30m36-30v30" stroke="#1E9DF2"/><use stroke="#1E9DF2" mask="url(#ah)" stroke-width="2" fill="#FFF" xlink:href="#b"/><path d="M94 333v30m36-30v30" stroke="#1E9DF2"/><use stroke="#1E9DF2" mask="url(#ai)" stroke-width="2" fill="#FFF" xlink:href="#c"/><path d="M90 337v30m36-30v30" stroke="#1E9DF2"/><ellipse stroke="#1E9DF2" cx="109" cy="352" rx="10" ry="10"/><path d="M110.844 354.854h-3.262v2.296h-.812v-2.296H106v-.644h.77v-1.54H106v-.644h.77v-4.83a10.98 10.98 0 0 1 2.142-.196c2.128 0 2.814 1.484 2.814 2.66 0 1.19-.616 3.01-3.304 3.01h-.84v1.54h3.262v.644zm-.014-5.152c0-1.26-.658-2.03-2.156-2.03-.56 0-1.092.112-1.092.112v4.242s.294.014.784.014c1.946 0 2.464-1.12 2.464-2.338z" stroke="#1E9DF2" stroke-width=".5" fill="#1E9DF2"/><use stroke="#1E9DF2" mask="url(#aj)" stroke-width="2" xlink:href="#d"/><text font-family="PTMono-Regular, PT Mono" font-size="30" fill="#1E9DF2"><tspan x="3" y="489">B2</tspan></text><text opacity=".8" font-family="PTMono-Regular, PT Mono" font-size="13" fill="#000"><tspan x="3" y="515">Опцион на получение</tspan> <tspan x="3" y="533">части прибыли</tspan></text><use stroke="#1E9DF2" mask="url(#ak)" stroke-width="2" xlink:href="#e"/><circle stroke="#1E9DF2" fill="#FFF" cx="113" cy="460" r="6"/><path d="M97 478h31m-23 6h15" stroke="#1E9DF2"/><path d="M98 451l-13 13" stroke="#1E9DF2" stroke-linecap="square"/><use stroke="#1E9DF2" mask="url(#al)" stroke-width="2" xlink:href="#f"/><use stroke="#1E9DF2" mask="url(#am)" stroke-width="2" xlink:href="#g"/><use stroke="#1E9DF2" mask="url(#an)" stroke-width="2" xlink:href="#h"/><path d="M117 590h19m-48 0h19" stroke="#1E9DF2"/><text opacity=".8" font-family="PTMono-Regular, PT Mono" font-size="13" fill="#000"><tspan x="6" y="634">Владение долей</tspan> <tspan x="6" y="652">бизнеса</tspan></text><text font-family="PTMono-Regular, PT Mono" font-size="30" fill="#1E9DF2"><tspan x="6" y="608">B3</tspan></text><rect fill="#F86933" x="3" y="222" width="9" height="9" rx="4.5"/><rect fill="#F86933" x="19" y="222" width="9" height="9" rx="4.5"/><rect fill="#D8D8D8" opacity=".8" x="35" y="222" width="9" height="9" rx="4.5"/><rect fill="#D8D8D8" opacity=".8" x="51" y="222" width="9" height="9" rx="4.5"/><rect fill="#D8D8D8" opacity=".8" x="67" y="222" width="9" height="9" rx="4.5"/><rect fill="#D8D8D8" x="83" y="222" width="9" height="9" rx="4.5"/><rect fill="#D8D8D8" x="99" y="222" width="9" height="9" rx="4.5"/><rect fill="#D8D8D8" x="115" y="222" width="9" height="9" rx="4.5"/><rect fill="#D8D8D8" x="131" y="222" width="9" height="9" rx="4.5"/><rect fill="#D8D8D8" x="147" y="222" width="9" height="9" rx="4.5"/><rect fill="#4BB1F5" x="3" y="275" width="9" height="9" rx="4.5"/><rect fill="#4BB1F5" x="19" y="275" width="9" height="9" rx="4.5"/><rect fill="#4BB1F5" x="35" y="275" width="9" height="9" rx="4.5"/><rect fill="#4BB1F5" x="51" y="275" width="9" height="9" rx="4.5"/><rect fill="#4BB1F5" x="67" y="275" width="9" height="9" rx="4.5"/><rect fill="#D8D8D8" x="83" y="275" width="9" height="9" rx="4.5"/><rect fill="#D8D8D8" x="99" y="275" width="9" height="9" rx="4.5"/><rect fill="#D8D8D8" x="115" y="275" width="9" height="9" rx="4.5"/><rect fill="#D8D8D8" x="131" y="275" width="9" height="9" rx="4.5"/><rect fill="#D8D8D8" x="147" y="275" width="9" height="9" rx="4.5"/><text opacity=".8" font-family="PTMono-Regular, PT Mono" font-size="12" fill="#090909"><tspan x="3" y="201">Риски</tspan></text><text opacity=".8" font-family="PTMono-Regular, PT Mono" font-size="12" fill="#090909"><tspan x="3.6" y="253">Прибыль</tspan></text><rect fill="#F86933" y="881" width="9" height="9" rx="4.5"/><rect fill="#F86933" x="16" y="881" width="9" height="9" rx="4.5"/><rect fill="#D8D8D8" opacity=".8" x="32" y="881" width="9" height="9" rx="4.5"/><rect fill="#D8D8D8" opacity=".8" x="48" y="881" width="9" height="9" rx="4.5"/><rect fill="#D8D8D8" opacity=".8" x="64" y="881" width="9" height="9" rx="4.5"/><rect fill="#D8D8D8" x="80" y="881" width="9" height="9" rx="4.5"/><rect fill="#D8D8D8" x="96" y="881" width="9" height="9" rx="4.5"/><rect fill="#D8D8D8" x="112" y="881" width="9" height="9" rx="4.5"/><rect fill="#D8D8D8" x="128" y="881" width="9" height="9" rx="4.5"/><rect fill="#D8D8D8" x="144" y="881" width="9" height="9" rx="4.5"/><rect fill="#4BB1F5" y="934" width="9" height="9" rx="4.5"/><rect fill="#4BB1F5" x="16" y="934" width="9" height="9" rx="4.5"/><rect fill="#4BB1F5" x="32" y="934" width="9" height="9" rx="4.5"/><rect fill="#4BB1F5" x="48" y="934" width="9" height="9" rx="4.5"/><rect fill="#4BB1F5" x="64" y="934" width="9" height="9" rx="4.5"/><rect fill="#D8D8D8" x="80" y="934" width="9" height="9" rx="4.5"/><rect fill="#D8D8D8" x="96" y="934" width="9" height="9" rx="4.5"/><rect fill="#D8D8D8" x="112" y="934" width="9" height="9" rx="4.5"/><rect fill="#D8D8D8" x="128" y="934" width="9" height="9" rx="4.5"/><rect fill="#D8D8D8" x="144" y="934" width="9" height="9" rx="4.5"/><text opacity=".8" font-family="PTMono-Regular, PT Mono" font-size="12" fill="#090909"><tspan x="0" y="860">Риски</tspan></text><text opacity=".8" font-family="PTMono-Regular, PT Mono" font-size="12" fill="#090909"><tspan x=".6" y="912">Прибыль</tspan></text><use stroke="#1E9DF2" mask="url(#ao)" stroke-width="2" xlink:href="#i"/><text font-family="PTMono-Regular, PT Mono" font-size="30" fill="#1E9DF2"><tspan x="4" y="1027">S1</tspan></text><text opacity=".8" font-family="PTMono-Regular, PT Mono" font-size="13" fill="#000"><tspan x="4" y="1053">Доход в виде</tspan> <tspan x="4" y="1071">процента от доходов</tspan></text><use stroke="#1E9DF2" mask="url(#ap)" stroke-width="2" xlink:href="#j"/><ellipse stroke="#1E9DF2" fill="#FFF" cx="114" cy="998" rx="6" ry="6"/><path d="M98 1016h31m-23 6h15" stroke="#1E9DF2"/><path d="M99 989l-13 13" stroke="#1E9DF2" stroke-linecap="square"/><use stroke="#1E9DF2" mask="url(#aq)" stroke-width="2" xlink:href="#k"/><use stroke="#1E9DF2" mask="url(#ar)" stroke-width="2" xlink:href="#l"/><use stroke="#1E9DF2" mask="url(#as)" stroke-width="2" xlink:href="#m"/><path d="M116 1128h19m-48 0h19" stroke="#1E9DF2"/><text opacity=".8" font-family="PTMono-Regular, PT Mono" font-size="13" fill="#000"><tspan x="5" y="1172">Инвесторы — владельцы</tspan> <tspan x="5" y="1190">доли в проекте</tspan></text><text font-family="PTMono-Regular, PT Mono" font-size="30" fill="#1E9DF2"><tspan x="5" y="1146">S2</tspan></text><use stroke="#1E9DF2" mask="url(#at)" stroke-width="2" xlink:href="#n"/><use stroke="#1E9DF2" mask="url(#au)" stroke-width="2" fill="#FFF" xlink:href="#o"/><path d="M219 76.26h10.492a2.637 2.637 0 0 1 2.64 2.623v19.76h5.252v-19.76c0-4.35-3.538-7.883-7.892-7.883H219v5.26z" stroke="#1E9DF2"/><use stroke="#1E9DF2" mask="url(#av)" stroke-width="2" fill="#FFF" xlink:href="#p"/><use stroke="#1E9DF2" mask="url(#aw)" stroke-width="2" fill="#FFF" transform="rotate(-90 222.633 73.253)" xlink:href="#q"/><use stroke="#1E9DF2" mask="url(#ax)" stroke-width="2" fill="#FFF" xlink:href="#r"/><use stroke="#1E9DF2" mask="url(#ay)" stroke-width="2" xlink:href="#s"/><use stroke="#1E9DF2" mask="url(#az)" stroke-width="2" fill="#FFF" xlink:href="#t"/><use stroke="#1E9DF2" mask="url(#aA)" stroke-width="2" xlink:href="#u"/><use stroke="#1E9DF2" mask="url(#aB)" stroke-width="2" xlink:href="#v"/><use stroke="#1E9DF2" mask="url(#aC)" stroke-width="2" xlink:href="#w"/><use stroke="#1E9DF2" mask="url(#aD)" stroke-width="2" xlink:href="#x"/><use stroke="#1E9DF2" mask="url(#aE)" stroke-width="2" xlink:href="#y"/><use stroke="#1E9DF2" mask="url(#aF)" stroke-width="2" xlink:href="#z"/><use stroke="#1E9DF2" mask="url(#aG)" stroke-width="2" xlink:href="#A"/><use stroke="#1E9DF2" mask="url(#aH)" stroke-width="2" xlink:href="#B"/><use stroke="#1E9DF2" mask="url(#aI)" stroke-width="2" xlink:href="#C"/><use stroke="#1E9DF2" mask="url(#aJ)" stroke-width="2" xlink:href="#D"/><use stroke="#1E9DF2" mask="url(#aK)" stroke-width="2" xlink:href="#E"/><use stroke="#1E9DF2" mask="url(#aL)" stroke-width="2" xlink:href="#F"/><use stroke="#1E9DF2" mask="url(#aM)" stroke-width="2" xlink:href="#G"/><use stroke="#1E9DF2" mask="url(#aN)" stroke-width="2" xlink:href="#H"/><use stroke="#1E9DF2" mask="url(#aO)" stroke-width="2" xlink:href="#I"/><use stroke="#1E9DF2" mask="url(#aP)" stroke-width="2" xlink:href="#J"/><use stroke="#1E9DF2" mask="url(#aQ)" stroke-width="2" xlink:href="#K"/><use stroke="#1E9DF2" mask="url(#aR)" stroke-width="2" xlink:href="#L"/><use stroke="#1E9DF2" mask="url(#aS)" stroke-width="2" xlink:href="#M"/><use stroke="#1E9DF2" mask="url(#aT)" stroke-width="2" xlink:href="#N"/><use stroke="#1E9DF2" mask="url(#aU)" stroke-width="2" xlink:href="#O"/><use stroke="#1E9DF2" mask="url(#aV)" stroke-width="2" xlink:href="#P"/><use stroke="#1E9DF2" mask="url(#aW)" stroke-width="2" xlink:href="#Q"/><use stroke="#1E9DF2" mask="url(#aX)" stroke-width="2" xlink:href="#R"/><use stroke="#1E9DF2" mask="url(#aY)" stroke-width="2" xlink:href="#S"/><use stroke="#1E9DF2" mask="url(#aZ)" stroke-width="2" xlink:href="#T"/><path d="M96 65H5" stroke="#1E9DF2"/><use stroke="#1E9DF2" mask="url(#ba)" stroke-width="2" fill="#D8D8D8" xlink:href="#U"/><path d="M70 85h1a1 1 0 0 1 1 1.01v1.98c0 .558-.443 1.01-.999 1.01H69m-10 7h11m-4-20v2m-3-2v2m-2 0v2m7-2v2" stroke="#1E9DF2"/><use stroke="#1E9DF2" mask="url(#bb)" stroke-width="2" xlink:href="#V"/><use stroke="#1E9DF2" mask="url(#bc)" stroke-width="2" xlink:href="#W"/><use stroke="#1E9DF2" mask="url(#bd)" stroke-width="2" xlink:href="#X"/><use stroke="#1E9DF2" mask="url(#be)" stroke-width="2" xlink:href="#Y"/><path d="M14 741.953h73m-73 5h73" stroke="#1E9DF2"/><use stroke="#1E9DF2" mask="url(#bf)" stroke-width="2.362" xlink:href="#Z"/><use stroke="#1E9DF2" mask="url(#bg)" stroke-width="2.362" xlink:href="#aa"/><use stroke="#1E9DF2" mask="url(#bh)" stroke-width="2.362" xlink:href="#ab"/><use stroke="#1E9DF2" mask="url(#bi)" stroke-width="2.362" xlink:href="#ac"/><path stroke="#1E9DF2" stroke-width="1.102" d="M32 769.349l-4-7.188L32 756"/><use stroke="#1E9DF2" mask="url(#bj)" stroke-width="2.362" xlink:href="#ad"/><use stroke="#1E9DF2" mask="url(#bk)" stroke-width="2.204" fill="#FFF" xlink:href="#ae"/><use stroke="#1E9DF2" mask="url(#bl)" stroke-width="2.204" transform="rotate(130 34.223 755.129)" xlink:href="#af"/><path stroke="#1E9DF2" d="M56 762.628l5-3.814 4 3.814L73 755"/><text opacity=".5" font-family="MuseoSansCyrl-300, Museo Sans Cyrl" font-size="20" font-weight="300" fill="#090909"><tspan x="3" y="169">Действующий бизнес</tspan></text><text opacity=".5" font-family="MuseoSansCyrl-300, Museo Sans Cyrl" font-size="20" font-weight="300" fill="#090909"><tspan x="3" y="836">Стартапы</tspan></text></g></svg>