<?xml version="1.0" encoding="UTF-8" standalone="no"?>
<svg width="1116px" height="576px" viewBox="0 0 1116 576" version="1.1" xmlns="http://www.w3.org/2000/svg" xmlns:xlink="http://www.w3.org/1999/xlink">
    <!-- Generator: Sketch 41.2 (35397) - http://www.bohemiancoding.com/sketch -->
    <title>Group 20</title>
    <desc>Created with Sketch.</desc>
    <defs>
        <rect id="path-1" x="0" y="392" width="199" height="162" rx="17"></rect>
        <filter x="-50%" y="-50%" width="200%" height="200%" filterUnits="objectBoundingBox" id="filter-2">
            <feOffset dx="0" dy="8" in="SourceAlpha" result="shadowOffsetOuter1"></feOffset>
            <feGaussianBlur stdDeviation="10" in="shadowOffsetOuter1" result="shadowBlurOuter1"></feGaussianBlur>
            <feColorMatrix values="0 0 0 0 0.964705882   0 0 0 0 0.262745098   0 0 0 0 0  0 0 0 0.298601676 0" type="matrix" in="shadowBlurOuter1"></feColorMatrix>
        </filter>
        <path d="M268,409.001694 C268,399.611918 275.61846,392 285.009619,392 L449.990381,392 C459.384534,392 467,399.616067 467,409.001694 L467,537.998306 C467,547.388082 459.38154,555 449.990381,555 L285.009619,555 C275.615466,555 268,547.383933 268,537.998306 L268,409.001694 Z" id="path-3"></path>
        <filter x="-50%" y="-50%" width="200%" height="200%" filterUnits="objectBoundingBox" id="filter-4">
            <feOffset dx="0" dy="8" in="SourceAlpha" result="shadowOffsetOuter1"></feOffset>
            <feGaussianBlur stdDeviation="10" in="shadowOffsetOuter1" result="shadowBlurOuter1"></feGaussianBlur>
            <feColorMatrix values="0 0 0 0 0.117647059   0 0 0 0 0.615686275   0 0 0 0 0.949019608  0 0 0 0.45 0" type="matrix" in="shadowBlurOuter1"></feColorMatrix>
        </filter>
        <linearGradient x1="9.37300702%" y1="50%" x2="84.2514349%" y2="50%" id="linearGradient-5">
            <stop stop-color="#F64300" offset="0%"></stop>
            <stop stop-color="#7077A6" offset="61.9060906%"></stop>
            <stop stop-color="#1E9DF2" offset="100%"></stop>
        </linearGradient>
        <linearGradient x1="79.9990973%" y1="78.9909177%" x2="18.0420881%" y2="19.1745638%" id="linearGradient-6">
            <stop stop-color="#F64300" offset="0%"></stop>
            <stop stop-color="#7077A6" offset="54.1733099%"></stop>
            <stop stop-color="#1E9DF2" offset="100%"></stop>
        </linearGradient>
        <rect id="path-7" x="595" y="392" width="199" height="162" rx="17"></rect>
        <filter x="-50%" y="-50%" width="200%" height="200%" filterUnits="objectBoundingBox" id="filter-8">
            <feOffset dx="0" dy="8" in="SourceAlpha" result="shadowOffsetOuter1"></feOffset>
            <feGaussianBlur stdDeviation="10" in="shadowOffsetOuter1" result="shadowBlurOuter1"></feGaussianBlur>
            <feColorMatrix values="0 0 0 0 0.964705882   0 0 0 0 0.262745098   0 0 0 0 0  0 0 0 0.3 0" type="matrix" in="shadowBlurOuter1"></feColorMatrix>
        </filter>
        <path d="M863,409.001694 C863,399.611918 870.61846,392 880.009619,392 L1044.99038,392 C1054.38453,392 1062,399.616067 1062,409.001694 L1062,537.998306 C1062,547.388082 1054.38154,555 1044.99038,555 L880.009619,555 C870.615466,555 863,547.383933 863,537.998306 L863,409.001694 Z" id="path-9"></path>
        <filter x="-50%" y="-50%" width="200%" height="200%" filterUnits="objectBoundingBox" id="filter-10">
            <feOffset dx="0" dy="8" in="SourceAlpha" result="shadowOffsetOuter1"></feOffset>
            <feGaussianBlur stdDeviation="10" in="shadowOffsetOuter1" result="shadowBlurOuter1"></feGaussianBlur>
            <feColorMatrix values="0 0 0 0 0.117647059   0 0 0 0 0.615686275   0 0 0 0 0.949019608  0 0 0 0.45 0" type="matrix" in="shadowBlurOuter1"></feColorMatrix>
        </filter>
        <linearGradient x1="9.37300702%" y1="50%" x2="84.2514349%" y2="50%" id="linearGradient-11">
            <stop stop-color="#F64300" offset="0%"></stop>
            <stop stop-color="#7077A6" offset="50%"></stop>
            <stop stop-color="#1E9DF2" offset="100%"></stop>
        </linearGradient>
        <linearGradient x1="79.9990973%" y1="78.9909177%" x2="18.0420881%" y2="19.1745638%" id="linearGradient-12">
            <stop stop-color="#F64300" offset="0%"></stop>
            <stop stop-color="#7077A6" offset="54.2530293%"></stop>
            <stop stop-color="#1E9DF2" offset="100%"></stop>
        </linearGradient>
    </defs>
    <g id="Page-1" stroke="none" stroke-width="1" fill="none" fill-rule="evenodd">
        <g id="main_new" transform="translate(-82.000000, -4193.000000)">
            <g id="Типы-проектов" transform="translate(0.000000, 3252.000000)">
                <g id="Group-20" transform="translate(102.000000, 934.000000)">
                    <g id="Group-8">
                        <g id="Rectangle-12">
                            <use fill="black" fill-opacity="1" filter="url(#filter-2)" xlink:href="#path-1"></use>
                            <use fill="#F64300" fill-rule="evenodd" xlink:href="#path-1"></use>
                        </g>
                        <g id="Rectangle-12-Copy">
                            <use fill="black" fill-opacity="1" filter="url(#filter-4)" xlink:href="#path-3"></use>
                            <use fill="#1E9DF2" fill-rule="evenodd" xlink:href="#path-3"></use>
                        </g>
                        <text id="Доход-в-виде-процент" font-family="PTMono-Bold, PT Mono" font-size="13" font-weight="bold" line-spacing="16" fill="#FFFFFF">
                            <tspan x="18" y="425">Доход в виде процента</tspan>
                            <tspan x="18" y="441">от осуществленных</tspan>
                            <tspan x="18" y="457">инвестиций.</tspan>
                        </text>
                        <text id="Опцион-на-получение" font-family="PTMono-Bold, PT Mono" font-size="13" font-weight="bold" line-spacing="16" fill="#FFFFFF">
                            <tspan x="18" y="497">Опцион на получение</tspan>
                            <tspan x="18" y="513">части прибыли</tspan>
                            <tspan x="18" y="529">от развития бизнеса.</tspan>
                        </text>
                        <g id="Group-7" transform="translate(518.000000, 193.500000) rotate(-270.000000) translate(-518.000000, -193.500000) translate(324.500000, -238.500000)">
                            <g id="Group-12" transform="translate(80.000000, 781.000000)" fill="#F64300">
                                <path d="M4,25 L5,25 L5,45 L4,45 L4,25 Z M146,2 L147,2 L147,46 L146,46 L146,2 Z M4,45 L146,45 L146,46 L4,46 L4,45 Z" id="Combined-Shape"></path>
                                <path d="M4.5,29 C6.98528137,29 9,26.9852814 9,24.5 C9,22.0147186 6.98528137,20 4.5,20 C2.01471863,20 0,22.0147186 0,24.5 C0,26.9852814 2.01471863,29 4.5,29 Z" id="Oval-3"></path>
                                <g id="Group-6" transform="translate(147.000000, 7.000000) rotate(-90.000000) translate(-147.000000, -7.000000) translate(140.000000, -6.000000)">
                                    <path d="M12.0354321,12.7425388 L7.43849426e-15,0.707106781 L0.707106781,-6.51683243e-15 L13.4350288,12.7279221 L13.4204121,12.7425388 L13.4350288,12.7571556 L0.707106781,25.4850777 L4.87054841e-13,24.7779709 L12.0354321,12.7425388 Z" id="Combined-Shape"></path>
                                </g>
                            </g>
                            <g id="Group-12-Copy-2" transform="translate(80.000000, 172.000000)" fill="#F64300">
                                <path d="M4,25 L5,25 L5,45 L4,45 L4,25 Z M146,2 L147,2 L147,46 L146,46 L146,2 Z M4,45 L146,45 L146,46 L4,46 L4,45 Z" id="Combined-Shape"></path>
                                <path d="M4.5,29 C6.98528137,29 9,26.9852814 9,24.5 C9,22.0147186 6.98528137,20 4.5,20 C2.01471863,20 0,22.0147186 0,24.5 C0,26.9852814 2.01471863,29 4.5,29 Z" id="Oval-3"></path>
                                <g id="Group-6" transform="translate(147.000000, 7.000000) rotate(-90.000000) translate(-147.000000, -7.000000) translate(140.000000, -6.000000)">
                                    <path d="M12.0354321,12.7425388 L7.43849426e-15,0.707106781 L0.707106781,-6.51683243e-15 L13.4350288,12.7279221 L13.4204121,12.7425388 L13.4350288,12.7571556 L0.707106781,25.4850777 L4.87054841e-13,24.7779709 L12.0354321,12.7425388 Z" id="Combined-Shape"></path>
                                </g>
                            </g>
                            <g id="Group-12-Copy" transform="translate(160.000000, 632.000000) scale(1, -1) translate(-160.000000, -632.000000) translate(80.000000, 609.000000)" fill="#1E9DF2">
                                <path d="M4,25 L5,25 L5,45 L4,45 L4,25 Z M146,2 L147,2 L147,46 L146,46 L146,2 Z M4,45 L146,45 L146,46 L4,46 L4,45 Z" id="Combined-Shape"></path>
                                <path d="M4.5,29 C6.98528137,29 9,26.9852814 9,24.5 C9,22.0147186 6.98528137,20 4.5,20 C2.01471863,20 0,22.0147186 0,24.5 C0,26.9852814 2.01471863,29 4.5,29 Z" id="Oval-3"></path>
                                <g id="Group-6" transform="translate(146.500000, 7.500000) rotate(-90.000000) translate(-146.500000, -7.500000) translate(139.000000, -6.000000)">
                                    <path d="M12.8179176,13.44249 L0.782485579,1.40705795 L1.48959236,0.699951172 L14.2175144,13.4278732 L14.2028976,13.44249 L14.2175144,13.4571068 L1.48959236,26.1850288 L0.782485579,25.4779221 L12.8179176,13.44249 Z" id="Combined-Shape"></path>
                                </g>
                            </g>
                            <g id="Group-12-Copy-3" transform="translate(160.000000, 23.000000) scale(1, -1) translate(-160.000000, -23.000000) translate(80.000000, 0.000000)" fill="#1E9DF2">
                                <path d="M4,25 L5,25 L5,45 L4,45 L4,25 Z M146,2 L147,2 L147,46 L146,46 L146,2 Z M4,45 L146,45 L146,46 L4,46 L4,45 Z" id="Combined-Shape"></path>
                                <path d="M4.5,29 C6.98528137,29 9,26.9852814 9,24.5 C9,22.0147186 6.98528137,20 4.5,20 C2.01471863,20 0,22.0147186 0,24.5 C0,26.9852814 2.01471863,29 4.5,29 Z" id="Oval-3"></path>
                                <g id="Group-6" transform="translate(146.500000, 7.500000) rotate(-90.000000) translate(-146.500000, -7.500000) translate(139.000000, -6.000000)">
                                    <path d="M12.8179176,13.44249 L0.782485579,1.40705795 L1.48959236,0.699951172 L14.2175144,13.4278732 L14.2028976,13.44249 L14.2175144,13.4571068 L1.48959236,26.1850288 L0.782485579,25.4779221 L12.8179176,13.44249 Z" id="Combined-Shape"></path>
                                </g>
                            </g>
                            <path d="M256,783 C291.898509,783 321,753.898509 321,718 C321,682.101491 291.898509,653 256,653 C220.101491,653 191,682.101491 191,718 C191,753.898509 220.101491,783 256,783 Z" id="Oval-9" fill="url(#linearGradient-5)" transform="translate(256.000000, 718.000000) rotate(-90.000000) translate(-256.000000, -718.000000) "></path>
                            <text id="Действующий-бизнес" transform="translate(260.000000, 718.500000) rotate(-90.000000) translate(-260.000000, -718.500000) " font-family="PTMono-Bold, PT Mono" font-size="15" font-weight="bold" line-spacing="20" letter-spacing="0.74000001" fill="#FFFFFF">
                                <tspan x="206.06" y="711.5">Действующий </tspan>
                                <tspan x="231.15" y="731.5">бизне</tspan>
                                <tspan x="279.85" y="731.5">с</tspan>
                            </text>
                            <g id="Group-12" transform="translate(380.000000, 851.000000) scale(1, -1) translate(-380.000000, -851.000000) translate(373.000000, 838.000000)">
                                <g id="Group-6"></g>
                            </g>
                            <rect id="Rectangle-41" fill="url(#linearGradient-6)" transform="translate(85.000000, 718.000000) rotate(-315.000000) translate(-85.000000, -718.000000) " x="25" y="658" width="120" height="120" rx="17"></rect>
                            <text id="Инвесторы" transform="translate(85.500000, 718.500000) rotate(-90.000000) translate(-85.500000, -718.500000) " font-family="PTMono-Bold, PT Mono" font-size="15" font-weight="bold" letter-spacing="0.74000001" fill="#FFFFFF">
                                <tspan x="42" y="723">Инвестор</tspan>
                                <tspan x="119.92" y="723">ы</tspan>
                            </text>
                        </g>
                        <g id="Group-14" transform="translate(98.000000, 285.000000)"></g>
                    </g>
                    <g id="Group-8-Copy" transform="translate(14.000000, 0.000000)">
                        <g id="Rectangle-12">
                            <use fill="black" fill-opacity="1" filter="url(#filter-8)" xlink:href="#path-7"></use>
                            <use fill="#F64300" fill-rule="evenodd" xlink:href="#path-7"></use>
                        </g>
                        <g id="Rectangle-12-Copy">
                            <use fill="black" fill-opacity="1" filter="url(#filter-10)" xlink:href="#path-9"></use>
                            <use fill="#1E9DF2" fill-rule="evenodd" xlink:href="#path-9"></use>
                        </g>
                        <text id="Инвесторы-—-кредитор" font-family="PTMono-Bold, PT Mono" font-size="13" font-weight="bold" line-spacing="16" fill="#FFFFFF">
                            <tspan x="881" y="454">Инвесторы — кредиторы</tspan>
                            <tspan x="881" y="470">проекта.Доход в виде</tspan>
                            <tspan x="881" y="486">процента от будущих</tspan>
                            <tspan x="881" y="502">доходов (опцион).</tspan>
                        </text>
                        <text id="Владение-долей-(акци" font-family="PTMono-Bold, PT Mono" font-size="13" font-weight="bold" line-spacing="16" fill="#FFFFFF">
                            <tspan x="272" y="462">Владение долей</tspan>
                            <tspan x="272" y="478">(акциями) получившего</tspan>
                            <tspan x="272" y="494">инвистиции бизнеса.</tspan>
                        </text>
                        <g id="Group-7" transform="translate(827.000000, 160.500000) rotate(-270.000000) translate(-827.000000, -160.500000) translate(666.500000, 75.500000)">
                            <path d="M256,150 C291.898509,150 321,120.898509 321,85 C321,49.1014913 291.898509,20 256,20 C220.101491,20 191,49.1014913 191,85 C191,120.898509 220.101491,150 256,150 Z" id="Oval-9" fill="url(#linearGradient-11)" transform="translate(256.000000, 85.000000) rotate(-90.000000) translate(-256.000000, -85.000000) "></path>
                            <text id="Стартапы" transform="translate(256.500000, 86.145000) rotate(-90.000000) translate(-256.500000, -86.145000) " font-family="PTMono-Bold, PT Mono" font-size="15" font-weight="bold" letter-spacing="0.74000001" fill="#FFFFFF">
                                <tspan x="217.5" y="90.645">Стартап</tspan>
                                <tspan x="285.68" y="90.645">ы</tspan>
                            </text>
                            <rect id="Rectangle-41" fill="url(#linearGradient-12)" transform="translate(85.000000, 85.000000) rotate(-315.000000) translate(-85.000000, -85.000000) " x="25" y="25" width="120" height="120" rx="17"></rect>
                            <text id="Инвесторы" transform="translate(85.500000, 85.500000) rotate(-90.000000) translate(-85.500000, -85.500000) " font-family="PTMono-Bold, PT Mono" font-size="15" font-weight="bold" letter-spacing="0.74000001" fill="#FFFFFF">
                                <tspan x="42" y="90">Инвестор</tspan>
                                <tspan x="119.92" y="90">ы</tspan>
                            </text>
                        </g>
                        <g id="Group-19" transform="translate(0.000000, 449.000000)">
                            <text id="Инвесторы-—-владельц" font-family="PTMono-Bold, PT Mono" font-size="13" font-weight="bold" line-spacing="16" fill="#FFFFFF">
                                <tspan x="613" y="12">Инвесторы — владельцы</tspan>
                                <tspan x="613" y="28">доли в проекте. </tspan>
                                <tspan x="613" y="44">Доход не ограничен.</tspan>
                            </text>
                            <path d="M0,24 L170,24" id="Path-2" stroke="#FFFFFF" opacity="0.497026586"></path>
                        </g>
                        <g id="Group-19-Copy" transform="translate(0.000000, 472.000000)" stroke="#FFFFFF" opacity="0.497026586">
                            <path d="M0,1 L170,1" id="Path-2"></path>
                        </g>
                    </g>
                    <g id="Group-15" transform="translate(85.000000, 281.000000)" fill="#F64300">
                        <path d="M19.0354321,98.7425388 L7,86.7071068 L7.70710678,86 L20.4350288,98.7279221 L20.4204121,98.7425388 L20.4350288,98.7571556 L7.70710678,111.485078 L7,110.777971 L19.0354321,98.7425388 Z" id="Combined-Shape" transform="translate(13.717514, 98.742539) scale(-1, -1) rotate(-90.000000) translate(-13.717514, -98.742539) "></path>
                        <path d="M78.5,9 C80.9852814,9 83,6.98528137 83,4.5 C83,2.01471863 80.9852814,0 78.5,0 C76.0147186,0 74,2.01471863 74,4.5 C74,6.98528137 76.0147186,9 78.5,9 Z" id="Oval-3"></path>
                        <rect id="Rectangle-42-Copy-2" x="13" y="4" width="1" height="100"></rect>
                        <rect id="Rectangle-13" x="14" y="4" width="65" height="1"></rect>
                    </g>
                    <g id="Group-15-Copy-2" transform="translate(694.000000, 281.000000)" fill="#F64300">
                        <path d="M19.0354321,98.7425388 L7,86.7071068 L7.70710678,86 L20.4350288,98.7279221 L20.4204121,98.7425388 L20.4350288,98.7571556 L7.70710678,111.485078 L7,110.777971 L19.0354321,98.7425388 Z" id="Combined-Shape" transform="translate(13.717514, 98.742539) scale(-1, -1) rotate(-90.000000) translate(-13.717514, -98.742539) "></path>
                        <path d="M78.5,9 C80.9852814,9 83,6.98528137 83,4.5 C83,2.01471863 80.9852814,0 78.5,0 C76.0147186,0 74,2.01471863 74,4.5 C74,6.98528137 76.0147186,9 78.5,9 Z" id="Oval-3"></path>
                        <rect id="Rectangle-42-Copy-2" x="13" y="4" width="1" height="100"></rect>
                        <rect id="Rectangle-13" x="14" y="4" width="65" height="1"></rect>
                    </g>
                    <g id="Group-15-Copy" transform="translate(336.500000, 334.000000) scale(-1, 1) translate(-336.500000, -334.000000) translate(295.000000, 281.000000)" fill="#1E9DF2">
                        <path d="M19.0354321,98.7425388 L7,86.7071068 L7.70710678,86 L20.4350288,98.7279221 L20.4204121,98.7425388 L20.4350288,98.7571556 L7.70710678,111.485078 L7,110.777971 L19.0354321,98.7425388 Z" id="Combined-Shape" transform="translate(13.717514, 98.742539) scale(-1, -1) rotate(-90.000000) translate(-13.717514, -98.742539) "></path>
                        <path d="M78.5,9 C80.9852814,9 83,6.98528137 83,4.5 C83,2.01471863 80.9852814,0 78.5,0 C76.0147186,0 74,2.01471863 74,4.5 C74,6.98528137 76.0147186,9 78.5,9 Z" id="Oval-3"></path>
                        <rect id="Rectangle-42-Copy-2" x="13" y="4" width="1" height="100"></rect>
                        <rect id="Rectangle-13" x="14" y="4" width="65" height="1"></rect>
                    </g>
                    <g id="Group-15-Copy-3" transform="translate(945.500000, 334.000000) scale(-1, 1) translate(-945.500000, -334.000000) translate(904.000000, 281.000000)" fill="#1E9DF2">
                        <path d="M19.0354321,98.7425388 L7,86.7071068 L7.70710678,86 L20.4350288,98.7279221 L20.4204121,98.7425388 L20.4350288,98.7571556 L7.70710678,111.485078 L7,110.777971 L19.0354321,98.7425388 Z" id="Combined-Shape" transform="translate(13.717514, 98.742539) scale(-1, -1) rotate(-90.000000) translate(-13.717514, -98.742539) "></path>
                        <path d="M78.5,9 C80.9852814,9 83,6.98528137 83,4.5 C83,2.01471863 80.9852814,0 78.5,0 C76.0147186,0 74,2.01471863 74,4.5 C74,6.98528137 76.0147186,9 78.5,9 Z" id="Oval-3"></path>
                        <rect id="Rectangle-42-Copy-2" x="13" y="4" width="1" height="100"></rect>
                        <rect id="Rectangle-13" x="14" y="4" width="65" height="1"></rect>
                    </g>
                    <g id="Group-17" transform="translate(18.000000, 346.000000)" font-family="PTMono-Regular, PT Mono" fill="#000000" font-weight="normal">
                        <g id="Group-16">
                            <text id="1" opacity="0.800000012" font-size="42">
                                <tspan x="14" y="37">1</tspan>
                            </text>
                            <text id="№" opacity="0.5" font-size="20">
                                <tspan x="0" y="37">№</tspan>
                            </text>
                        </g>
                        <g id="Group-16-Copy" transform="translate(268.000000, 0.000000)">
                            <text id="2" opacity="0.800000012" font-size="42">
                                <tspan x="16" y="37">2</tspan>
                            </text>
                            <text id="№" opacity="0.5" font-size="20">
                                <tspan x="0" y="37">№</tspan>
                            </text>
                        </g>
                        <g id="Group-16-Copy-2" transform="translate(609.000000, 0.000000)">
                            <text id="3" opacity="0.800000012" font-size="42">
                                <tspan x="17" y="37">3</tspan>
                            </text>
                            <text id="№" opacity="0.5" font-size="20">
                                <tspan x="0" y="37">№</tspan>
                            </text>
                        </g>
                        <g id="Group-16-Copy-3" transform="translate(877.000000, 0.000000)">
                            <text id="4" opacity="0.800000012" font-size="42">
                                <tspan x="18" y="37">4</tspan>
                            </text>
                            <text id="№" opacity="0.5" font-size="20">
                                <tspan x="0" y="37">№</tspan>
                            </text>
                        </g>
                    </g>
                </g>
            </g>
        </g>
    </g>
</svg>