<svg width="674" height="956" viewBox="0 0 674 956" xmlns="http://www.w3.org/2000/svg" xmlns:xlink="http://www.w3.org/1999/xlink"><title>scheme_tablet_2.0</title><defs><path id="a" d="M137.07 36.857h10.506l3.94 92.143h-19.698z"/><mask id="ar" x="0" y="0" width="19.697" height="92.143" fill="#fff"><use xlink:href="#a"/></mask><path id="b" d="M120 93.46l42.02-10.531V129H120z"/><mask id="as" x="0" y="0" width="42.02" height="46.071" fill="#fff"><use xlink:href="#b"/></mask><path id="c" d="M231.616 93.459h10.505v5.265h-10.505z"/><mask id="at" x="0" y="0" width="10.505" height="5.265" fill="#fff"><use xlink:href="#c"/></mask><path id="d" d="M219.798 71.082h10.505v5.265h-10.505z"/><mask id="au" x="0" y="0" width="10.505" height="5.265" fill="#fff"><use xlink:href="#d"/></mask><path id="e" d="M222 97h27.576v31.592H222z"/><mask id="av" x="0" y="0" width="27.576" height="31.592" fill="#fff"><use xlink:href="#e"/></mask><path id="f" d="M189.596 0h15.758l7.878 129h-31.515z"/><mask id="aw" x="0" y="0" width="31.515" height="129" fill="#fff"><use xlink:href="#f"/></mask><path id="g" d="M160.707 64.5l63.03-17.112V129h-63.03z"/><mask id="ax" x="0" y="0" width="63.03" height="81.612" fill="#fff"><use xlink:href="#g"/></mask><path id="h" d="M165.96 105.306h14.444v15.796H165.96z"/><mask id="ay" x="0" y="0" width="14.444" height="15.796" fill="#fff"><use xlink:href="#h"/></mask><path id="i" d="M125.253 105.306h13.131v15.796h-13.131z"/><mask id="az" x="0" y="0" width="13.131" height="15.796" fill="#fff"><use xlink:href="#i"/></mask><path id="j" d="M143.636 105.306h13.132v15.796h-13.132z"/><mask id="aA" x="0" y="0" width="13.131" height="15.796" fill="#fff"><use xlink:href="#j"/></mask><path id="k" d="M230.303 109.255h11.818V129h-11.818z"/><mask id="aB" x="0" y="0" width="11.818" height="19.745" fill="#fff"><use xlink:href="#k"/></mask><path id="l" d="M184.343 105.306h14.445v15.796h-14.445z"/><mask id="aC" x="0" y="0" width="14.444" height="15.796" fill="#fff"><use xlink:href="#l"/></mask><path id="m" d="M202.727 105.306h14.445v15.796h-14.445z"/><mask id="aD" x="0" y="0" width="14.444" height="15.796" fill="#fff"><use xlink:href="#m"/></mask><path id="n" d="M165.96 82.929h14.444v15.795H165.96z"/><mask id="aE" x="0" y="0" width="14.444" height="15.796" fill="#fff"><use xlink:href="#n"/></mask><path id="o" d="M184.343 82.929h14.445v15.795h-14.445z"/><mask id="aF" x="0" y="0" width="14.444" height="15.796" fill="#fff"><use xlink:href="#o"/></mask><path id="p" d="M202.727 82.929h14.445v15.795h-14.445z"/><mask id="aG" x="0" y="0" width="14.444" height="15.796" fill="#fff"><use xlink:href="#p"/></mask><path id="q" d="M38 72h57v52H38z"/><mask id="aH" x="0" y="0" width="57" height="52" fill="#fff"><use xlink:href="#q"/></mask><path id="r" d="M60 81h13l-2.6 13h-7.8z"/><mask id="aI" x="0" y="0" width="13" height="13" fill="#fff"><use xlink:href="#r"/></mask><path id="s" d="M10 72h5v52h-5z"/><mask id="aJ" x="0" y="0" width="5" height="52" fill="#fff"><use xlink:href="#s"/></mask><path id="t" d="M38 102h57v4H38z"/><mask id="aK" x="0" y="0" width="57" height="4" fill="#fff"><use xlink:href="#t"/></mask><path id="u" d="M75 99h9v4h-9z"/><mask id="aL" x="0" y="0" width="9" height="4" fill="#fff"><use xlink:href="#u"/></mask><path id="v" d="M62 99h9v4h-9z"/><mask id="aM" x="0" y="0" width="9" height="4" fill="#fff"><use xlink:href="#v"/></mask><path id="w" d="M49 99h9v4h-9z"/><mask id="aN" x="0" y="0" width="9" height="4" fill="#fff"><use xlink:href="#w"/></mask><path id="x" d="M68 109h10v10H68z"/><mask id="aO" x="0" y="0" width="10" height="10" fill="#fff"><use xlink:href="#x"/></mask><path id="y" d="M55 109h10v10H55z"/><mask id="aP" x="0" y="0" width="10" height="10" fill="#fff"><use xlink:href="#y"/></mask><path id="z" d="M42 109h10v10H42z"/><mask id="aQ" x="0" y="0" width="10" height="10" fill="#fff"><use xlink:href="#z"/></mask><path id="A" d="M81 109h10v10H81z"/><mask id="aR" x="0" y="0" width="10" height="10" fill="#fff"><use xlink:href="#A"/></mask><path id="B" d="M14 72h25v57H14z"/><mask id="aS" x="0" y="0" width="25" height="57" fill="#fff"><use xlink:href="#B"/></mask><path id="C" d="M17 72h19v27H17z"/><mask id="aT" x="0" y="0" width="19" height="27" fill="#fff"><use xlink:href="#C"/></mask><path id="D" d="M38 123h62v6H38z"/><mask id="aU" x="0" y="0" width="62" height="6" fill="#fff"><use xlink:href="#D"/></mask><path id="E" d="M5 123h10v6H5z"/><mask id="aV" x="0" y="0" width="10" height="6" fill="#fff"><use xlink:href="#E"/></mask><path id="F" d="M11 43h83v9H11z"/><mask id="aW" x="0" y="0" width="83" height="9" fill="#fff"><use xlink:href="#F"/></mask><path id="G" d="M8 39h89v5H8z"/><mask id="aX" x="0" y="0" width="89" height="5" fill="#fff"><use xlink:href="#G"/></mask><path id="H" d="M11 51h83l5 14v8H6v-8z"/><mask id="aY" x="0" y="0" width="93" height="22" fill="#fff"><use xlink:href="#H"/></mask><path id="I" d="M34 102h1v4h-1z"/><mask id="aZ" x="0" y="0" width="1" height="4" fill="#fff"><use xlink:href="#I"/></mask><path id="J" d="M11 573h89v74.372H11z"/><mask id="ba" x="0" y="0" width="89" height="74.372" fill="#fff"><use xlink:href="#J"/></mask><path id="K" d="M5 565h100v8.581H5z"/><mask id="bb" x="0" y="0" width="100" height="8.581" fill="#fff"><use xlink:href="#K"/></mask><path id="L" d="M19 587h73v60.07H19z"/><mask id="bc" x="0" y="0" width="73" height="60.07" fill="#fff"><use xlink:href="#L"/></mask><path id="M" d="M16 581h79v6.674H16z"/><mask id="bd" x="0" y="0" width="79" height="6.674" fill="#fff"><use xlink:href="#M"/></mask><path id="N" d="M29 623h54v4.767H29z"/><mask id="be" x="0" y="0" width="54" height="4.767" fill="#fff"><use xlink:href="#N"/></mask><path id="O" d="M34 627h5l-2 20.023h-1z"/><mask id="bf" x="0" y="0" width="5" height="20.023" fill="#fff"><use xlink:href="#O"/></mask><path id="P" d="M70 627h5l-2 20.023h-1z"/><mask id="bg" x="0" y="0" width="5" height="20.023" fill="#fff"><use xlink:href="#P"/></mask><path id="Q" d="M57 604h24v14.302H57z"/><mask id="bh" x="0" y="0" width="24" height="14.302" fill="#fff"><use xlink:href="#Q"/></mask><path id="R" d="M67.167 617h4.666L73 623.674h-7z"/><mask id="bi" x="0" y="0" width="7" height="6.674" fill="#fff"><use xlink:href="#R"/></mask><path id="S" d="M32 620h11v3.814H32z"/><mask id="bj" x="0" y="0" width="11" height="3.814" fill="#fff"><use xlink:href="#S"/></mask><path d="M41.445 607.658v4.238h-4.444v-4.238l-1.778-5.297h8l-1.778 5.297z" id="T"/><mask id="bk" x="0" y="0" width="8" height="9.535" fill="#fff"><use xlink:href="#T"/></mask><path id="U" d="M550.657 143.657l7.293.707.707 7.293-7.293-.707z"/><mask id="bl" x="0" y="0" width="8" height="8" fill="#fff"><use xlink:href="#U"/></mask><path id="V" d="M542.071 155.425l3.544.892 18.613 11.599 3.535 12.494-13.2-2.829-11.59-18.596z"/><mask id="bm" x="0" y="0" width="25.692" height="24.985" fill="#fff"><use xlink:href="#V"/></mask><path d="M595.35 166.648l2.35-2.854-3.123-3.794-3.124 3.794 2.36 2.865-.49.822L590 181.796l4.919 7.602 4.248-7.602-3.326-14.327-.49-.821z" id="W"/><mask id="bn" x="0" y="0" width="9.167" height="29.398" fill="#fff"><use xlink:href="#W"/></mask><path d="M516.35 166.648l2.35-2.854-3.123-3.794-3.124 3.794 2.36 2.865-.49.822L511 181.796l4.919 7.602 4.248-7.602-3.326-14.327-.49-.821z" id="X"/><mask id="bo" x="0" y="0" width="9.167" height="29.398" fill="#fff"><use xlink:href="#X"/></mask><path id="Y" d="M470 78h50v31h-50z"/><mask id="bp" x="0" y="0" width="50" height="31" fill="#fff"><use xlink:href="#Y"/></mask><path id="Z" d="M550.657 662.657l7.293.707.707 7.293-7.293-.707z"/><mask id="bq" x="0" y="0" width="8" height="8" fill="#fff"><use xlink:href="#Z"/></mask><path id="aa" d="M542.071 674.425l3.544.892 18.613 11.599 3.535 12.494-13.2-2.829-11.59-18.596z"/><mask id="br" x="0" y="0" width="25.692" height="24.985" fill="#fff"><use xlink:href="#aa"/></mask><path d="M595.35 685.648l2.35-2.854-3.123-3.794-3.124 3.794 2.36 2.865-.49.822L590 700.796l4.919 7.602 4.248-7.602-3.326-14.327-.49-.821z" id="ab"/><mask id="bs" x="0" y="0" width="9.167" height="29.398" fill="#fff"><use xlink:href="#ab"/></mask><path d="M516.35 685.648l2.35-2.854-3.123-3.794-3.124 3.794 2.36 2.865-.49.822L511 700.796l4.919 7.602 4.248-7.602-3.326-14.327-.49-.821z" id="ac"/><mask id="bt" x="0" y="0" width="9.167" height="29.398" fill="#fff"><use xlink:href="#ac"/></mask><path id="ad" d="M470 597h50v31h-50z"/><mask id="bu" x="0" y="0" width="50" height="31" fill="#fff"><use xlink:href="#ad"/></mask><path id="ae" d="M591 356h50v35h-50z"/><mask id="bv" x="0" y="0" width="50" height="35" fill="#fff"><use xlink:href="#ae"/></mask><path id="af" d="M607 350h18v7h-18z"/><mask id="bw" x="0" y="0" width="18" height="7" fill="#fff"><use xlink:href="#af"/></mask><path id="ag" d="M611 367h10v7h-10z"/><mask id="bx" x="0" y="0" width="10" height="7" fill="#fff"><use xlink:href="#ag"/></mask><path id="ah" d="M591 875h50v35h-50z"/><mask id="by" x="0" y="0" width="50" height="35" fill="#fff"><use xlink:href="#ah"/></mask><path id="ai" d="M607 869h18v7h-18z"/><mask id="bz" x="0" y="0" width="18" height="7" fill="#fff"><use xlink:href="#ai"/></mask><path id="aj" d="M611 886h10v7h-10z"/><mask id="bA" x="0" y="0" width="10" height="7" fill="#fff"><use xlink:href="#aj"/></mask><path id="ak" d="M88 348h50v31H88z"/><mask id="bB" x="0" y="0" width="50" height="31" fill="#fff"><use xlink:href="#ak"/></mask><path id="al" d="M84 352h50v31H84z"/><mask id="bC" x="0" y="0" width="50" height="31" fill="#fff"><use xlink:href="#al"/></mask><path id="am" d="M80 356h50v31H80z"/><mask id="bD" x="0" y="0" width="50" height="31" fill="#fff"><use xlink:href="#am"/></mask><path id="an" d="M345 350h57v41h-57z"/><mask id="bE" x="0" y="0" width="57" height="41" fill="#fff"><use xlink:href="#an"/></mask><path id="ao" d="M371 361h6l2 13-5-3-5 3z"/><mask id="bF" x="0" y="0" width="10" height="13" fill="#fff"><use xlink:href="#ao"/></mask><path id="ap" d="M345 869h57v41h-57z"/><mask id="bG" x="0" y="0" width="57" height="41" fill="#fff"><use xlink:href="#ap"/></mask><path id="aq" d="M371 880h6l2 13-5-3-5 3z"/><mask id="bH" x="0" y="0" width="10" height="13" fill="#fff"><use xlink:href="#aq"/></mask></defs><g fill="none" fill-rule="evenodd"><use stroke="#1E9DF2" mask="url(#ar)" stroke-width="2" xlink:href="#a"/><use stroke="#1E9DF2" mask="url(#as)" stroke-width="2" fill="#FFF" xlink:href="#b"/><path d="M221.111 76.341h10.492a2.637 2.637 0 0 1 2.64 2.624v19.76h5.252v-19.76c0-4.35-3.538-7.883-7.892-7.883h-10.492v5.259z" stroke="#1E9DF2"/><use stroke="#1E9DF2" mask="url(#at)" stroke-width="2" fill="#FFF" xlink:href="#c"/><use stroke="#1E9DF2" mask="url(#au)" stroke-width="2" fill="#FFF" transform="rotate(-90 225.05 73.714)" xlink:href="#d"/><use stroke="#1E9DF2" mask="url(#av)" stroke-width="2" fill="#FFF" xlink:href="#e"/><use stroke="#1E9DF2" mask="url(#aw)" stroke-width="2" xlink:href="#f"/><use stroke="#1E9DF2" mask="url(#ax)" stroke-width="2" fill="#FFF" xlink:href="#g"/><use stroke="#1E9DF2" mask="url(#ay)" stroke-width="2" xlink:href="#h"/><use stroke="#1E9DF2" mask="url(#az)" stroke-width="2" xlink:href="#i"/><use stroke="#1E9DF2" mask="url(#aA)" stroke-width="2" xlink:href="#j"/><use stroke="#1E9DF2" mask="url(#aB)" stroke-width="2" xlink:href="#k"/><use stroke="#1E9DF2" mask="url(#aC)" stroke-width="2" xlink:href="#l"/><use stroke="#1E9DF2" mask="url(#aD)" stroke-width="2" xlink:href="#m"/><path d="M137.07 42.5h10.506" stroke="#1E9DF2"/><use stroke="#1E9DF2" mask="url(#aE)" stroke-width="2" xlink:href="#n"/><use stroke="#1E9DF2" mask="url(#aF)" stroke-width="2" xlink:href="#o"/><use stroke="#1E9DF2" mask="url(#aG)" stroke-width="2" xlink:href="#p"/><path d="M189.596 5.5h15.758" stroke="#1E9DF2"/><use stroke="#1E9DF2" mask="url(#aH)" stroke-width="2" xlink:href="#q"/><use stroke="#1E9DF2" mask="url(#aI)" stroke-width="2" xlink:href="#r"/><use stroke="#1E9DF2" mask="url(#aJ)" stroke-width="2" xlink:href="#s"/><use stroke="#1E9DF2" mask="url(#aK)" stroke-width="2" xlink:href="#t"/><use stroke="#1E9DF2" mask="url(#aL)" stroke-width="2" xlink:href="#u"/><use stroke="#1E9DF2" mask="url(#aM)" stroke-width="2" xlink:href="#v"/><use stroke="#1E9DF2" mask="url(#aN)" stroke-width="2" xlink:href="#w"/><use stroke="#1E9DF2" mask="url(#aO)" stroke-width="2" xlink:href="#x"/><use stroke="#1E9DF2" mask="url(#aP)" stroke-width="2" xlink:href="#y"/><use stroke="#1E9DF2" mask="url(#aQ)" stroke-width="2" xlink:href="#z"/><use stroke="#1E9DF2" mask="url(#aR)" stroke-width="2" xlink:href="#A"/><use stroke="#1E9DF2" mask="url(#aS)" stroke-width="2" xlink:href="#B"/><use stroke="#1E9DF2" mask="url(#aT)" stroke-width="2" xlink:href="#C"/><use stroke="#1E9DF2" mask="url(#aU)" stroke-width="2" xlink:href="#D"/><use stroke="#1E9DF2" mask="url(#aV)" stroke-width="2" xlink:href="#E"/><use stroke="#1E9DF2" mask="url(#aW)" stroke-width="2" xlink:href="#F"/><use stroke="#1E9DF2" mask="url(#aX)" stroke-width="2" xlink:href="#G"/><use stroke="#1E9DF2" mask="url(#aY)" stroke-width="2" xlink:href="#H"/><path d="M98 65H7" stroke="#1E9DF2"/><use stroke="#1E9DF2" mask="url(#aZ)" stroke-width="2" fill="#D8D8D8" xlink:href="#I"/><path d="M72 85h1a1 1 0 0 1 1 1.01v1.98c0 .558-.443 1.01-.999 1.01H71m-10 6.5h11M68 76v2m-3-2v2m-2 0v2m7-2v2" stroke="#1E9DF2"/><use stroke="#1E9DF2" mask="url(#ba)" stroke-width="2" xlink:href="#J"/><use stroke="#1E9DF2" mask="url(#bb)" stroke-width="2" xlink:href="#K"/><use stroke="#1E9DF2" mask="url(#bc)" stroke-width="2" xlink:href="#L"/><use stroke="#1E9DF2" mask="url(#bd)" stroke-width="2" xlink:href="#M"/><path d="M19 593.953h73m-73 5h73" stroke="#1E9DF2"/><use stroke="#1E9DF2" mask="url(#be)" stroke-width="2.362" xlink:href="#N"/><use stroke="#1E9DF2" mask="url(#bf)" stroke-width="2.362" xlink:href="#O"/><use stroke="#1E9DF2" mask="url(#bg)" stroke-width="2.362" xlink:href="#P"/><use stroke="#1E9DF2" mask="url(#bh)" stroke-width="2.362" xlink:href="#Q"/><path stroke="#1E9DF2" stroke-width="1.102" d="M37 621.349l-4-7.188L37 608"/><use stroke="#1E9DF2" mask="url(#bi)" stroke-width="2.362" xlink:href="#R"/><use stroke="#1E9DF2" mask="url(#bj)" stroke-width="2.204" fill="#FFF" xlink:href="#S"/><use stroke="#1E9DF2" mask="url(#bk)" stroke-width="2.204" transform="rotate(130 39.223 607.129)" xlink:href="#T"/><path stroke="#1E9DF2" d="M61 614.628l5-3.814 4 3.814L78 607"/><circle stroke="#1E9DF2" cx="555.5" cy="166.5" r="88.5"/><text font-family="MuseoSansCyrl-300, Museo Sans Cyrl" font-size="15" font-weight="300" fill="#1E9DF2"><tspan x="508" y="220">Инвесторы</tspan></text><path d="M530.862 171.355C526.59 165.14 521.27 161 515.5 161c-14.083 0-25.5 24.67-25.5 44m130.718 0c0-19.33-11.417-44-25.5-44-5.704 0-10.97 4.046-15.218 10.146" stroke="#1E9DF2"/><path d="M586 205c0-27.677-13.655-63-30.5-63S525 177.323 525 205m-10-44c8.837 0 16-7.163 16-16s-7.163-16-16-16-16 7.163-16 16 7.163 16 16 16zm80 0c8.837 0 16-7.163 16-16s-7.163-16-16-16-16 7.163-16 16 7.163 16 16 16zm-40-20c10.493 0 19-8.507 19-19s-8.507-19-19-19-19 8.507-19 19 8.507 19 19 19z" stroke="#1E9DF2"/><use stroke="#1E9DF2" mask="url(#bl)" stroke-width="2" transform="rotate(45 554.657 147.657)" xlink:href="#U"/><use stroke="#1E9DF2" mask="url(#bm)" stroke-width="2" transform="rotate(45 554.917 167.917)" xlink:href="#V"/><use stroke="#1E9DF2" mask="url(#bn)" stroke-width="2" xlink:href="#W"/><use stroke="#1E9DF2" mask="url(#bo)" stroke-width="2" xlink:href="#X"/><use stroke="#1E9DF2" mask="url(#bp)" stroke-width="2" fill="#FFF" xlink:href="#Y"/><path d="M477 78v30m36-30v30" stroke="#1E9DF2"/><circle stroke="#1E9DF2" cx="496" cy="93" r="10"/><path d="M497.844 95.854h-3.262v2.296h-.812v-2.296H493v-.644h.77v-1.54H493v-.644h.77v-4.83a10.98 10.98 0 0 1 2.142-.196c2.128 0 2.814 1.484 2.814 2.66 0 1.19-.616 3.01-3.304 3.01h-.84v1.54h3.262v.644zm-.014-5.152c0-1.26-.658-2.03-2.156-2.03-.56 0-1.092.112-1.092.112v4.242s.294.014.784.014c1.946 0 2.464-1.12 2.464-2.338z" stroke="#1E9DF2" stroke-width=".5" fill="#1E9DF2"/><circle stroke="#1E9DF2" cx="555.5" cy="685.5" r="88.5"/><text font-family="MuseoSansCyrl-300, Museo Sans Cyrl" font-size="15" font-weight="300" fill="#1E9DF2"><tspan x="508" y="739">Инвесторы</tspan></text><path d="M530.862 690.355C526.59 684.14 521.27 680 515.5 680c-14.083 0-25.5 24.67-25.5 44m130.718 0c0-19.33-11.417-44-25.5-44-5.704 0-10.97 4.046-15.218 10.146" stroke="#1E9DF2"/><path d="M586 724c0-27.677-13.655-63-30.5-63S525 696.323 525 724m-10-44c8.837 0 16-7.163 16-16s-7.163-16-16-16-16 7.163-16 16 7.163 16 16 16zm80 0c8.837 0 16-7.163 16-16s-7.163-16-16-16-16 7.163-16 16 7.163 16 16 16zm-40-20c10.493 0 19-8.507 19-19s-8.507-19-19-19-19 8.507-19 19 8.507 19 19 19z" stroke="#1E9DF2"/><use stroke="#1E9DF2" mask="url(#bq)" stroke-width="2" transform="rotate(45 554.657 666.657)" xlink:href="#Z"/><use stroke="#1E9DF2" mask="url(#br)" stroke-width="2" transform="rotate(45 554.917 686.917)" xlink:href="#aa"/><use stroke="#1E9DF2" mask="url(#bs)" stroke-width="2" xlink:href="#ab"/><use stroke="#1E9DF2" mask="url(#bt)" stroke-width="2" xlink:href="#ac"/><use stroke="#1E9DF2" mask="url(#bu)" stroke-width="2" fill="#FFF" xlink:href="#ad"/><path d="M477 597v30m36-30v30" stroke="#1E9DF2"/><circle stroke="#1E9DF2" cx="496" cy="612" r="10"/><path d="M497.844 614.854h-3.262v2.296h-.812v-2.296H493v-.644h.77v-1.54H493v-.644h.77v-4.83a10.98 10.98 0 0 1 2.142-.196c2.128 0 2.814 1.484 2.814 2.66 0 1.19-.616 3.01-3.304 3.01h-.84v1.54h3.262v.644zm-.014-5.152c0-1.26-.658-2.03-2.156-2.03-.56 0-1.092.112-1.092.112v4.242s.294.014.784.014c1.946 0 2.464-1.12 2.464-2.338z" stroke="#1E9DF2" stroke-width=".5" fill="#1E9DF2"/><path d="M249 51.574c28-13 121-63.319 212 16.681M260.059 49.747L249 51.574l8.532-7.269M126 573.5c56-36 215-80 335 13.256" stroke="#B2D3DD"/><path d="M136.707 570.184L126 573.501l7.462-8.364" stroke="#B2D3DD"/><text opacity=".5" font-family="MuseoSansCyrl-300, Museo Sans Cyrl" font-size="20" font-weight="300" fill="#090909"><tspan x="5" y="168">Действующий бизнес</tspan></text><text opacity=".5" font-family="MuseoSansCyrl-300, Museo Sans Cyrl" font-size="20" font-weight="300" fill="#090909"><tspan x="5" y="687">Стартапы</tspan></text><rect fill="#F86933" x="5" y="222" width="9" height="9" rx="4.5"/><rect fill="#F86933" x="21" y="222" width="9" height="9" rx="4.5"/><rect fill="#D8D8D8" opacity=".8" x="37" y="222" width="9" height="9" rx="4.5"/><rect fill="#D8D8D8" opacity=".8" x="53" y="222" width="9" height="9" rx="4.5"/><rect fill="#D8D8D8" opacity=".8" x="69" y="222" width="9" height="9" rx="4.5"/><rect fill="#D8D8D8" x="85" y="222" width="9" height="9" rx="4.5"/><rect fill="#D8D8D8" x="101" y="222" width="9" height="9" rx="4.5"/><rect fill="#D8D8D8" x="117" y="222" width="9" height="9" rx="4.5"/><rect fill="#D8D8D8" x="133" y="222" width="9" height="9" rx="4.5"/><rect fill="#D8D8D8" x="149" y="222" width="9" height="9" rx="4.5"/><rect fill="#4BB1F5" x="5" y="275" width="9" height="9" rx="4.5"/><rect fill="#4BB1F5" x="21" y="275" width="9" height="9" rx="4.5"/><rect fill="#4BB1F5" x="37" y="275" width="9" height="9" rx="4.5"/><rect fill="#4BB1F5" x="53" y="275" width="9" height="9" rx="4.5"/><rect fill="#4BB1F5" x="69" y="275" width="9" height="9" rx="4.5"/><rect fill="#D8D8D8" x="85" y="275" width="9" height="9" rx="4.5"/><rect fill="#D8D8D8" x="101" y="275" width="9" height="9" rx="4.5"/><rect fill="#D8D8D8" x="117" y="275" width="9" height="9" rx="4.5"/><rect fill="#D8D8D8" x="133" y="275" width="9" height="9" rx="4.5"/><rect fill="#D8D8D8" x="149" y="275" width="9" height="9" rx="4.5"/><text opacity=".8" font-family="PTMono-Regular, PT Mono" font-size="12" fill="#090909"><tspan x="5" y="201">Риски</tspan></text><text opacity=".8" font-family="PTMono-Regular, PT Mono" font-size="12" fill="#090909"><tspan x="5.6" y="253">Прибыль</tspan></text><rect fill="#F86933" x="5" y="741" width="9" height="9" rx="4.5"/><rect fill="#F86933" x="21" y="741" width="9" height="9" rx="4.5"/><rect fill="#F86933" x="37" y="741" width="9" height="9" rx="4.5"/><rect fill="#F86933" x="53" y="741" width="9" height="9" rx="4.5"/><rect fill="#F86933" x="69" y="741" width="9" height="9" rx="4.5"/><rect fill="#F86933" x="85" y="741" width="9" height="9" rx="4.5"/><rect fill="#F86933" x="101" y="741" width="9" height="9" rx="4.5"/><rect fill="#F86933" x="117" y="741" width="9" height="9" rx="4.5"/><rect fill="#E6E6E6" x="133" y="741" width="9" height="9" rx="4.5"/><rect fill="#E6E6E6" x="149" y="741" width="9" height="9" rx="4.5"/><rect fill="#4BB1F5" x="5" y="794" width="9" height="9" rx="4.5"/><rect fill="#4BB1F5" x="21" y="794" width="9" height="9" rx="4.5"/><rect fill="#4BB1F5" x="37" y="794" width="9" height="9" rx="4.5"/><rect fill="#4BB1F5" x="53" y="794" width="9" height="9" rx="4.5"/><rect fill="#4BB1F5" x="69" y="794" width="9" height="9" rx="4.5"/><rect fill="#4BB1F5" x="85" y="794" width="9" height="9" rx="4.5"/><rect fill="#4BB1F5" x="101" y="794" width="9" height="9" rx="4.5"/><rect fill="#4BB1F5" x="117" y="794" width="9" height="9" rx="4.5"/><rect fill="#4BB1F5" x="133" y="794" width="9" height="9" rx="4.5"/><rect fill="#4BB1F5" x="149" y="794" width="9" height="9" rx="4.5"/><text opacity=".8" font-family="PTMono-Regular, PT Mono" font-size="12" fill="#090909"><tspan x="5" y="720">Риски</tspan></text><text opacity=".8" font-family="PTMono-Regular, PT Mono" font-size="12" fill="#090909"><tspan x="5.6" y="772">Прибыль</tspan></text><use stroke="#1E9DF2" mask="url(#bv)" stroke-width="2" xlink:href="#ae"/><use stroke="#1E9DF2" mask="url(#bw)" stroke-width="2" xlink:href="#af"/><use stroke="#1E9DF2" mask="url(#bx)" stroke-width="2" xlink:href="#ag"/><path d="M621 371h19m-48 0h19" stroke="#1E9DF2"/><text opacity=".8" font-family="PTMono-Regular, PT Mono" font-size="13" fill="#000"><tspan x="510" y="415">Владение долей</tspan> <tspan x="510" y="433">бизнеса</tspan></text><text font-family="PTMono-Regular, PT Mono" font-size="30" fill="#1E9DF2"><tspan x="510" y="389">B3</tspan></text><path d="M117 341s133-127 340-164m-10.104 4.854L457 177l-11.16-1.053M374 342s31-72 103-119" stroke="#B2D3DD"/><path d="M469.596 231.416L477 223l-10.684 3.391M616 342s-3.646-45-26-85" stroke="#B2D3DD"/><path d="M597.887 264.964L590 257l2.65 10.891" stroke="#B2D3DD"/><use stroke="#1E9DF2" mask="url(#by)" stroke-width="2" xlink:href="#ah"/><use stroke="#1E9DF2" mask="url(#bz)" stroke-width="2" xlink:href="#ai"/><use stroke="#1E9DF2" mask="url(#bA)" stroke-width="2" xlink:href="#aj"/><path d="M621 890h19m-48 0h19" stroke="#1E9DF2"/><text opacity=".8" font-family="PTMono-Regular, PT Mono" font-size="13" fill="#000"><tspan x="510" y="934">Инвесторы — владельцы</tspan> <tspan x="510" y="952">доли в проекте</tspan></text><text font-family="PTMono-Regular, PT Mono" font-size="30" fill="#1E9DF2"><tspan x="510" y="908">S2</tspan></text><path d="M374 861s31-72 103-119m-7.404 8.416L477 742l-10.684 3.391M616 861s-3.646-45-26-85" stroke="#B2D3DD"/><path d="M597.887 783.964L590 776l2.65 10.891" stroke="#B2D3DD"/><text opacity=".8" font-family="PTMono-Regular, PT Mono" font-size="13" fill="#000"><tspan x="0" y="415">Доход в виде процента</tspan> <tspan x="0" y="433">от инвестиций</tspan></text><text font-family="PTMono-Regular, PT Mono" font-size="30" fill="#1E9DF2"><tspan x="0" y="389">B1</tspan></text><use stroke="#1E9DF2" mask="url(#bB)" stroke-width="2" fill="#FFF" xlink:href="#ak"/><path d="M95 348v30m36-30v30" stroke="#1E9DF2"/><use stroke="#1E9DF2" mask="url(#bC)" stroke-width="2" fill="#FFF" xlink:href="#al"/><path d="M91 352v30m36-30v30" stroke="#1E9DF2"/><use stroke="#1E9DF2" mask="url(#bD)" stroke-width="2" fill="#FFF" xlink:href="#am"/><path d="M87 356v30m36-30v30" stroke="#1E9DF2"/><circle stroke="#1E9DF2" cx="106" cy="371" r="10"/><path d="M107.844 373.854h-3.262v2.296h-.812v-2.296H103v-.644h.77v-1.54H103v-.644h.77v-4.83a10.98 10.98 0 0 1 2.142-.196c2.128 0 2.814 1.484 2.814 2.66 0 1.19-.616 3.01-3.304 3.01h-.84v1.54h3.262v.644zm-.014-5.152c0-1.26-.658-2.03-2.156-2.03-.56 0-1.092.112-1.092.112v4.242s.294.014.784.014c1.946 0 2.464-1.12 2.464-2.338z" stroke="#1E9DF2" stroke-width=".5" fill="#1E9DF2"/><use stroke="#1E9DF2" mask="url(#bE)" stroke-width="2" xlink:href="#an"/><text font-family="PTMono-Regular, PT Mono" font-size="30" fill="#1E9DF2"><tspan x="264" y="389">B2</tspan></text><text opacity=".8" font-family="PTMono-Regular, PT Mono" font-size="13" fill="#000"><tspan x="264" y="415">Опцион на получение</tspan> <tspan x="264" y="433">части прибыли</tspan></text><use stroke="#1E9DF2" mask="url(#bF)" stroke-width="2" xlink:href="#ao"/><ellipse stroke="#1E9DF2" fill="#FFF" cx="374" cy="360" rx="6" ry="6"/><path d="M358 378h31m-23 6h15" stroke="#1E9DF2"/><path d="M359 351l-13 13" stroke="#1E9DF2" stroke-linecap="square"/><use stroke="#1E9DF2" mask="url(#bG)" stroke-width="2" xlink:href="#ap"/><text font-family="PTMono-Regular, PT Mono" font-size="30" fill="#1E9DF2"><tspan x="264" y="908">S1</tspan></text><text opacity=".8" font-family="PTMono-Regular, PT Mono" font-size="13" fill="#000"><tspan x="264" y="934">Доход в виде</tspan> <tspan x="264" y="952">процента от доходов</tspan></text><use stroke="#1E9DF2" mask="url(#bH)" stroke-width="2" xlink:href="#aq"/><ellipse stroke="#1E9DF2" fill="#FFF" cx="374" cy="879" rx="6" ry="6"/><path d="M358 897h31m-23 6h15" stroke="#1E9DF2"/><path d="M359 870l-13 13" stroke="#1E9DF2" stroke-linecap="square"/></g></svg>