<svg width="48" height="48" viewBox="0 0 48 48" xmlns="http://www.w3.org/2000/svg" xmlns:xlink="http://www.w3.org/1999/xlink"><title>Group 25</title><defs><path id="a" d="M25.942 0H0v20.923h25.942z"/></defs><g fill="none" fill-rule="evenodd"><rect fill="#00C1FF" width="48" height="48" rx="3"/><g transform="translate(12 14)"><mask id="b" fill="#fff"><use xlink:href="#a"/></mask><path d="M25.942 2.477c-.954.42-1.98.704-3.057.831a5.304 5.304 0 0 0 2.34-2.922 10.705 10.705 0 0 1-3.38 1.282A5.334 5.334 0 0 0 17.962 0c-2.94 0-5.323 2.365-5.323 5.282 0 .414.047.817.138 1.203A15.149 15.149 0 0 1 1.806.967a5.227 5.227 0 0 0-.72 2.655c0 1.833.939 3.45 2.367 4.397a5.332 5.332 0 0 1-2.41-.661l-.001.066c0 2.56 1.835 4.694 4.27 5.18a5.372 5.372 0 0 1-2.404.09 5.323 5.323 0 0 0 4.972 3.668 10.73 10.73 0 0 1-6.61 2.261c-.43 0-.854-.025-1.27-.073a15.149 15.149 0 0 0 8.159 2.373c9.79 0 15.143-8.049 15.143-15.029 0-.229-.005-.457-.016-.683a10.772 10.772 0 0 0 2.656-2.734" fill="#FEFEFE" mask="url(#b)"/></g></g></svg>