
<svg width="27px" height="16px" viewBox="213 5 27 16" version="1.1" xmlns="http://www.w3.org/2000/svg" xmlns:xlink="http://www.w3.org/1999/xlink">
  <!-- Generator: Sketch 40.3 (33839) - http://www.bohemiancoding.com/sketch -->
  <desc>Created with Sketch.</desc>
  <defs></defs>
  <path d="M239.856806,19.5466464 C239.824112,19.4780381 239.793634,19.4211282 239.765323,19.3755332 C239.296874,18.5540074 238.401682,17.5456427 237.080287,16.3501514 L237.052369,16.3227752 L237.038386,16.3093508 L237.024254,16.2955908 L237.010074,16.2955908 C236.410357,15.7389094 236.030586,15.3646082 235.871548,15.1729748 C235.580553,14.8079268 235.515362,14.43842 235.6744,14.0640229 C235.786761,13.7811515 236.208827,13.1837654 236.939615,12.2710496 C237.324014,11.7873395 237.628451,11.3996618 237.853271,11.1075851 C239.474721,9.00858323 240.177689,7.66729324 239.962028,7.08318773 L239.878274,6.94669028 C239.821995,6.86451374 239.676744,6.78933706 239.442716,6.7207767 C239.208148,6.65236017 238.908339,6.64104531 238.542748,6.68664035 L234.494219,6.71387272 C234.428634,6.691243 234.334984,6.69335255 234.212973,6.7207767 C234.091109,6.74820084 234.030153,6.76196086 234.030153,6.76196086 L233.959694,6.79624104 L233.90376,6.8374252 C233.856885,6.86465757 233.805333,6.91255393 233.749054,6.98101841 C233.693071,7.04924316 233.646246,7.12931015 233.608825,7.22054817 C233.168048,8.32475355 232.666906,9.35138503 232.104463,10.3003947 C231.757681,10.8662814 231.439211,11.3567037 231.148363,11.7719494 C230.857909,12.1870512 230.614232,12.4928879 230.417576,12.6889322 C230.220625,12.8851683 230.042876,13.0423776 229.883247,13.1611357 C229.723864,13.2799417 229.602198,13.3301394 229.517952,13.3117767 C229.433509,13.293414 229.35399,13.2751952 229.278705,13.2569764 C229.147585,13.1747998 229.042118,13.0630416 228.962599,12.9216059 C228.882735,12.7801702 228.828967,12.602153 228.800853,12.3876981 C228.772886,12.1730994 228.756342,11.9885138 228.751615,11.8333181 C228.747233,11.6783141 228.749251,11.4590648 228.758754,11.1761934 C228.768503,10.8931781 228.772886,10.7016885 228.772886,10.6012932 C228.772886,10.254464 228.779828,9.87805327 228.793762,9.47196497 C228.807943,9.06587667 228.819415,8.74412242 228.829017,8.50708576 C228.838569,8.26980937 228.843,8.01877297 228.843,7.75412039 C228.843,7.4894678 228.826456,7.28191689 228.793762,7.13127587 C228.761462,6.98082663 228.71188,6.83478827 228.646541,6.69320872 C228.580809,6.55177301 228.484598,6.4423641 228.358353,6.36469432 C228.231861,6.28712043 228.074595,6.22555993 227.887442,6.17982106 C227.390682,6.07036421 226.758124,6.01115298 225.989473,6.00194768 C224.246406,5.98372884 223.126393,6.09332953 222.629682,6.33060591 C222.432879,6.43085746 222.254786,6.56783435 222.095551,6.74110509 C221.926813,6.9419438 221.903277,7.05154449 222.025091,7.06957155 C222.587486,7.15160426 222.985622,7.34784031 223.219945,7.65808794 L223.304388,7.82248897 C223.370071,7.94110319 223.435656,8.15109926 223.50129,8.45218952 C223.566825,8.75327978 223.609121,9.08634889 223.627733,9.45120508 C223.674508,10.1174871 223.674508,10.6878326 223.627733,11.1622895 C223.580809,11.6369382 223.536495,12.006445 223.4942,12.2710976 C223.451904,12.5357501 223.388683,12.750205 223.304388,12.9144143 C223.219945,13.0786715 223.163765,13.1790669 223.135601,13.2155045 C223.107486,13.2519422 223.084049,13.2749075 223.065437,13.2839211 C222.943623,13.3293723 222.816934,13.3525294 222.685813,13.3525294 C222.554496,13.3525294 222.395261,13.2885717 222.207862,13.1607521 C222.020512,13.0329326 221.826072,12.8573606 221.624542,12.6337483 C221.423012,12.4100881 221.19573,12.0975392 220.942598,11.6960535 C220.689664,11.2945679 220.427226,10.820063 220.155434,10.272539 L219.930565,9.87546427 C219.789991,9.620017 219.597963,9.24806505 219.354286,8.75994404 C219.11046,8.27163126 218.894946,7.79928393 218.707596,7.34299794 C218.632706,7.15136454 218.520197,7.00547 218.370268,6.90507462 L218.299907,6.86389046 C218.253131,6.82745279 218.178044,6.78876173 218.075038,6.74752962 C217.971885,6.70634546 217.864251,6.67681177 217.751694,6.65864087 L213.89987,6.68587324 C213.506263,6.68587324 213.239197,6.77270039 213.098574,6.94611495 L213.042295,7.02814766 C213.01418,7.07383859 213,7.14680983 213,7.24725315 C213,7.34764854 213.028115,7.47086541 213.084394,7.61675994 C213.646689,8.90358519 214.258173,10.1446236 214.918846,11.340067 C215.579519,12.5355104 216.153632,13.4984719 216.64084,14.2280883 C217.128146,14.9582322 217.624857,15.6473358 218.130972,16.2950634 C218.637088,16.9430307 218.972102,17.3582764 219.136014,17.5407045 C219.300124,17.7234682 219.429029,17.8601095 219.522728,17.9513475 L219.874237,18.2798139 C220.099155,18.4988715 220.429442,18.7612227 220.865246,19.0668677 C221.301148,19.3727045 221.783728,19.6737947 222.313231,19.9706179 C222.842833,20.2669617 223.458945,20.5087928 224.161913,20.6958235 C224.864783,20.8830461 225.548893,20.9581748 226.214342,20.9219289 L227.831016,20.9219289 C228.15889,20.8943609 228.407295,20.7939655 228.576131,20.6206948 L228.632065,20.5520865 C228.669683,20.4976218 228.704888,20.4130001 228.737385,20.2991323 C228.770276,20.1850728 228.786623,20.0594108 228.786623,19.9227216 C228.777022,19.5303933 228.807697,19.176804 228.877811,18.8620017 C228.947877,18.5472952 229.02774,18.3100189 229.117058,18.1502205 C229.206326,17.9905659 229.307066,17.8558424 229.419181,17.7466253 C229.531542,17.6371684 229.611602,17.5708614 229.658575,17.54804 C229.705253,17.5250746 229.742526,17.5094927 229.77064,17.5001436 C229.995559,17.4271724 230.260261,17.4978423 230.565141,17.7124889 C230.869776,17.9269438 231.155503,18.1917402 231.422765,18.5064467 C231.68988,18.8214408 232.010812,19.1748383 232.385611,19.5671666 C232.760655,19.9596387 233.088579,20.2513798 233.369628,20.4433009 L233.650677,20.6075581 C233.838372,20.7171588 234.08205,20.8175541 234.382006,20.9087922 C234.681421,20.9999822 234.94376,21.0228037 235.169023,20.9772087 L238.767666,20.9225522 C239.123606,20.9225522 239.400569,20.8651628 239.597028,20.7512951 C239.79388,20.6372356 239.91082,20.5115736 239.948536,20.3748843 C239.986154,20.2380513 239.988173,20.0828076 239.955676,19.9092492 C239.922342,19.7361223 239.8895,19.6150629 239.856806,19.5466464 Z" id="Shape" stroke="none" fill="#49AAEE" fill-rule="evenodd"></path>
</svg>
