<svg id="Слой_1" xmlns="http://www.w3.org/2000/svg" viewBox="-211 402.9 172 36" enable-background="new -211 402.9 172 36"><style>.st0{filter:url(#Adobe_OpacityMaskFilter)}.st1{fill:#fff}.st2{mask:url(#mask-2)}.st2,.st3{fill:#221f20}.st4{filter:url(#Adobe_OpacityMaskFilter_1_)}.st5{mask:url(#mask-4);fill:#221f20}</style><title>М</title><g id="Page-1"><g id="main" transform="translate(-1032 -8140)"><g id="подвал" transform="translate(74 8079)"><g id="М" transform="translate(958 60)"><g id="Group-3" transform="translate(0 .01)"><defs><filter id="Adobe_OpacityMaskFilter" filterUnits="userSpaceOnUse" x="-211" y="403.9" width="36" height="36"><feColorMatrix values="1 0 0 0 0 0 1 0 0 0 0 0 1 0 0 0 0 0 1 0"/></filter></defs><mask maskUnits="userSpaceOnUse" x="-211" y="403.9" width="36" height="36" id="mask-2"><g class="st0"><path id="path-1" class="st1" d="M-175 403.9h-36v36h36z"/></g></mask><path id="Fill-1" class="st2" d="M-183.4 426.8h-7.1V425l1.8-.6-.4-7.6-3.8 9h-2l-3.9-8.9-.3 7.5 2.1.4v1.9h-6.6v-1.9l2.1-.5.8-10.3-2-.6.1-1.7h5.5c.1.4 3.7 9.3 3.7 9.3l3.8-9.3h5.4v1.8l-2 .5.8 10.3 2.1.5-.1 2zm-20.3 5h20.4v-3h-20.4v3zm-7.3 8.1h36v-36h-36v36z"/></g><path id="Fill-4" class="st3" d="M-161.8 426.6h2.7V421l2.5 3.8 2.5-3.8v5.6h2.7v-9.8h-2.8l-2.4 3.8-2.3-3.8h-2.9z"/><path id="Fill-6" class="st3" d="M-145.4 422.8l1.1-2.8 1.1 2.8h-2.2zm-4.3 3.8h2.9l.7-1.8h3.8l.7 1.8h2.9l-4.2-9.9h-2.6l-4.2 9.9z"/><path id="Fill-8" class="st3" d="M-137.1 426.6h2.7v-3.7h3.5v3.7h2.7v-9.8h-2.7v3.7h-3.5v-3.7h-2.7z"/><path id="Fill-10" class="st3" d="M-123.4 426.8c1.5 0 2.4-.7 3.3-2.5l3.8-7.5h-3l-2.1 4.6-2.2-4.6h-3l3.8 7.2c-.3.3-.6.4-.9.4-.3 0-.7-.1-1.1-.3l-1.1 2c.8.4 1.5.7 2.5.7"/><path id="Fill-12" class="st3" d="M-108.1 423.5v-3.9c1.3 0 2.2.7 2.2 1.9 0 1.4-.9 2-2.2 2zm-2.7 0c-1.3 0-2.2-.7-2.2-1.9s.9-1.9 2.2-1.9v3.8zm0 3.5h2.7v-1.1c3.2 0 5-1.9 5-4.4 0-2.5-1.8-4.3-5-4.3v-.9h-2.7v.9c-3.2 0-5 1.8-5 4.3s1.8 4.4 5 4.4v1.1z"/><path id="Fill-14" class="st3" d="M-98 422.8l1.1-2.8 1.1 2.8H-98zm-4.4 3.8h2.9l.7-1.8h3.8l.7 1.8h2.9l-4.2-9.9h-2.6l-4.2 9.9z"/><path id="Fill-16" class="st3" d="M-89.8 426.6h2.7v-2.5l1-1.1 2.5 3.6h3.3l-3.9-5.6 3.7-4.2h-3.2l-3.4 4v-4h-2.7z"/><path id="Fill-18" class="st3" d="M-76.5 426.6h2.7v-7.4h3v-2.4h-8.6v2.4h2.9z"/><path id="Fill-20" class="st3" d="M-66.6 426.8c1.5 0 2.4-.7 3.3-2.5l3.8-7.5h-3l-2.1 4.6-2.2-4.6h-3l3.8 7.2c-.3.3-.6.4-.9.4-.3 0-.7-.1-1.1-.3l-1.1 2c.8.4 1.5.7 2.5.7"/><path id="Fill-22" class="st3" d="M-55.2 421.7v-2.6h1.3c1 0 1.6.4 1.6 1.3 0 .8-.6 1.3-1.6 1.3h-1.3zm-2.7 4.9h2.7v-2.8h1.3c2.4 0 4.2-1.2 4.2-3.5 0-2.2-1.6-3.5-4.1-3.5H-58v9.8z"/><g id="Group-26" transform="translate(163 13.01)"><defs><filter id="Adobe_OpacityMaskFilter_1_" filterUnits="userSpaceOnUse" x="-210.8" y="403.8" width="8" height="9.8"><feColorMatrix values="1 0 0 0 0 0 1 0 0 0 0 0 1 0 0 0 0 0 1 0"/></filter></defs><mask maskUnits="userSpaceOnUse" x="-210.8" y="403.8" width="8" height="9.8" id="mask-4"><g class="st4"><path id="path-3" class="st1" d="M-202.8 413.6v-9.8h-8v9.8z"/></g></mask><path id="Fill-24" class="st5" d="M-210.8 413.6h8v-2.3h-5.3v-1.6h4.7v-2.1h-4.7v-1.5h5.2v-2.3h-7.9z"/></g><path id="Fill-27" class="st3" d="M-158.3 410.7c1 0 1.6-.4 2.2-.9l-.6-.6c-.5.4-.9.7-1.5.7-1 0-1.8-.9-1.8-1.9 0-1.1.7-1.9 1.8-1.9.6 0 1.1.3 1.5.7l.6-.7c-.5-.5-1.1-.8-2.1-.8-1.6 0-2.8 1.2-2.8 2.8 0 1.4 1.1 2.6 2.7 2.6"/><path id="Fill-29" class="st3" d="M-153.9 409.8c.4-.7.6-1.8.6-3.1v-.6h1.9v3.7h-2.5zm-1.5 2h.8l.1-1.1h3.8v1.1h.8l.1-2h-.7v-4.5h-3.7v.8c0 1.8-.2 2.9-.7 3.8h-.5v1.9z"/><path id="Fill-31" class="st3" d="M-148.6 410.6h4v-.8h-3v-1.5h2.7v-.8h-2.7v-1.4h3v-.8h-4z"/><path id="Fill-33" class="st3" d="M-143.1 410.7c1.1 0 1.7-.7 1.7-4.1v-.5h1.9v4.5h.9v-5.4h-3.7v1.1c0 3.2-.5 3.6-1 3.6h-.3l-.1.8c.1-.1.4 0 .6 0"/><path id="Fill-35" class="st3" d="M-135.4 408.5l.9-2.1.9 2.1h-1.8zm-1.9 2.1h1l.6-1.3h2.5l.5 1.3h1l-2.4-5.4h-.9l-2.3 5.4z"/><path id="Fill-37" class="st3" d="M-130.4 410.6h.9v-2.2h2.6v2.2h.9v-5.3h-.9v2.2h-2.6v-2.2h-.9z"/><path id="Fill-39" class="st3" d="M-121.6 409.8c-1.1 0-1.8-.9-1.8-1.9 0-1.1.7-1.9 1.8-1.9s1.8.9 1.8 1.9c0 1.1-.8 1.9-1.8 1.9m0 .9c1.6 0 2.8-1.3 2.8-2.8 0-1.5-1.1-2.8-2.8-2.8-1.6 0-2.8 1.3-2.8 2.8 0 1.6 1.1 2.8 2.8 2.8"/><path id="Fill-41" class="st3" d="M-113.7 409.8v-1.5h1.5c.7 0 1.1.3 1.1.7 0 .5-.4.8-1 .8h-1.6zm0-2.3v-1.4h1.4c.6 0 .9.3.9.7 0 .5-.4.7-1 .7h-1.3zm-.9 3.1h2.5c1.2 0 2-.5 2-1.5 0-.7-.4-1.1-1.1-1.3.4-.2.8-.6.8-1.2 0-.4-.1-.7-.4-.9-.3-.3-.8-.5-1.4-.5h-2.4v5.4z"/><path id="Fill-43" class="st3" d="M-162.1 439.6h4.6v-1h-3l1.3-1.1c1.1-.9 1.6-1.5 1.6-2.5 0-1.1-.9-1.9-2.1-1.9-1.1 0-1.7.5-2.3 1.3l.8.6c.5-.6.9-.9 1.5-.9s1 .4 1 1-.3 1-1.2 1.7l-2.2 1.9v.9z"/><path id="Fill-45" class="st3" d="M-153.2 438.7c-1 0-1.6-1-1.6-2.3 0-1.3.6-2.3 1.6-2.3s1.6 1 1.6 2.3c0 1.3-.6 2.3-1.6 2.3m0 1c1.7 0 2.8-1.5 2.8-3.3 0-1.8-1.1-3.3-2.7-3.3-1.7 0-2.8 1.5-2.8 3.3-.1 1.9 1 3.3 2.7 3.3"/><path id="Fill-47" class="st3" d="M-147.9 439.6h1.1v-6.4h-.8l-1.7.6.3.9 1.1-.3z"/><path id="Fill-49" class="st3" d="M-142.4 438.8c-.8 0-1.3-.5-1.3-1.1 0-.6.5-1.1 1.3-1.1s1.3.5 1.3 1.1c-.1.6-.6 1.1-1.3 1.1m0 .9c1.3 0 2.4-.9 2.4-2.2 0-1.3-1-2-2.2-2-.7 0-1.2.3-1.5.6.1-1.2.6-2 1.5-2 .6 0 .9.2 1.4.6l.6-.9c-.6-.4-1.1-.7-1.9-.7-1.8 0-2.7 1.5-2.7 3.4 0 1.3.3 2 .8 2.4.2.6.8.8 1.6.8"/></g></g></g></g></svg>