<?xml version="1.0" encoding="utf-8"?>
<!-- Generated by IcoMoon.io -->
<!DOCTYPE svg PUBLIC "-//W3C//DTD SVG 1.1//EN" "http://www.w3.org/Graphics/SVG/1.1/DTD/svg11.dtd">
<svg version="1.1" xmlns="http://www.w3.org/2000/svg" xmlns:xlink="http://www.w3.org/1999/xlink" width="315" height="15" viewBox="0 0 315 15">
<svg id="icon-sliderslider-arrow-right" width="26" height="15" viewBox="0 0 26 15" x="0" y="0">
<path fill="#ffffff" opacity="0.4" d="M23.504 6.466l-5.991-5.991 0.731-0.731 7.313 7.313-7.313 7.313-0.731-0.731 6.138-6.138h-24.095v-1.034h23.948z"></path>
</svg>
<svg id="icon-sliderslider-arrow-right-color" width="26" height="15" viewBox="0 0 26 15" x="40" y="0">
<path fill="#ffffff" d="M23.157 6.5l-5.793-5.793 0.707-0.707 7.071 7.071-7.071 7.071-0.707-0.707 5.935-5.935h-23.299v-1h23.157z"></path>
</svg>
<svg id="icon-sliderslider-arrow-left" width="26" height="15" viewBox="0 0 26 15" x="80" y="0">
<path fill="#ffffff" opacity="0.4" d="M2.843 6.5l5.793-5.793-0.707-0.707-7.071 7.071 7.071 7.071 0.707-0.707-5.935-5.935h23.299v-1h-23.157z"></path>
</svg>
<svg id="icon-sliderslider-arrow-left-color" width="26" height="15" viewBox="0 0 26 15" x="120" y="0">
<path fill="#ffffff" d="M2.843 6.5l5.793-5.793-0.707-0.707-7.071 7.071 7.071 7.071 0.707-0.707-5.935-5.935h23.299v-1h-23.157z"></path>
</svg>
</svg>
