<svg width="172" height="36" viewBox="0 0 172 36" xmlns="http://www.w3.org/2000/svg" xmlns:xlink="http://www.w3.org/1999/xlink"><title>лю</title><defs><path id="a" d="M35.98.991H0V37h35.98V.99z"/><path id="c" d="M8.152 10.721v-9.8H.199v9.8h7.953z"/></defs><g fill="none" fill-rule="evenodd"><g transform="translate(0 -.99)"><mask id="b" fill="#fff"><use xlink:href="#a"/></mask><path d="M27.622 23.938h-7.103l-.04-1.79 1.792-.554-.366-7.583-3.805 9.024h-2.04l-3.9-8.882-.331 7.459 2.093.434-.04 1.892H7.317l-.04-1.85 2.06-.522.804-10.278-1.955-.57.122-1.712c.285.003 5.249.003 5.53 0 .102.443 3.736 9.284 3.736 9.284l3.834-9.284c.237.008 5.09.003 5.352 0l.04 1.77-1.977.512.766 10.296 2.076.462-.043 1.892zM7.272 28.92h20.373v-2.977H7.272v2.977zM0 37h35.98V.99H0V37z" fill="#221F20" mask="url(#b)"/></g><path fill="#221F20" d="M49.226 22.73h2.66v-5.6l2.492 3.809h.056l2.507-3.837v5.628h2.702v-9.8h-2.87l-2.339 3.794-2.338-3.794h-2.87zM65.648 18.866l1.106-2.786 1.093 2.786h-2.198zm-4.353 3.864h2.855l.7-1.75h3.78l.715 1.75h2.912l-4.172-9.87h-2.618l-4.172 9.87zM73.908 22.73h2.716v-3.724h3.486v3.724h2.717v-9.8H80.11v3.669h-3.486v-3.67h-2.716zM87.558 22.87c1.512 0 2.422-.713 3.318-2.463l3.822-7.477h-2.954l-2.1 4.607-2.226-4.607h-3.024l3.836 7.239c-.294.336-.616.42-.854.42-.294 0-.728-.084-1.106-.336l-1.064 1.96a4.464 4.464 0 0 0 2.352.658M102.903 19.65v-3.864c1.287 0 2.183.7 2.183 1.918 0 1.26-.895 1.946-2.183 1.946zm-2.73 0c-1.288 0-2.184-.686-2.184-1.946 0-1.218.895-1.918 2.183-1.918v3.864zm0 3.5h2.73v-1.092c3.177 0 4.97-1.876 4.97-4.396 0-2.492-1.82-4.284-4.97-4.284v-.868h-2.73v.868c-3.15 0-4.972 1.792-4.972 4.284 0 2.52 1.794 4.396 4.972 4.396v1.092zM112.954 18.866l1.106-2.786 1.092 2.786h-2.198zM108.6 22.73h2.856l.7-1.75h3.78l.714 1.75h2.912l-4.172-9.87h-2.618l-4.172 9.87zM121.214 22.73h2.716v-2.534l.994-1.106 2.464 3.64h3.263l-3.837-5.585 3.71-4.215h-3.22l-3.374 3.977V12.93h-2.716zM134.528 22.73h2.716v-7.42h2.94v-2.38h-8.596v2.38h2.94zM144.37 22.87c1.512 0 2.422-.713 3.318-2.463l3.823-7.477h-2.955l-2.1 4.607-2.226-4.607h-3.024l3.836 7.239c-.294.336-.616.42-.854.42-.294 0-.728-.084-1.106-.336l-1.064 1.96a4.464 4.464 0 0 0 2.352.658M155.794 17.802v-2.59h1.274c.98 0 1.568.448 1.568 1.288 0 .798-.588 1.302-1.554 1.302h-1.288zm-2.716 4.928h2.716v-2.8h1.344c2.436 0 4.214-1.218 4.214-3.528 0-2.198-1.596-3.472-4.074-3.472h-4.2v9.8z"/><g transform="translate(163 12.01)"><mask id="d" fill="#fff"><use xlink:href="#c"/></mask><path fill="#221F20" mask="url(#d)" d="M.2 10.721h7.952v-2.31H2.887V6.857h4.705V4.715H2.887V3.231h5.195V.921H.2z"/></g><path d="M52.677 6.822c1.003 0 1.615-.367 2.174-.949l-.605-.612c-.459.428-.88.696-1.538.696-1.026 0-1.768-.857-1.768-1.905 0-1.064.742-1.906 1.768-1.906.612 0 1.071.268 1.5.666l.604-.697c-.513-.49-1.109-.834-2.097-.834-1.622 0-2.763 1.247-2.763 2.771 0 1.553 1.164 2.77 2.725 2.77M57.13 5.889c.367-.742.582-1.814.582-3.054v-.612h1.89v3.666h-2.471zm-1.523 1.99h.827l.092-1.148h3.772v1.148h.782l.13-1.99h-.666V1.374h-3.735v.757c0 1.79-.237 2.878-.681 3.758h-.52v1.99zM62.433 6.73h4.01v-.842h-3.069V4.45h2.687v-.841h-2.687V2.215h3.031v-.841h-3.972zM67.943 6.792c1.056 0 1.676-.681 1.676-4.087v-.482h1.852V6.73h.94V1.373H68.74V2.43c0 3.206-.505 3.55-1.05 3.55a1.08 1.08 0 0 1-.305-.045l-.092.773c.146.038.444.084.65.084M75.58 4.603l.918-2.143.926 2.143H75.58zM73.72 6.73h.965l.55-1.294h2.534l.543 1.294h.995L76.95 1.335h-.873L73.72 6.73zM80.607 6.73h.941V4.473h2.557V6.73h.941V1.373h-.941v2.228h-2.557V1.373h-.941zM89.377 5.958c-1.064 0-1.822-.865-1.822-1.906 0-1.056.743-1.905 1.807-1.905 1.063 0 1.82.864 1.82 1.905 0 1.056-.741 1.906-1.805 1.906m-.015.865c1.645 0 2.809-1.263 2.809-2.771 0-1.523-1.15-2.77-2.794-2.77-1.645 0-2.81 1.263-2.81 2.77 0 1.523 1.149 2.77 2.795 2.77M97.296 5.896V4.427h1.492c.743 0 1.102.268 1.102.72 0 .497-.39.75-1.033.75h-1.56zm0-2.265V2.207h1.355c.604 0 .941.26.941.681 0 .505-.406.743-1.01.743h-1.286zm-.926 3.1h2.48c1.193 0 1.982-.513 1.982-1.47 0-.742-.436-1.102-1.064-1.316.398-.207.765-.552.765-1.194 0-.375-.122-.666-.359-.903-.306-.307-.789-.475-1.4-.475H96.37V6.73zM48.944 35.73h4.576v-.976h-3.012l1.303-1.085c1.112-.922 1.646-1.456 1.646-2.451 0-1.148-.85-1.909-2.089-1.909-1.13 0-1.728.48-2.334 1.33l.787.615c.49-.634.887-.95 1.465-.95.58 0 1.022.362 1.022.985 0 .57-.316.977-1.184 1.71l-2.18 1.854v.877zM57.78 34.835c-.986 0-1.62-1.022-1.62-2.27 0-1.275.625-2.27 1.602-2.27.977 0 1.619 1.022 1.619 2.27 0 1.266-.615 2.27-1.601 2.27m-.018 1.004c1.664 0 2.767-1.465 2.767-3.274 0-1.827-1.094-3.274-2.75-3.274-1.663 0-2.766 1.465-2.766 3.274 0 1.827 1.085 3.274 2.749 3.274M63.106 35.73h1.103v-6.375h-.777l-1.7.543.234.904 1.14-.317zM68.55 34.88c-.796 0-1.31-.497-1.31-1.139 0-.624.496-1.13 1.283-1.13.787 0 1.293.47 1.293 1.102 0 .67-.479 1.167-1.266 1.167m.027.96c1.33 0 2.352-.897 2.352-2.154 0-1.284-.986-2.007-2.216-2.007-.742 0-1.176.307-1.51.633.054-1.158.578-2.008 1.52-2.008.551 0 .93.208 1.374.552l.596-.86c-.55-.443-1.112-.705-1.935-.705-1.79 0-2.713 1.51-2.713 3.446 0 1.293.29 1.953.778 2.442.416.416.976.66 1.754.66" fill="#221F20"/></g></svg>