<?xml version="1.0" encoding="UTF-8" standalone="no"?>
<svg width="69px" height="21px" viewBox="0 0 69 21" version="1.1" xmlns="http://www.w3.org/2000/svg" xmlns:xlink="http://www.w3.org/1999/xlink">
    <!-- Generator: Sketch 41.2 (35397) - http://www.bohemiancoding.com/sketch -->
    <title>Visa_Logo</title>
    <desc>Created with Sketch.</desc>
    <defs></defs>
    <g id="Page-1" stroke="none" stroke-width="1" fill="none" fill-rule="evenodd">
        <g id="main_new-copy" transform="translate(-921.000000, -8680.000000)">
            <g id="footer" transform="translate(0.000000, 8581.000000)">
                <g id="подвал" transform="translate(72.000000, 90.000000)">
                    <g id="pay" transform="translate(411.000000, 0.000000)">
                        <g id="Visa_Logo" transform="translate(438.000000, 9.000000)">
                            <g id="Layer_1">
                                <g id="Group">
                                    <polygon id="Shape" fill="#0057A0" points="24.147943 20.6031724 27.6176926 0.351931034 33.1673575 0.351931034 29.6952157 20.6031724"></polygon>
                                    <path d="M49.8231125,0.850551724 C48.7235593,0.440275862 47.0008012,0 44.8492257,0 C39.3656048,0 35.5028159,2.74665517 35.4699499,6.68317241 C35.4390601,9.59306897 38.2275693,11.2163793 40.3326541,12.185069 C42.4927581,13.1776552 43.2190331,13.8107586 43.2087365,14.6971034 C43.1950077,16.0545517 41.4836903,16.6747241 39.8885478,16.6747241 C37.6672881,16.6747241 36.4872342,16.3677931 34.6647342,15.6116897 L33.9495878,15.2897586 L33.1706857,19.8232759 C34.4669145,20.3885172 36.8638405,20.8783448 39.352604,20.9036897 C45.1862057,20.9036897 48.9732781,18.1884828 49.0163367,13.9848621 C49.0372419,11.6811724 47.5586903,9.92793103 44.3569646,8.48265517 C42.4171456,7.54582759 41.2291872,6.92068966 41.241772,5.97206897 C41.241772,5.13031034 42.2473035,4.2302069 44.4198883,4.2302069 C46.2346918,4.20217241 47.5492257,4.5957931 48.5734784,5.00606897 L49.0708359,5.23975862 L49.8231125,0.850551724" id="Shape" fill="#0057A0"></path>
                                    <path d="M64.0539638,0.371275862 L59.7656857,0.371275862 C58.4372149,0.371275862 57.443124,0.731896552 56.8596495,2.05065517 L48.617681,20.6095862 L54.4452504,20.6095862 C54.4452504,20.6095862 55.3981549,18.1142069 55.6136556,17.5663448 C56.2504854,17.5663448 61.9116448,17.5750345 62.7210208,17.5750345 C62.8870146,18.2839655 63.3962288,20.6095862 63.3962288,20.6095862 L68.545782,20.6095862 L64.0539638,0.371275862 L64.0539638,0.371275862 Z M57.2106703,13.4241724 C57.6696495,12.2573793 59.4217373,7.76317241 59.4217373,7.76317241 C59.3889753,7.81706897 59.8772843,6.59068966 60.1575809,5.83034483 L60.5327311,7.57634483 C60.5327311,7.57634483 61.5953621,12.4103793 61.8174153,13.424069 L57.2106703,13.424069 L57.2106703,13.4241724 Z" id="Shape" fill="#0057A0"></path>
                                    <path d="M19.4933552,0.366724138 L14.0600732,14.1765517 L13.4811749,11.3701034 C12.4697149,8.13486207 9.3183282,4.62982759 5.79522342,2.87503448 L10.7632858,20.5856897 L16.6349538,20.5789655 L25.3718875,0.366724138 L19.4933552,0.366724138" id="Shape" fill="#0057A0"></path>
                                    <path d="M9.0196225,0.354206897 L0.0708281972,0.354206897 L0,0.775551724 C6.96206857,2.45182759 11.5688136,6.50275862 13.4810709,11.3701034 L11.5352196,2.06389655 C11.1992797,0.781551724 10.2249499,0.398896552 9.0196225,0.354206897" id="Shape" fill="#FAA61A"></path>
                                </g>
                            </g>
                        </g>
                    </g>
                </g>
            </g>
        </g>
    </g>
</svg>