<svg width="58" height="58" viewBox="0 0 58 58" xmlns="http://www.w3.org/2000/svg" xmlns:xlink="http://www.w3.org/1999/xlink"><title>Group 11</title><defs><circle id="a" cx="25" cy="25" r="25"/><mask id="b" x="-1" y="-1" width="52" height="52"><path fill="#fff" d="M-1-1h52v52H-1z"/><use xlink:href="#a"/></mask></defs><g transform="translate(1 1)" fill="none" fill-rule="evenodd"><g transform="translate(3 3)"><mask id="c" fill="#fff"><use xlink:href="#a"/></mask><use fill="#FFF" xlink:href="#a"/><use stroke="#19395F" mask="url(#b)" stroke-width="2" xlink:href="#a"/><path d="M16.846 14.15c-.127-.08-.205-.168-.257-.155-.071.018-.121.115-.18.177.059.053.119.149.176.147.07-.003.14-.085.261-.169zm-3.638 37.017l.045.067.506-.32c-.012-.023-.023-.045-.036-.067h-.322l-.193.32zm20.524-37.26c-.083.121-.176.2-.161.247.02.07.11.15.184.163.044.009.156-.103.154-.157-.004-.07-.092-.138-.177-.253zm2.883 36.935l-.047.074.51.32c.016-.022.03-.045.047-.067l-.208-.327h-.302zM15.51 16.044c-.301-.097-.601-.197-.905-.287-.16-.048-.247.063-.252.193-.002.074.082.197.15.218.219.066.448.109.675.13.15.013.306-.03.332-.254zm19.31.007c.025.213.176.257.33.246.2-.013.4-.058.6-.1.128-.028.272-.05.233-.249-.04-.204-.173-.23-.336-.18-.277.086-.55.188-.826.283zM17.034 44.035c.012.14.111.28.283.213.216-.085.421-.224.598-.377.131-.11.067-.337-.078-.401-.249-.11-.807.256-.803.565zm15.592-.663c-.12.106-.23.157-.242.228-.02.1-.002.25.062.31.14.128.313.235.49.31.082.033.245.006.296-.055.057-.07.077-.26.027-.308-.185-.177-.405-.317-.633-.485zm12.144 3.74c-.037-.528-.712-1.046-1.151-.896l.349.697.802.2zm-39.222.008l.811-.204.356-.705c-.463-.133-1.11.37-1.167.909zm37.789-2.261l.49.769c.107-.045.225-.111.351-.143.134-.034.276-.037.415-.052-.126-.45-.764-.734-1.256-.574zM6.99 44.86c-.495-.166-1.172.144-1.24.543l.766.204.474-.747zm9.649-1.373c0-.318-.242-.614-.502-.616-.209 0-.429.26-.433.518-.008.305.173.457.548.46.234.003.387-.141.387-.362zm17.04.007c0 .216.163.36.402.355.347-.007.548-.168.553-.44.004-.257-.234-.542-.45-.538-.257.005-.503.31-.505.623zM10.534 16.435c.356.22.686.271 1.027.234.795-.087 1.504-.414 2.184-.811.05-.03.098-.167.086-.177a.63.63 0 0 0-.242-.122c-.034-.009-.088.051-.13.083-.859.615-1.816.872-2.925.793zm25.9-.634c.388.19.744.396 1.124.54.371.14.762.24 1.152.317.36.07.713.012 1.071-.221-1.105.075-2.064-.181-2.918-.802-.206-.15-.313-.088-.43.166zM18.69 42.41c.195-.105.433-.172.575-.326.16-.176-.026-.372-.136-.52-.114-.155-.28-.274-.422-.408-.14.16-.302.307-.412.485-.06.101-.066.259-.046.383.034.217.172.347.44.386zm12.952-.059c.292.01.433-.127.45-.432.015-.288-.275-.758-.472-.763-.172-.003-.593.545-.603.786-.009.221.259.397.625.41zm1.41-.757c.128-.074.271-.112.333-.205.144-.21.026-.772-.185-.927-.066-.05-.208-.075-.266-.037a3.72 3.72 0 0 0-.539.428c-.162.153-.151.334.037.45.184.116.394.188.62.291zm-15.787-.015c.195-.079.403-.136.582-.24.248-.144.253-.351.033-.54-.127-.11-.272-.198-.397-.31-.156-.137-.316-.132-.42.048a2.062 2.062 0 0 0-.207.463c-.075.262.135.535.409.579zm9.897-24.287c.125-.034.222-.046.306-.085.464-.21.851-.523 1.149-.934.062-.087.06-.22.088-.333-.117-.015-.243-.064-.353-.04-.482.1-1.113.828-1.19 1.392zm-3.991-.004c-.1-.601-.762-1.33-1.249-1.4-.095-.014-.242.003-.286.063-.041.056-.004.21.048.285.316.445.722.785 1.233.99.07.027.148.036.254.062zm3.374 5.865l-.066-.023c.011-.255-.095-.348-.343-.293a.475.475 0 0 0-.39.427c-.028.36-.008.723.014 1.083.005.077.105.148.16.222.071-.063.175-.113.204-.191.151-.404.283-.816.421-1.225zm-1.864.586c-.045-.197-.07-.403-.14-.593-.077-.206-.243-.343-.476-.309-.077.011-.198.115-.202.18-.03.523.113 1.008.39 1.449.101.157.235.146.289-.037.065-.22.093-.453.14-.69zm6.375-4.612c0-.311-.027-.622.009-.926.036-.315.141-.622.2-.935.023-.12.017-.25-.004-.372-.03-.174-.163-.234-.29-.123-.125.112-.28.274-.29.421a15.99 15.99 0 0 0-.006 1.641c.007.172.138.305.381.294zm-12.735 24.48c.07.085.152.263.22.258a1.623 1.623 0 0 0 1.036-.44c.12-.117.156-.255.059-.41-.28-.45-.86-.452-1.115.009-.088.159-.122.348-.2.582zm.936-24.474c.287-.045.403-.123.415-.372.026-.487.036-.978 0-1.464-.012-.174-.146-.361-.273-.498-.143-.155-.322-.088-.342.123-.017.2-.004.414.05.608.143.52.26 1.037.15 1.603zm12.727 24.428c-.04-.144-.066-.295-.125-.432-.202-.48-.652-.59-1.036-.262-.248.21-.266.44.001.616.24.157.518.275.794.36.29.09.345.026.366-.282zm-10.91-1.338c-.074-.185-.14-.375-.221-.558-.104-.237-.287-.292-.437-.088-.207.28-.368.599-.51.917-.035.08.045.28.128.331.374.23.995-.146 1.04-.602zm8.987.65c.278-.003.41-.103.374-.326a1.707 1.707 0 0 0-.553-1.007c-.157-.14-.306-.09-.396.096l-.094.192c-.27.566.04 1.05.67 1.045zm-13.345-.171c-.005.335.214.536.548.473.163-.031.315-.125.477-.16.298-.064.33-.274.28-.506-.044-.197-.132-.385-.21-.573-.016-.036-.074-.072-.116-.078-.466-.07-.97.366-.98.844zm16.902.01c-.002-.473-.507-.917-.975-.854-.045.006-.107.038-.122.073-.083.205-.18.412-.219.627-.02.117.025.32.11.37.2.12.436.201.668.249.314.063.54-.15.538-.466zM17.022 30.61c-.297.035-.426.124-.54.347-.265.518-.118 1.712.277 2.14.065.07.219.131.287.1.07-.032.13-.19.115-.281-.122-.757-.26-1.511-.14-2.306zm16.314-.01c0 .4.022.773-.006 1.143-.028.38-.097.757-.164 1.133-.026.145-.04.299.116.327.097.017.267-.065.32-.153.373-.63.502-1.305.274-2.017a.587.587 0 0 0-.54-.433zm2.2 11.933c-.033-.299-.039-.642-.333-.8a4.944 4.944 0 0 0-1.045-.386c-.292-.077-.471.149-.309.402.329.514.795.88 1.394 1.043.194.053.312-.038.292-.259zm-20.737-.056c-.006.309.111.408.41.29a2.66 2.66 0 0 0 1.228-.945.451.451 0 0 0 .038-.391c-.033-.068-.24-.099-.352-.073-.24.057-.468.16-.701.245-.45.164-.612.393-.623.874zm11.31-21.868l-.106-.018c-.053.077-.12.148-.16.232a1.75 1.75 0 0 0-.151 1.094c.034.177.17.334.261.501.156-.102.357-.172.463-.313.426-.56.663-1.214.826-1.894.008-.03-.007-.066-.02-.173-.123.112-.229.176-.286.268-.214.35-.41.71-.614 1.064-.036.06-.084.113-.127.17l-.087-.024v-.907zm-3.182-2.718l.64 1.048-.1.08-.899-.947c-.201.269-.136.48-.02.674.285.485.71.813 1.227 1.023.085.036.18.042.302.067-.072-.668-.23-1.262-.598-1.783-.124-.176-.297-.245-.552-.162zm3.94 1.125l-.097-.083.626-1.045c-.293-.093-.493.017-.59.233-.185.41-.338.837-.487 1.263-.046.133-.04.285-.066.484.727-.228 1.26-.594 1.578-1.23.084-.169.11-.353-.08-.562l-.883.94zm-2.682 2.498a1.483 1.483 0 0 0-.067.024c-.046-.07-.097-.14-.139-.213-.2-.347-.39-.7-.602-1.04-.056-.088-.175-.138-.266-.206.098.689.318 1.288.66 1.834.108.169.257.316.407.452.122.108.237.07.33-.075.26-.407.183-1.295-.156-1.661-.015-.016-.047-.017-.124-.042-.014.323-.03.624-.043.927zm-14.11 25.125l.065-.022c-.014-.157-.014-.316-.047-.469-.155-.704-.493-1.292-1.12-1.682-.427-.266-1.114-.237-1.435.157 1.277.126 1.942 1.027 2.538 2.016zm32.738-2.017c-.455-.408-1.041-.443-1.549-.098-.55.374-.863.915-1.012 1.552-.043.182-.044.373-.065.56.655-.974 1.315-1.882 2.626-2.014zM19.96 21.102c.174-.112.324-.164.403-.27.344-.466.474-.994.36-1.566-.068-.345-.318-.534-.594-.494-.217.032-.322.193-.304.574.027.55.083 1.1.135 1.756zm10.343-.036l.067-.078c.03-.318.063-.636.09-.955.02-.283.061-.57.034-.85-.013-.14-.142-.359-.25-.378-.151-.03-.344.072-.494.16-.077.044-.126.176-.143.276-.099.567-.004 1.102.342 1.57.082.11.234.17.354.255zm-8.214-1.419l-.108.066c-.104-.14-.213-.278-.312-.422-.074-.109-.117-.247-.21-.331-.067-.059-.22-.092-.288-.054-.06.032-.099.192-.074.275.165.583.54.992 1.089 1.243.194.09.309.01.33-.196.056-.528.043-1.053-.181-1.546a.799.799 0 0 0-.285-.337c-.085-.053-.23-.006-.35-.004.005.098-.015.205.017.293.084.234.195.458.287.69.04.104.057.215.085.323zm6.157.033c.022-.113.028-.211.06-.298.092-.24.206-.473.29-.716.034-.1.014-.22.018-.331-.14.017-.301-.003-.415.061-.102.059-.174.201-.222.321-.188.481-.251.98-.162 1.493.045.265.115.31.361.199.503-.23.84-.619 1.037-1.132a.61.61 0 0 0 .028-.21c-.003-.164-.109-.252-.242-.168-.13.083-.234.223-.319.359-.105.17-.157.38-.434.422zm15.241 26.1c-.013-.56-.39-.84-.896-.673a3.171 3.171 0 0 0-1.68 1.291c-.084.127-.131.277-.196.417.903-.452 1.769-.904 2.772-1.034zM9.608 46.87c-.02-.077-.023-.11-.035-.139-.384-.88-1.08-1.4-1.978-1.654-.334-.094-.834.2-.753.702.991.127 1.865.581 2.766 1.092zm21.033-21.754a3.265 3.265 0 0 0-.1.036c-.049-.075-.108-.144-.145-.224-.065-.135-.1-.289-.181-.413-.044-.068-.153-.115-.238-.123-.045-.004-.14.087-.145.143-.058.51-.003 1.005.354 1.405.276.31.603.23.73-.16.044-.133.064-.277.078-.417a3.616 3.616 0 0 0-.257-1.779c-.029-.07-.116-.114-.174-.172-.061.073-.178.15-.174.217.025.29.082.575.132.862.037.21.08.417.12.625zm-11.007-1.703c-.086.285-.184.553-.247.83-.119.52-.125 1.048.035 1.56.109.356.409.427.684.175.09-.082.189-.188.214-.299.081-.343.14-.692.182-1.042.009-.079-.085-.168-.131-.252-.097.059-.22.099-.284.183-.077.103-.097.247-.155.368-.038.078-.097.146-.147.218l-.11-.036c.044-.21.088-.418.128-.627.052-.268.111-.536.149-.807.03-.207-.086-.293-.318-.27zM33.418 34.97l-.04-.01c-.02-.31-.018-.625-.068-.93-.016-.1-.162-.178-.248-.266-.07.09-.182.171-.198.269-.044.262-.05.53-.065.798-.017.32-.005.643-.051.958-.015.105-.17.188-.258.285-.074.083-.189.163-.201.256-.022.165.01.338.038.506.033.188.137.367.338.351.13-.01.269-.135.365-.243a.688.688 0 0 0 .144-.342c.09-.542.165-1.087.244-1.632zm-15.876.094c.01 0 .018-.002.028-.003-.04-.371-.073-.744-.127-1.113-.01-.068-.104-.175-.156-.173-.08.003-.178.07-.23.138a.436.436 0 0 0-.07.253c0 .578-.024 1.16.033 1.735.036.373.179.74.31 1.097.035.093.21.199.31.188.114-.012.283-.13.311-.232.063-.236.063-.49.07-.737.002-.044-.086-.126-.137-.13-.293-.029-.329-.238-.34-.46-.01-.188-.002-.375-.002-.563zm3.336-12.717c-.026 0-.052 0-.079-.002-.012-.099-.033-.198-.035-.297-.005-.204.017-.41-.005-.613-.01-.09-.086-.229-.154-.244-.093-.02-.228.033-.306.1a.49.49 0 0 0-.137.28c-.09.569.001 1.12.222 1.644.13.308.363.337.544.068.5-.744.649-1.57.512-2.447-.023-.142-.078-.3-.292-.294-.156.593.001 1.238-.27 1.805zm8.3-1.801l-.112-.04c-.067.14-.177.276-.194.422-.1.829.038 1.616.503 2.322.204.31.443.28.586-.068a3.185 3.185 0 0 0 .219-1.545.605.605 0 0 0-.14-.336.395.395 0 0 0-.302-.112c-.071.01-.16.143-.171.23-.025.2-.004.407-.009.611-.002.106-.02.212-.03.317l-.09.002c-.25-.572-.103-1.215-.26-1.803zm9.857-5.847c-.045-.357-.269-.542-.538-.672-.607-.295-1.259-.367-1.923-.353a.301.301 0 0 0-.186.083 1.565 1.565 0 0 0-.492 1.144c-.002.202.113.273.3.201.173-.068.344-.145.513-.223.491-.224.994-.4 1.544-.336.252.03.499.098.782.156zm-27.779-.062l.088.076c.48-.183.977-.26 1.469-.114.425.127.83.316 1.245.475.294.114.403.037.375-.282a1.661 1.661 0 0 0-.436-.984c-.051-.057-.128-.127-.194-.128-.764-.016-1.523.037-2.18.483-.157.108-.246.313-.367.474zm11.49 9.352c.097-.108.13-.139.153-.174.398-.6.476-1.26.345-1.949a3.026 3.026 0 0 0-.259-.72c-.034-.074-.17-.101-.257-.149-.038.084-.103.167-.106.253-.009.159.01.32.033.477.036.255.092.508.13.763.016.113.028.269-.14.25-.08-.01-.184-.129-.21-.218-.049-.168-.032-.356-.075-.527a3.583 3.583 0 0 0-.232-.696c-.035-.072-.2-.115-.3-.106-.045.003-.108.166-.11.256-.005.663.16 1.292.479 1.868.132.238.347.43.55.672zm4.823-.013c.19-.208.392-.365.513-.57a3.838 3.838 0 0 0 .528-1.912c.002-.105-.077-.212-.119-.319-.12.063-.283.097-.348.196-.093.143-.125.33-.16.502-.039.2-.029.412-.083.607-.028.103-.147.256-.226.256-.201 0-.146-.181-.128-.307.055-.378.128-.754.169-1.134.01-.096-.076-.201-.119-.303-.094.059-.195.108-.277.179a.338.338 0 0 0-.1.186c-.068.436-.185.876-.177 1.313.01.448.149.893.527 1.306zm7.452 7.7l-.094.029c-.044-.082-.094-.16-.13-.246-.145-.334-.278-.674-.433-1.004-.033-.072-.134-.113-.205-.166-.028.075-.082.152-.08.23.008.556.088 1.105.338 1.606.123.246.303.49.514.663.325.264.542.173.66-.221.033-.11.073-.232.058-.34a51.587 51.587 0 0 0-.287-1.73.502.502 0 0 0-.155-.273.326.326 0 0 0-.262-.057c-.05.013-.097.13-.103.203-.009.122.01.25.03.372.047.312.1.623.15.935zm-19.623.036c-.024-.009-.049-.017-.073-.024 0-.057-.006-.113.001-.168.056-.37.124-.737.165-1.108.009-.08-.065-.237-.116-.244a.383.383 0 0 0-.292.104.699.699 0 0 0-.157.333c-.092.478-.193.96-.238 1.443-.02.228.067.469.126.7.047.186.192.213.358.158.307-.1.508-.321.655-.596.301-.563.405-1.173.426-1.802.002-.072-.059-.146-.09-.22-.069.056-.168.098-.202.17-.153.331-.286.67-.43 1.006-.036.086-.088.165-.133.248zm11.11-5.86l-.117-.025c-.01-.147.003-.3-.036-.437-.028-.097-.116-.22-.2-.242-.081-.022-.24.045-.28.118-.092.165-.193.363-.18.539.035.505.228.968.532 1.374.163.22.344.24.499.015.19-.275.36-.576.466-.89.194-.569.214-1.155-.042-1.716-.043-.097-.17-.154-.258-.23-.066.106-.167.206-.19.321-.047.253-.044.514-.08.77-.02.136-.074.269-.113.403zm-11.913 3.993c-.283-.008-.405.15-.477.331-.096.24-.148.495-.232.739-.052.149-.127.29-.192.436-.032-.01-.063-.02-.095-.028.004-.082-.004-.166.016-.245.063-.258.143-.514.205-.774.038-.163.082-.334.07-.498-.005-.081-.117-.189-.204-.223-.119-.045-.234-.011-.279.155-.106.387-.248.764-.345 1.152-.108.425-.176.859-.005 1.288.18.454.428.503.737.122.43-.528.681-1.147.795-1.816.035-.203.006-.418.006-.639zm9.332-4.006l-.108.013c-.036-.127-.091-.25-.108-.378-.036-.257-.03-.518-.08-.77-.023-.123-.128-.231-.196-.346-.096.092-.226.166-.279.277-.337.707-.108 2.005.435 2.565.197.203.358.198.526-.039.276-.39.474-.822.506-1.303a1.014 1.014 0 0 0-.13-.526c-.052-.096-.233-.204-.32-.18-.093.026-.162.199-.204.318-.039.115-.03.246-.042.369zm12.82 5.465l-.113.034c-.059-.122-.132-.239-.175-.366-.085-.252-.138-.516-.234-.764-.073-.192-.192-.366-.503-.361 0 .178-.017.352.004.523a3.78 3.78 0 0 0 .788 1.9c.103.13.31.266.452.25.12-.014.27-.232.306-.383.065-.27.113-.57.063-.838-.096-.512-.27-1.012-.4-1.52-.045-.17-.132-.231-.302-.206-.192.03-.229.17-.202.316.055.287.14.57.204.855.043.186.074.374.111.56zm1.741-.737a5.661 5.661 0 0 1-.128.052c-.096-.179-.201-.355-.287-.54-.116-.25-.205-.512-.33-.755-.034-.065-.162-.117-.238-.107-.057.007-.131.117-.142.19a1.09 1.09 0 0 0 .003.398c.14.645.4 1.234.834 1.739.08.092.178.177.283.24.209.13.37.082.484-.138a.833.833 0 0 0 .105-.3c.075-.851-.15-1.64-.524-2.392-.034-.068-.175-.133-.252-.12-.075.014-.19.129-.19.2 0 .189.038.382.088.566.087.325.194.645.294.967zm-26.53.06a5.169 5.169 0 0 0-.12-.053l.264-.887c.049-.17.115-.337.137-.512.02-.147.007-.305-.198-.353-.193-.046-.26.09-.316.217-.29.648-.49 1.32-.488 2.037 0 .157.03.321.083.47.122.345.342.422.609.178.647-.59.976-1.349 1.05-2.214.008-.097-.102-.203-.157-.305-.1.07-.242.118-.294.213-.124.236-.198.496-.307.74-.074.162-.175.312-.263.469zM8.684 39.18c.481-.065.734-.366.949-.697.47-.72.73-1.522.893-2.359.036-.185.047-.376.07-.564-.293-.05-.403.118-.469.29-.221.582-.422 1.17-.632 1.756-.028.08-.064.155-.096.234l-.064-.024c.01-.141.018-.282.034-.422.043-.38.094-.762.13-1.143.008-.07-.04-.143-.062-.215-.067.046-.136.09-.202.138-.019.015-.028.046-.038.071-.35.937-.493 1.907-.513 2.935zm32.258-3.175l-.127.035.183 1.785-.08.017c-.038-.11-.075-.221-.114-.33-.206-.567-.405-1.139-.625-1.701-.067-.174-.193-.326-.438-.24 0 .067-.006.129 0 .188.103.784.322 1.536.68 2.24.153.298.354.577.564.84.153.192.362.334.666.32-.036-1.008-.162-1.984-.527-2.915-.036-.09-.12-.16-.182-.24zM21.939 23.974c-.063.558.077 1.131-.168 1.645h-.138c-.02-.158-.055-.316-.061-.473-.01-.293.018-.589-.015-.878-.013-.117-.146-.221-.224-.33-.085.092-.21.17-.245.279-.246.758-.268 1.526-.002 2.281.07.2.217.392.376.535.205.186.323.143.455-.099.144-.266.29-.53.421-.804.206-.433.31-.89.292-1.373-.016-.427-.243-.695-.69-.783zm6.45.014c-.403.037-.653.317-.683.722-.066.89.353 1.617.78 2.34.032.053.211.067.295.032.286-.12.41-.387.493-.662.21-.692.21-1.39.002-2.08-.045-.149-.188-.269-.286-.402-.085.154-.174.308-.255.464-.018.037-.006.088-.005.133.007.25.026.5.018.749-.004.114-.06.23-.093.344l-.098-.015c-.261-.514-.072-1.089-.167-1.625zM15.753 35.41c-.038-.002-.075-.005-.113-.006 0-.219-.012-.436.003-.653.026-.355.081-.708.1-1.065.004-.097-.056-.257-.126-.285-.079-.03-.243.029-.3.102-.123.165-.268.357-.289.55a15.086 15.086 0 0 0-.104 1.862c.005.29.114.599.25.859.174.328.527.313.73 0a1.03 1.03 0 0 0 .13-.319c.178-.772.355-1.544.518-2.32.03-.142.017-.301-.014-.445-.014-.067-.11-.154-.18-.162-.069-.01-.17.048-.219.108a.633.633 0 0 0-.105.269c-.045.227-.07.458-.113.685-.052.274-.112.547-.168.82zm18.953-.018l-.136.017c-.067-.344-.131-.689-.199-1.033-.043-.226-.07-.459-.145-.675-.028-.082-.176-.18-.256-.17-.076.01-.174.143-.194.237-.03.134-.02.286.01.422.167.766.343 1.529.518 2.292.072.316.25.519.46.52.308.004.424-.22.518-.46.026-.066.044-.136.06-.205.165-.717.107-1.435-.005-2.151-.043-.269-.096-.536-.337-.701-.084-.059-.222-.104-.309-.076-.062.02-.11.178-.108.272.007.25.05.496.07.745.022.321.036.643.053.966zm-20.16-2.22l-.112-.017c-.075.142-.179.276-.219.427-.107.405-.185.816-.28 1.222-.027.118-.07.231-.104.346-.038-.007-.075-.016-.111-.024.013-.15.021-.303.041-.453.065-.476.14-.951.197-1.429.028-.244-.071-.335-.292-.244a.703.703 0 0 0-.355.344c-.337.854-.412 1.746-.324 2.654a.92.92 0 0 0 .062.232c.113.29.345.381.591.193.18-.138.344-.315.465-.506.478-.751.62-1.584.544-2.459-.009-.098-.068-.19-.103-.287zm22.072 1.947l-.118.032c-.031-.099-.07-.196-.094-.298-.112-.467-.21-.937-.338-1.401-.029-.103-.151-.18-.23-.27-.055.103-.155.203-.16.308-.013.318-.016.643.027.96.091.682.306 1.325.806 1.823.125.123.362.247.503.208.135-.037.279-.274.303-.441a5.298 5.298 0 0 0-.326-2.781c-.02-.049-.044-.117-.083-.133-.14-.057-.29-.097-.433-.142-.033.115-.103.235-.09.346.039.399.108.795.163 1.191.027.2.046.4.07.598zM22.33 41.317c-.267.234-.497.426-.715.631-.04.04-.062.136-.044.192.233.827.706 1.469 1.475 1.874.184.098.303.053.406-.142.31-.586.373-1.21.29-1.847a1.396 1.396 0 0 0-.683-1.04c-.08-.047-.214-.07-.29-.035-.055.024-.062.166-.077.259-.008.05.01.105.02.157.072.358.154.714.212 1.074.022.13-.012.268-.02.402l-.111.006-.463-1.53zm5.2 1.536l-.131-.018c.01-.19.004-.385.034-.573.055-.36.147-.714.19-1.075.034-.282-.101-.357-.351-.205-.371.224-.6.569-.674.986a2.889 2.889 0 0 0 .254 1.847c.144.288.215.326.493.171.7-.392 1.15-.996 1.392-1.756.025-.083.026-.222-.025-.273-.213-.216-.453-.41-.713-.64l-.469 1.536zm3.49-16.198c.026.131.045.244.069.356.18.808.36 1.619.768 2.35.109.195.27.383.453.512.27.189.5.067.559-.26.022-.124.044-.25.037-.373a8.404 8.404 0 0 0-.942-3.422.967.967 0 0 0-.267-.326c-.07-.05-.206-.046-.298-.018-.035.011-.059.159-.041.233.037.164.098.323.16.479.183.462.386.918.549 1.388.074.215.07.455.102.685l-.118.031c-.065-.136-.14-.27-.193-.41-.124-.322-.226-.655-.364-.973-.074-.17-.204-.317-.473-.252zm-12.748 1.632a4.144 4.144 0 0 1-.068-.026c-.009-.067-.037-.138-.022-.199.094-.378.177-.76.304-1.127.135-.395.324-.77.47-1.162.034-.088-.02-.207-.035-.312-.12.026-.282.015-.356.09-.135.135-.24.311-.323.486a8.668 8.668 0 0 0-.754 2.524c-.05.357-.05.73-.01 1.087.031.303.274.405.528.232.177-.12.338-.297.444-.485.478-.847.66-1.79.863-2.743-.278-.07-.413.094-.494.282-.142.336-.248.685-.377 1.026-.044.113-.113.218-.17.327zm3.05 11.678l-.103.03c-.048-.093-.109-.18-.142-.277-.196-.564-.382-1.13-.578-1.693-.108-.307-.29-.343-.475-.087-.23.318-.398.662-.225 1.07.3.706.705 1.342 1.273 1.863.135.124.308.208.47.301.124.07.229.038.265-.107.1-.386.253-.772.268-1.161.025-.67-.265-1.217-.83-1.598-.225.162-.296.332-.19.586.107.252.173.523.245.79.024.09.015.187.023.283zm7.766-1.653c-.752.49-1.023 1.385-.725 2.356.192.625.353.677.853.24.553-.483.928-1.097 1.253-1.75.216-.436.12-.813-.133-1.175-.065-.091-.2-.199-.29-.189-.085.01-.189.15-.225.254-.202.562-.38 1.13-.574 1.696-.03.089-.097.166-.147.249l-.08-.025c0-.096-.02-.196.003-.285.071-.26.142-.518.243-.764.104-.254.063-.445-.178-.607zm-21.361-.194l-.106-.025c.012-.144.013-.29.04-.432.128-.682.266-1.364.394-2.047.013-.069-.024-.145-.038-.217-.081.018-.195.01-.239.062-.107.126-.22.268-.263.425-.135.478-.287.962-.339 1.452-.072.707-.07 1.424-.078 2.136-.001.136.1.273.154.41.123-.074.275-.124.366-.226.406-.46.614-1.02.76-1.603.18-.726.35-1.455.523-2.184.04-.173.092-.347.103-.522.005-.077-.066-.202-.133-.228-.054-.02-.19.053-.225.119-.093.18-.166.375-.22.571-.183.642-.349 1.29-.53 1.931-.036.132-.112.252-.17.378zm34.998-.033c-.035.012-.07.024-.107.035-.052-.096-.12-.19-.156-.293-.098-.276-.19-.555-.27-.837-.154-.548-.288-1.101-.454-1.646-.03-.099-.178-.162-.272-.242-.046.122-.096.242-.135.365-.008.03.016.069.025.103.202.848.399 1.698.611 2.544.147.584.367 1.139.782 1.59.078.085.206.123.31.183.052-.107.139-.21.151-.321a8.502 8.502 0 0 0-.393-3.69 1.353 1.353 0 0 0-.27-.422c-.044-.05-.158-.04-.24-.055-.012.07-.044.144-.032.21.117.631.244 1.259.363 1.889.036.194.058.391.087.587zm-2.342-4.452l-.098.028c-.045-.09-.098-.179-.133-.273-.162-.423-.31-.854-.488-1.272-.042-.099-.185-.156-.28-.233-.06.098-.173.198-.17.293.015.462.018.93.108 1.38.151.757.581 1.327 1.296 1.665.16.075.265.049.308-.111.08-.308.19-.618.204-.93.038-.842-.138-1.634-.723-2.282-.077-.086-.22-.113-.332-.166-.03.13-.102.27-.08.39.06.304.166.6.246.901.054.202.095.407.142.61zM9.514 35.29c.687-.249 1.13-.706 1.383-1.357.215-.552.255-1.13.214-1.71-.007-.118-.115-.228-.177-.341-.098.088-.24.157-.286.267-.173.41-.312.834-.472 1.25-.037.094-.103.179-.154.268l-.07-.033c.021-.111.035-.225.064-.334.106-.395.232-.786.32-1.186.025-.116-.055-.254-.087-.383-.107.048-.218.087-.317.147-.059.036-.1.103-.142.16-.428.573-.586 1.234-.608 1.933-.015.456.043.906.332 1.32zm-.017-4.264c.52-.08.916-.305 1.222-.675.486-.587.679-1.285.726-2.029.008-.106-.076-.218-.12-.327-.1.06-.243.096-.297.186-.202.334-.374.686-.556 1.031-.063.12-.12.244-.178.365l-.078-.026c.023-.106.034-.214.07-.316.117-.317.255-.627.359-.948.06-.183.098-.382.092-.573-.002-.095-.11-.218-.203-.266-.063-.032-.217.022-.27.087-.172.212-.35.432-.468.676-.327.669-.44 1.39-.403 2.13.011.227.067.452.104.685zm30.625-1.487l-.088.037c-.064-.13-.125-.261-.192-.388-.183-.346-.359-.694-.56-1.028-.05-.082-.185-.114-.281-.167-.045.108-.137.222-.128.327.064.727.24 1.423.713 2.007.313.385.717.619 1.228.697.201-.668.149-1.31.01-1.95-.125-.581-.328-1.13-.77-1.555-.17-.163-.383-.114-.455.11a.553.553 0 0 0-.01.311c.108.347.24.686.358 1.032.065.186.117.378.175.567zm-1.587 5.084l-.092.042c-.07-.114-.166-.222-.204-.348-.074-.245-.113-.501-.174-.752-.065-.266-.12-.538-.22-.79-.036-.091-.19-.134-.29-.198-.05.085-.125.166-.146.258-.136.618-.042 1.222.148 1.816.146.462.344.902.718 1.23.388.342.576.305.747-.174.376-1.056.258-2.085-.218-3.084-.038-.08-.088-.173-.158-.21a.64.64 0 0 0-.34-.076c-.04.004-.086.154-.094.24-.008.113.012.232.032.345.094.566.193 1.134.29 1.7zm-14.663 5.155l-.135.024c-.03-.081-.074-.16-.089-.244a93.367 93.367 0 0 1-.239-1.422c-.035-.222-.164-.208-.303-.112-.278.19-.621 1.041-.519 1.349.21.623.535 1.184 1.026 1.634.22.202.386.18.604-.031.808-.792.872-1.751.172-2.628a1.805 1.805 0 0 0-.22-.232c-.064-.056-.143-.094-.297-.192v1.854zm-11.963-5.111l-.114-.048c.05-.296.102-.592.15-.889.063-.377.133-.753.178-1.133.01-.085-.053-.25-.104-.258a.477.477 0 0 0-.333.078c-.094.068-.16.19-.211.301-.408.9-.502 1.834-.237 2.786.06.219.226.407.343.61.22-.142.483-.244.65-.433.43-.488.63-1.096.695-1.732.042-.4-.005-.81-.035-1.216-.016-.2-.182-.209-.286-.094a1.204 1.204 0 0 0-.259.478c-.081.31-.1.635-.18.944-.054.21-.169.404-.257.606zm14.55 3.25c-.163.112-.268.162-.345.24a2.595 2.595 0 0 0-.676 1.166.613.613 0 0 0-.013.289c.112.485.313.929.637 1.31.245.29.471.315.715.023a7.13 7.13 0 0 0 .773-1.116c.333-.602.209-1.272-.28-1.756-.06-.06-.172-.09-.26-.09-.034.002-.084.121-.096.193-.08.465-.148.933-.228 1.398-.015.08-.077.153-.118.23l-.108-.035v-1.852zm-6.13-9.098l-.101.001c-.037-.174-.117-.353-.1-.522.055-.529.139-1.056.23-1.581.028-.177.042-.33-.151-.397-.197-.07-.267.07-.315.23-.117.391-.24.782-.354 1.175-.3 1.018-.049 1.96.416 2.939.25-.203.51-.347.681-.56.647-.806.79-1.733.547-2.723-.026-.111-.15-.2-.23-.298-.085.096-.213.178-.246.29-.11.373-.187.757-.28 1.137-.025.105-.064.206-.097.309zm10.046 1.78c.022-.014.033-.016.036-.023.776-1.387.525-2.77-.025-4.147-.023-.06-.147-.125-.208-.113a.313.313 0 0 0-.206.168c-.03.08.01.189.02.285.065.573.136 1.145.188 1.72.008.107-.06.221-.093.331l-.08-.002c-.033-.087-.073-.171-.094-.26-.095-.39-.17-.784-.283-1.167-.035-.119-.172-.205-.262-.307-.082.11-.164.219-.242.33-.015.02-.015.051-.02.077-.147.8-.06 1.566.34 2.28.213.381.52.672.929.828zm-22.53 4.26c.815-.661 1.237-1.435 1.45-2.335.089-.377.121-.76-.046-1.127a.346.346 0 0 0-.215-.162c-.037-.01-.127.101-.155.172-.16.425-.305.855-.464 1.28-.042.113-.114.216-.172.323a2.702 2.702 0 0 1-.089-.035c.016-.118.022-.237.05-.352.132-.518.279-1.03.4-1.55.025-.105-.015-.318-.063-.33-.12-.03-.305-.02-.388.056-.151.14-.288.325-.361.516a5.003 5.003 0 0 0-.243 2.758c.047.25.18.485.295.785zm34.324-1.872l-.09.025c-.054-.105-.119-.207-.16-.317-.16-.425-.31-.855-.47-1.278-.029-.073-.1-.13-.15-.194-.079.063-.206.113-.226.191-.06.221-.124.457-.103.68.093.955.494 1.777 1.165 2.464.085.088.188.157.346.288.111-.273.246-.498.292-.74.171-.882.109-1.76-.168-2.613-.074-.224-.21-.431-.345-.627-.11-.155-.306-.248-.465-.127-.08.06-.085.277-.056.408.118.512.267 1.016.397 1.525.027.101.023.21.033.315zM27.86 29.324c-.035.002-.07.002-.105.002-.03-.097-.077-.192-.09-.292-.054-.45-.097-.904-.147-1.355-.02-.172-.008-.426-.224-.419-.14.005-.282.205-.403.337-.054.059-.076.164-.08.249-.045.964.119 1.884.618 2.724.3.503.635.499.954-.002.072-.112.134-.233.178-.357a4.109 4.109 0 0 0 .196-1.845c-.047-.416-.234-.763-.484-1.08-.048-.059-.15-.109-.22-.102-.045.005-.088.119-.115.19-.02.057-.018.123-.018.185.001.446.01.893.004 1.338-.002.143-.042.286-.064.427zm-5.28.005c-.041-.003-.083-.007-.124-.012-.016-.162-.046-.325-.047-.487-.003-.383.011-.767.009-1.15 0-.123-.021-.248-.049-.369-.042-.174-.144-.193-.269-.074-.063.06-.114.135-.167.207-.438.591-.45 1.272-.349 1.948.06.405.187.821.378 1.182.268.507.638.495.93.009.511-.855.68-1.792.609-2.774-.011-.139-.1-.288-.192-.399-.07-.083-.21-.157-.31-.148-.065.008-.149.169-.162.27-.065.468-.104.938-.16 1.407-.016.131-.064.26-.097.39zm6.963 3.487l-.144.027c-.142-.684-.286-1.369-.438-2.09-.38.227-.665.48-.696.885-.058.788.1 1.544.62 2.158.588.697.799.729 1.25-.17.281-.565.291-1.187.276-1.809-.01-.49-.304-.784-.683-1.012-.193-.117-.3-.045-.302.187 0 .214.02.427.034.64.026.395.055.79.083 1.184zm-4.306 10.317h-.124c-.022-.104-.062-.21-.064-.314-.009-.34.008-.679-.01-1.017a4.29 4.29 0 0 0-.112-.736c-.04-.161-.195-.274-.314-.115-.307.407-.666.796-.565 1.384.141.835.546 1.557.937 2.286.109.202.272.191.377-.032.293-.619.579-1.24.838-1.874.259-.636-.022-1.182-.365-1.697-.13-.194-.279-.166-.376.05a.617.617 0 0 0-.059.203c-.035.498-.062.995-.099 1.492-.008.124-.041.246-.064.37zM20.93 32.84c-.044-.005-.087-.01-.131-.013 0-.084-.005-.169.001-.252.037-.515.086-1.03.11-1.546.012-.258-.107-.347-.3-.231-.342.206-.658.458-.675.9-.015.38-.011.766.035 1.145.056.462.197.907.521 1.266.232.256.298.26.58.057.867-.625 1.117-1.964.961-2.666-.074-.333-.317-.585-.671-.724-.148.703-.29 1.384-.431 2.064zm-2.503-.412l-.132-.014c.087-.752.172-1.504.261-2.283-.11.024-.186.022-.244.055-.453.26-.81.608-.832 1.159-.017.38.014.766.077 1.142.079.485.24.949.58 1.327.098.108.175.143.313.046.911-.644 1.438-2.415 1.017-3.44-.056-.136-.126-.214-.298-.198-.168.016-.252.079-.288.245-.122.584-.254 1.165-.384 1.747-.016.072-.047.142-.07.214zm13.604-.026l-.12.03c-.035-.107-.079-.212-.103-.32-.128-.556-.26-1.11-.371-1.668-.035-.177-.14-.233-.278-.209-.102.018-.247.086-.275.165-.076.215-.13.448-.138.675-.04 1.001.195 1.912.949 2.627.316.3.395.3.626-.057.483-.742.606-1.576.52-2.434-.05-.505-.618-1.03-1.067-1.05l.257 2.241zm-25.256 2.27c-.203.908-.4 1.803-.605 2.695-.031.137-.09.267-.136.4l-.09-.02c0-.093-.013-.187 0-.278.143-.952.292-1.903.433-2.855.01-.074-.03-.157-.045-.237-.077.036-.192.049-.225.109-.118.216-.243.438-.308.675-.352 1.273-.468 2.576-.422 3.893.006.167.049.335.087.5.041.182.16.225.28.084.212-.25.47-.492.584-.787.275-.7.515-1.42.697-2.152.118-.478.12-.989.155-1.486.024-.362-.078-.49-.405-.54zm37.627 3.06l-.103.024c-.043-.107-.099-.21-.124-.322-.193-.834-.376-1.669-.572-2.501-.022-.093-.105-.172-.16-.258-.09.088-.21.16-.261.267-.049.105-.034.243-.033.368.015.935.177 1.848.497 2.723.157.433.378.845.608 1.244.107.187.304.323.519.541.07-.235.135-.373.146-.517a11.985 11.985 0 0 0-.427-4.26 2.193 2.193 0 0 0-.267-.549c-.038-.062-.146-.08-.223-.12-.017.08-.06.161-.048.237.112.794.234 1.586.351 2.38.037.247.065.495.097.743zm-.265-5.487l-.104.028-.086-.235c-.224-.629-.441-1.26-.677-1.886-.033-.088-.145-.19-.23-.199-.063-.007-.163.116-.206.202a.678.678 0 0 0-.062.31c.008.312.004.628.058.934.158.876.477 1.683 1.175 2.284.426.365.646.306.747-.245.076-.406.09-.836.057-1.248-.066-.804-.249-1.586-.672-2.288-.1-.166-.237-.386-.446-.288-.09.041-.122.337-.085.497.12.537.288 1.064.43 1.598.047.175.068.357.1.536zm-37.85.042l-.086-.014c.02-.155.023-.315.065-.466.113-.42.25-.835.365-1.254a3.17 3.17 0 0 0 .117-.63c.007-.107-.066-.22-.104-.331-.109.047-.248.067-.319.147-.126.145-.255.313-.308.494-.181.61-.382 1.224-.475 1.852-.067.463-.028.96.057 1.425.09.48.283.528.652.221.21-.174.404-.38.564-.6.35-.482.575-1.03.654-1.619.058-.426.052-.864.04-1.296-.004-.096-.152-.187-.234-.281-.08.083-.196.152-.233.252-.195.516-.37 1.04-.554 1.56-.064.18-.133.36-.2.54zm39.571-1.113l-.142.03a14.772 14.772 0 0 0-.086-.247c-.194-.563-.384-1.127-.591-1.685-.032-.084-.154-.136-.235-.203-.054.1-.16.2-.155.297.019.436.04.874.114 1.302.142.804.43 1.55 1.055 2.112.155.14.365.221.55.329.092-.222.24-.44.264-.67.101-1.034-.061-2.044-.398-3.023a3.776 3.776 0 0 0-.39-.754c-.1-.16-.283-.32-.462-.207-.086.055-.094.32-.054.468.117.437.3.858.412 1.296.078.31.081.636.118.955zm-41.23.023h-.093c-.016-.08-.055-.162-.047-.24.03-.271.05-.551.122-.813.121-.437.29-.861.414-1.298.033-.119-.023-.263-.039-.396-.144.042-.34.04-.422.133-.171.2-.318.435-.412.68a7.595 7.595 0 0 0-.486 2.962c.006.22.053.444.12.654.084.265.21.296.435.142.384-.263.675-.608.893-1.016.445-.834.564-1.74.575-2.665.001-.089-.105-.18-.162-.27-.077.058-.195.1-.225.176-.216.584-.416 1.173-.62 1.76-.022.063-.035.128-.052.191zm18.777-.128c-.504-.07-.88.192-.99.687-.206.943.006 1.818.58 2.576.46.607.564.564 1.038.03.572-.648.75-1.458.67-2.296-.026-.262-.267-.532-.469-.74-.186-.192-.356-.118-.418.147-.057.242-.074.492-.119.736-.044.236-.1.468-.151.7l-.14-.014V31.07zm3.519 1.819c-.04.004-.077.007-.115.012-.037-.095-.087-.188-.105-.287-.062-.359-.101-.723-.175-1.079-.07-.343-.252-.392-.52-.159-.079.07-.146.155-.21.24-.235.31-.224.664-.18 1.025.092.742.301 1.43.892 1.942.277.24.357.24.625-.02.419-.405.63-.92.762-1.474.115-.485.154-.97-.02-1.449-.157-.427-.5-.642-.954-.564v1.813zm16.437-6.06c-.031.02-.064.039-.097.058-.065-.074-.144-.141-.193-.225-.404-.705-.797-1.414-1.205-2.116a2.373 2.373 0 0 0-.417-.55c-.08-.074-.256-.04-.389-.054.003.106-.017.22.014.317.038.126.113.242.177.36.416.777.827 1.558 1.254 2.33.297.538.606 1.07.931 1.591.13.21.303.398.482.57.158.15.302.097.307-.113.01-.409.055-.835-.038-1.226-.34-1.448-1-2.757-1.846-3.977a.794.794 0 0 0-.198-.215c-.07-.046-.168-.052-.255-.076.001.088-.027.19.007.26.439.897.89 1.788 1.33 2.684.06.12.093.254.136.382zm-36.29.058l-.103-.06c.048-.136.083-.279.146-.408.438-.887.884-1.77 1.319-2.658.034-.07.002-.173 0-.26-.085.027-.195.028-.25.084-.139.138-.264.29-.372.454-.616.934-1.091 1.94-1.477 2.99a4.204 4.204 0 0 0-.254 1.786c.009.123.077.243.117.364.119-.065.268-.103.35-.2a5.38 5.38 0 0 0 .58-.799c.573-1.015 1.127-2.043 1.685-3.068.15-.273.303-.546.427-.832.043-.1.004-.236.003-.355-.138.033-.32.023-.405.108a2.988 2.988 0 0 0-.433.607c-.389.671-.764 1.35-1.15 2.023-.047.083-.122.15-.183.224zm12.416 9.23l-.115-.007c-.02-.083-.051-.167-.056-.251-.023-.437-.037-.874-.062-1.311a1.746 1.746 0 0 0-.07-.42c-.053-.16-.186-.233-.34-.143-.327.194-.604.469-.602.86.002.865.174 1.704.588 2.474.337.628.658.648 1.105.082.306-.388.458-.846.54-1.325.086-.515.09-1.031-.102-1.53-.149-.383-.4-.568-.723-.55-.114.7 0 1.426-.163 2.12zm11.19-2.14c-.375.008-.606.22-.69.517-.104.38-.181.785-.169 1.177.02.686.2 1.344.695 1.862.398.415.611.388.91-.09.102-.165.19-.344.263-.524.244-.61.356-1.246.4-1.9.032-.463-.208-.76-.545-1.002-.192-.138-.335-.077-.408.149-.033.1-.043.209-.049.315-.024.436-.04.873-.067 1.308-.007.112-.048.221-.072.331l-.1-.01c-.175-.688-.054-1.407-.169-2.133zM1.982 23.809l-.08-.054c.045-.091.086-.187.134-.276.397-.738.798-1.474 1.188-2.217.042-.08.063-.255.023-.282-.08-.055-.236-.088-.316-.045-.176.095-.358.216-.48.371C1.534 22.488.98 23.843.62 25.282c-.055.219.034.293.263.26.469-.067.843-.328 1.123-.675.42-.517.798-1.072 1.169-1.625.362-.54.7-1.096 1.036-1.651.068-.113.09-.252.132-.379-.153.009-.321-.02-.457.034a.978.978 0 0 0-.372.296c-.186.227-.354.47-.511.718-.24.376-.457.765-.695 1.142-.093.146-.216.271-.325.407zm46.435-.051l-.09.058c-.157-.22-.324-.436-.47-.664-.296-.465-.563-.95-.878-1.403a1.994 1.994 0 0 0-.567-.511c-.105-.068-.283-.022-.428-.027.04.125.057.264.123.371.296.478.623.934.902 1.419.406.705.801 1.42 1.414 1.965.259.23.579.418.902.545.346.135.454.02.36-.345-.354-1.335-.877-2.599-1.697-3.72-.142-.196-.349-.356-.554-.489-.083-.055-.243.007-.367.017.014.106.001.226.049.314.389.742.79 1.477 1.185 2.214.044.082.077.17.116.256zm-6.006 6.458c.063-.325.145-.563.151-.805.042-1.619-.543-3.03-1.475-4.319a1.018 1.018 0 0 0-.272-.254c-.063-.041-.185-.068-.234-.034-.054.036-.086.161-.067.232.044.18.113.356.188.527.268.622.549 1.237.81 1.862.062.149.064.325.093.488l-.109.042c-.062-.086-.138-.164-.184-.257-.355-.7-.706-1.4-1.054-2.103-.068-.14-.148-.234-.339-.173.011.156.009.307.036.455a8.824 8.824 0 0 0 1.069 2.921c.199.343.452.663.72.957.16.175.397.28.667.46zM8.838 27.955l-.128-.052c.038-.173.05-.357.118-.52.276-.655.57-1.305.855-1.958.056-.13.113-.265.136-.403a.29.29 0 0 0-.084-.228c-.037-.03-.157-.004-.212.037a1.238 1.238 0 0 0-.29.273c-.887 1.197-1.413 2.53-1.484 4.025-.017.34.018.689.188.999.394-.102.69-.325 1.027-.797.63-.882 1.026-1.87 1.291-2.915.084-.33.125-.67.185-1.008l-.108-.06c-.09.088-.211.16-.266.266-.357.689-.697 1.385-1.047 2.076-.048.094-.12.177-.181.265zm16.375 1.367l-.096.005c-.022-.112-.056-.222-.064-.336-.029-.498-.045-.997-.079-1.495-.023-.353-.218-.45-.478-.21-.166.156-.315.382-.363.6-.233 1.062-.013 2.07.468 3.025.122.245.266.55.568.544.3-.006.442-.312.563-.557.437-.884.624-1.821.476-2.8-.039-.267-.195-.527-.344-.761-.059-.093-.243-.106-.37-.156-.046.118-.122.235-.133.356-.044.515-.066 1.033-.1 1.548-.006.08-.03.159-.048.237zm21.83-2.08c.038.185.06.368.114.542.195.63.406 1.254.596 1.883.035.118-.003.257-.008.386-.064-.099-.149-.19-.191-.299-.238-.604-.46-1.213-.702-1.816-.053-.13-.158-.237-.24-.354l-.072.024c-.022.1-.064.2-.063.3.008.48-.018.967.054 1.44.15.981.49 1.9 1.168 2.65.14.154.365.23.55.343.09-.18.212-.35.267-.54.19-.665.146-1.344.046-2.016-.106-.708-.287-1.397-.669-2.015-.187-.3-.426-.523-.85-.528zm-43.707-.009c-.526.061-.731.19-.977.67a6.037 6.037 0 0 0-.614 3.609c.04.294.183.575.278.86 1.211-.394 2.348-3.647 1.7-4.812-.102.158-.216.282-.274.429-.245.631-.472 1.268-.714 1.9-.024.065-.105.11-.16.164-.018-.077-.066-.16-.051-.232.034-.165.099-.322.15-.484l.662-2.104zm32.217 13.653c-.48-.444-.94-.892-1.425-1.31-.35-.301-.709-.607-1.107-.835-.942-.538-1.417-.439-2.114.389-.415.493-.771 1.026-.946 1.658-.088.313.051.499.372.54.491.063.865-.311.812-.814-.01-.093-.027-.184-.041-.287.896.271 1.09.186 1.5-.672.856.73 1.685 1.53 2.95 1.331zm-20.798.008c.078.007.13.014.18.017.861.056 1.558-.305 2.185-.85.197-.17.402-.33.611-.503.384.85.53.915 1.485.681-.01.133-.027.264-.026.396.004.428.311.714.741.696.372-.016.55-.24.427-.589-.294-.831-.765-1.548-1.454-2.11-.262-.215-.555-.257-.881-.177-.514.125-.968.37-1.361.714-.635.559-1.255 1.134-1.907 1.725zm33.009-14.117l.074-.05c-.06-.394-.112-.787-.18-1.177-.268-1.526-1.061-2.785-2.032-3.95-.214-.255-.35-.21-.459.107-.092.265.042.472.159.678.399.706.81 1.404 1.212 2.11.055.095.077.209.114.314l-.096.047c-.066-.084-.139-.162-.196-.252-.366-.581-.717-1.172-1.1-1.742a2.884 2.884 0 0 0-.568-.596c-.073-.06-.256-.045-.353.006-.047.024-.052.236-.002.32.442.763.86 1.545 1.37 2.263.388.547.885 1.02 1.363 1.497.188.185.46.285.694.425zm-45.285-.059c.03.012.058.026.086.04.15-.075.318-.128.444-.23.344-.281.7-.556.998-.883.816-.899 1.408-1.95 1.972-3.015.067-.126.18-.284.006-.369-.105-.053-.314-.034-.4.04-.22.19-.424.413-.585.655-.367.549-.7 1.119-1.051 1.678-.053.083-.131.15-.197.225-.028-.02-.057-.038-.087-.058.04-.1.066-.208.119-.3.416-.727.842-1.449 1.25-2.181a1.05 1.05 0 0 0 .132-.505c-.001-.122-.114-.244-.176-.366-.109.062-.247.101-.32.192-.862 1.06-1.624 2.176-1.917 3.541-.108.508-.184 1.023-.274 1.536zm19.411 7.435a1.28 1.28 0 0 0-.875.706c-.199.395-.253.82-.21 1.25.092.94.45 1.735 1.28 2.261.166.105.284.087.417-.056.4-.428.626-.942.779-1.501.192-.707.13-1.383-.263-2.004-.092-.149-.294-.228-.445-.339-.073.16-.195.315-.211.48-.043.47-.04.943-.061 1.415-.005.102-.043.202-.065.305-.042.001-.083.002-.126.005-.039-.17-.104-.338-.115-.51-.044-.657-.07-1.315-.105-2.012zm6.331 2.517l-.146-.009c-.017-.132-.042-.263-.049-.396-.032-.507-.038-1.016-.094-1.52-.034-.315-.227-.374-.453-.148-.13.128-.232.294-.307.461-.45 1.003-.119 2.534.688 3.29.12.111.228.136.35.035.242-.206.527-.385.706-.638.614-.862.823-1.809.419-2.827-.155-.39-.442-.653-.898-.76-.008.133-.018.236-.023.34-.024.552-.04 1.105-.075 1.657-.013.173-.077.344-.118.515zm16.776-10.69a2.3 2.3 0 0 1-.097.036c-.104-.138-.219-.268-.31-.415-.426-.68-.842-1.367-1.268-2.046-.131-.21-.267-.43-.55-.469-.259-.034-.37.072-.287.318.083.241.194.48.33.697.528.847 1.054 1.698 1.617 2.52.29.425.637.816.996 1.186.293.301.548.216.598-.204.044-.373.077-.781-.025-1.134a8.597 8.597 0 0 0-.714-1.747c-.41-.737-.912-1.425-1.37-2.136-.127-.197-.32-.188-.464-.102-.076.047-.076.25-.07.38.002.08.076.158.121.233.297.489.603.97.888 1.464.201.347.382.704.554 1.066.049.102.037.235.051.354zm-39.577.034l-.113-.055c.036-.14.047-.292.111-.417.27-.511.551-1.018.84-1.52.208-.363.453-.705.642-1.077a.566.566 0 0 0-.014-.46c-.07-.129-.373-.035-.497.13-.085.115-.171.23-.253.345-.703 1.012-1.37 2.043-1.754 3.23-.154.477-.192.959-.08 1.45.085.37.284.447.565.196.224-.201.449-.416.617-.664.664-.97 1.309-1.953 1.952-2.938a3.66 3.66 0 0 0 .357-.686c.047-.126.01-.285.01-.43-.166.026-.364.002-.492.087-.155.101-.266.284-.37.448-.412.656-.81 1.322-1.221 1.98-.085.136-.2.255-.3.38zm21.16 10.054c-.042-.874-.337-1.508-.795-1.807-.09-.058-.235-.118-.31-.083-.071.033-.115.188-.12.292-.03.632-.037 1.267-.068 1.898-.008.132-.09.26-.14.389-.039-.125-.11-.247-.114-.372-.025-.632-.027-1.266-.053-1.9-.005-.11-.057-.26-.139-.313-.057-.038-.233.028-.301.099-.19.198-.394.4-.513.638-.543 1.085-.095 2.772.915 3.453.107.072.371.068.456-.012.694-.66 1.13-1.456 1.181-2.282zm20.633-3.175c-.31.12-.475.498-.404.91.17.982.334 1.966.521 2.946.108.564.31 1.098.64 1.574.157.226.337.434.71.469.108-.734.238-1.45.312-2.173.11-1.103-.2-2.156-.447-3.214-.072-.31-.336-.476-.614-.59-.167-.066-.29.018-.292.201-.004.203-.002.413.042.61.11.495.257.98.365 1.476.06.286.073.584.107.876-.043.01-.085.023-.13.034-.047-.106-.114-.209-.141-.32-.226-.925-.443-1.852-.669-2.8zm-44.09.005c-.02.055-.034.086-.042.12-.218.909-.433 1.818-.653 2.726-.024.097-.085.184-.127.274l-.105-.028c0-.109-.02-.224.002-.329.117-.556.253-1.11.364-1.667a7.1 7.1 0 0 0 .132-.947c.013-.2-.121-.31-.317-.223-.273.12-.523.287-.6.603-.313 1.283-.628 2.567-.374 3.904.093.486.182.972.29 1.545.22-.156.399-.244.52-.382.153-.17.296-.368.377-.579.174-.464.348-.936.447-1.42.189-.915.333-1.84.48-2.764.062-.389-.103-.714-.394-.833zm46.651-3.871a2.984 2.984 0 0 1-.1.024c-.036-.075-.08-.147-.11-.225-.155-.416-.298-.838-.464-1.252-.139-.347-.296-.686-.462-1.02-.034-.072-.14-.107-.213-.158-.049.077-.124.149-.139.232-.028.156-.035.32-.026.478.044.735.214 1.446.475 2.132.279.73.634 1.418 1.227 1.952.307.276.65.483 1.097.516-.014-.105-.02-.184-.036-.261-.273-1.354-.55-2.707-.821-4.06-.08-.394-.125-.805-.408-1.114a1.462 1.462 0 0 0-.508-.367c-.244-.098-.358.016-.314.28.036.21.094.417.158.62.204.645.417 1.286.62 1.932.03.09.017.194.024.29zm-49.129.025l-.124-.044c.057-.237.101-.476.173-.708.206-.653.433-1.301.631-1.957.04-.13-.013-.287-.023-.43-.161.026-.347.01-.476.087-.346.209-.526.55-.606.939-.234 1.144-.464 2.288-.694 3.432-.09.44-.177.881-.271 1.349.615-.087 1.058-.394 1.401-.83.954-1.215 1.397-2.613 1.398-4.15.001-.114-.093-.228-.143-.342-.091.078-.227.14-.268.24-.3.712-.582 1.435-.87 2.154-.036.09-.085.173-.128.26zm50.352 9.233c-.06-.791-.141-1.507-.16-2.223-.02-.775.047-1.553.023-2.327-.013-.432-.114-.864-.213-1.288a.885.885 0 0 0-.282-.469c-.111-.088-.311-.08-.469-.07-.03.003-.077.228-.06.343.118.9.252 1.8.373 2.702.02.15.002.306.002.46l-.101.031c-.064-.122-.156-.238-.184-.367-.075-.338-.116-.685-.18-1.027-.126-.674-.254-1.348-.392-2.02-.017-.082-.103-.152-.158-.227-.077.067-.2.12-.224.203-.085.289-.212.593-.187.88.065.715.158 1.435.324 2.132.227.947.566 1.864 1.195 2.633.197.24.462.425.693.634zm-47.16 1.178c.453-.308.793-.743 1.042-1.366.519-1.294.59-2.654.552-4.026-.006-.24-.164-.358-.426-.355a2863.29 2863.29 0 0 0-.636 3.097h-.096c-.023-.096-.07-.192-.064-.286.012-.23.042-.461.079-.69.106-.669.226-1.335.324-2.005.013-.094-.042-.267-.105-.289-.097-.033-.281-.006-.334.065-.145.194-.284.413-.345.642A17.62 17.62 0 0 0 3.5 35.82c-.107.631-.23 1.266-.26 1.902-.029.634.166 1.23.595 1.742zm42.229-2.652l-.112-.014-.628-3.074c-.335.02-.45.128-.442.485.014.65.028 1.303.095 1.95.09.865.283 1.707.736 2.466.198.332.44.623.763.838.434-.48.71-1.21.6-1.984-.16-1.155-.396-2.299-.63-3.441-.036-.177-.204-.36-.36-.474-.202-.151-.381-.035-.37.22.014.267.041.533.083.797.097.625.213 1.246.31 1.871.017.116-.028.24-.045.36zm-9.12 13.31c.097.01.169.008.237.023.891.181 1.304-.083 1.46-.94.011-.06.03-.12.049-.18.094-.32.3-.55.61-.664.224-.082.462-.14.697-.17.93-.117 1.86-.212 2.789-.327.401-.05.696-.232.869-.643.126-.3-.005-.496-.122-.717-.117-.22-.331-.24-.537-.178-.373.115-.743.244-1.106.387-.364.143-.713.327-1.08.46-.472.17-.938.133-1.347-.178-.44-.336-.883-.67-1.29-1.041-.88-.798-1.739-1.62-2.605-2.43-.17-.16-.346-.28-.533-.212l-.304.857c-.076.211-.023.299.201.317.071.006.143-.001.215-.003.483-.016.553.053.55.544-.003.425.21.579.615.444.317-.105.464 0 .454.329-.013.438.227.781.658.869.167.034.24.114.308.244.387.739.3 1.2-.337 1.747-.095.08-.198.153-.29.238-.163.152-.34.293-.474.468-.284.367-.269.785-.118 1.195.033.087.183.13.279.193.05-.093.12-.18.145-.28.026-.099.006-.21.006-.351zm-22.16-6.623c-.845.794-1.682 1.599-2.545 2.374-.47.422-.979.8-1.483 1.182-.293.22-.648.283-.995.172-.43-.138-.84-.33-1.266-.487-.416-.153-.831-.318-1.26-.42-.338-.08-.744.44-.619.767.14.362.32.701.78.744.142.014.278.076.418.092.797.088 1.596.16 2.393.252 1.07.124 1.249.282 1.55 1.329.145.501.507.743 1.027.687.199-.02.397-.044.596-.067 0 .17-.014.305.006.434.01.069.07.168.124.18.071.016.174-.02.235-.07.056-.045.087-.133.107-.208.137-.528.04-.99-.39-1.354-.258-.22-.53-.428-.768-.667-.53-.536-.352-1.127-.005-1.685.022-.035.085-.05.134-.063.526-.136.729-.392.74-.944.005-.274.13-.367.398-.29.06.017.116.05.175.063.313.065.507-.144.489-.522-.02-.431.07-.525.5-.518.08.003.16.011.24.007.253-.012.306-.105.214-.349-.097-.262-.188-.527-.293-.824-.173-.058-.343.034-.501.185zm14.57-28.155c0 .04.004.051 0 .058-.15.289-.292.584-.458.865-.2.337-.426.659-.63.995-.086.141-.135.31.035.43.164.115.313.075.443-.082.142-.173.297-.334.452-.495.162-.17.33-.336.497-.504l.085.05c-.064.197-.106.405-.199.587-.18.355-.234.728-.202 1.116.007.083.053.162.083.243.086-.032.213-.038.255-.1.227-.347.471-.69.636-1.068.188-.429.22-.884-.136-1.313.205.003.395.037.584.077.456.095.876.25 1.125.688.09.155.19.123.331.04.45-.266.912-.513 1.371-.764.32-.175.657-.324.962-.522a2.3 2.3 0 0 0 1.048-1.552c.12-.64-.075-1.124-.633-1.463a2.424 2.424 0 0 0-1.822-.316c-1.238.257-2.477.513-3.724.731-.473.082-.965.061-1.49.09.123.113.224.237.354.319.376.238.781.269 1.207.137.416-.13.834-.258 1.256-.363.186-.046.385-.034.578-.049l.02.113-.56.19c-.311.108-.625.206-.93.329-.078.031-.19.155-.176.203a.346.346 0 0 0 .215.198c.187.048.394.1.577.065.566-.111 1.123-.261 1.684-.4.586-.143 1.166-.323 1.759-.424.33-.058.682.014 1.024.028l-.002.099-.362.056c-.014.123-.018.24-.041.353-.075.354-.259.627-.613.75-.344.119-.631-.013-.88-.242a1.75 1.75 0 0 1-.27-.33c-.078-.123-.159-.147-.288-.087-.21.098-.425.186-.64.273-.853.345-1.706.391-2.578.042-.353-.143-.73-.228-1.101-.324-.368-.096-.74-.171-1.162-.269.141.383.372.593.694.679.265.07.546.077.816.133.088.017.16.1.24.152-.073.068-.141.183-.22.19-.291.029-.585.024-.88.028-.17.003-.339 0-.51 0l-.004.127c.636.683 1.413.363 2.18.233zm-7.048-2.211c-.484-.027-.97-.006-1.44-.088-1.253-.222-2.5-.485-3.75-.737a2.388 2.388 0 0 0-1.884.382c-.358.242-.595.58-.58 1.028.018.6.191 1.168.659 1.557.398.334.85.62 1.317.848.505.246 1.027.454 1.464.819.127.107.23.086.305-.051.33-.6.962-.62 1.513-.793.056-.017.13.026.157.032-.08.244-.217.468-.212.687.013.66.291 1.225.753 1.694.055.056.189.117.226.091.064-.046.106-.156.113-.243a2.027 2.027 0 0 0-.193-1.091c-.091-.187-.134-.4-.199-.6l.08-.037c.097.087.201.17.291.264.234.246.448.512.698.74.08.073.27.103.367.058.073-.033.101-.219.1-.335-.002-.087-.08-.176-.132-.257-.283-.444-.575-.883-.85-1.33-.075-.12-.108-.266-.179-.446.164.037.256.069.35.077.389.038.778.1 1.166.093.303-.006.567-.157.746-.506-.24 0-.425.002-.609 0-.267-.004-.536.008-.8-.027-.092-.013-.17-.142-.255-.218.088-.046.171-.116.265-.134.27-.054.552-.06.816-.134.316-.088.545-.298.674-.674-.423.096-.795.176-1.165.27-.319.08-.648.144-.949.273-1.032.446-2.031.34-3.028-.112-.46-.21-.462-.195-.805.173-.248.266-.537.45-.924.345-.388-.108-.579-.395-.658-.768-.026-.119-.038-.24-.055-.352l-.348-.051c.045-.069.09-.105.136-.105.453.005.921-.053 1.356.041.702.153 1.376.434 2.074.607.418.103.86.122 1.293.136.13.003.266-.14.399-.214-.106-.105-.195-.254-.323-.304-.348-.137-.713-.227-1.069-.344-.097-.032-.186-.09-.28-.137l.024-.076c.085 0 .173-.016.253.004.536.13 1.07.262 1.601.41.633.175 1.232-.01 1.49-.465zm-4.075 43.593c.785.001 1.343-.404 1.564-1.167.259-.899.533-1.795.743-2.706.637-2.76 1.247-5.527 1.863-8.292.027-.12.03-.252.011-.373-.01-.064-.077-.139-.138-.17-.027-.014-.124.06-.154.113-.062.116-.105.244-.147.37-1.026 3.02-2.049 6.042-3.075 9.06a1.084 1.084 0 0 1-.157.307c-.034.046-.146.095-.176.074-.053-.039-.107-.13-.098-.192.018-.14.067-.276.114-.41 1.034-2.97 2.072-5.939 3.1-8.911.101-.292.154-.603.199-.91.012-.089-.06-.251-.13-.275-.079-.03-.24.029-.295.102a2.81 2.81 0 0 0-.328.577c-.483 1.142-.95 2.288-1.434 3.43-1.021 2.412-2.057 4.818-3.066 7.235a1.746 1.746 0 0 0-.127.88c.111.74.862 1.257 1.731 1.258zm13.879 0c.035-.003.098-.005.16-.01 1.227-.093 1.853-1.088 1.387-2.214-.163-.396-.354-.78-.52-1.174-1.322-3.137-2.64-6.276-3.962-9.412-.075-.18-.156-.367-.277-.514-.076-.093-.234-.116-.355-.17-.044.116-.136.24-.121.348.037.273.099.545.19.805 1.043 3.014 2.094 6.024 3.142 9.037.04.118.068.24.081.363.005.05-.038.144-.073.151-.056.011-.155-.012-.183-.055a1.875 1.875 0 0 1-.199-.402c-1.023-3.012-2.042-6.025-3.063-9.037-.038-.11-.076-.22-.134-.318-.03-.053-.115-.113-.161-.103-.054.011-.124.092-.13.148-.012.13-.007.268.021.395.27 1.237.552 2.47.817 3.708.52 2.43 1.041 4.861 1.765 7.243.242.795.785 1.214 1.615 1.21zm-8.91-11.615l-.021-.003c.001-.017.003-.036.002-.053-.002-.223.027-.497-.266-.537-.273-.037-.306.232-.349.424-.126.564-.221 1.136-.35 1.7-.762 3.362-1.53 6.722-2.298 10.083-.135.593.04 1.073.514 1.445.386.303.833.446 1.318.447.783.001 1.268-.427 1.352-1.19.046-.417.083-.835.116-1.253.133-1.681.26-3.362.394-5.043.15-1.893.31-3.787.457-5.682a1.978 1.978 0 0 0-.054-.58c-.017-.07-.133-.163-.205-.165a.34.34 0 0 0-.255.135c-.071.118-.104.265-.128.404-.071.404-.13.81-.192 1.215-.313 2.043-.624 4.088-.935 6.132-.128.846-.25 1.693-.39 2.537-.02.118-.136.22-.208.33-.044-.134-.122-.267-.122-.4 0-.193.057-.386.089-.58.367-2.233.735-4.467 1.1-6.7.146-.888.288-1.777.432-2.666zm3.062.274h-.007c.08.996.164 1.99.24 2.987.14 1.807.27 3.612.414 5.418.1 1.254.206 2.507.331 3.759.052.505.346.861.849.992.762.197 1.433 0 1.99-.546a1.2 1.2 0 0 0 .352-1.153 274.34 274.34 0 0 0-.704-3.157c-.568-2.493-1.14-4.983-1.708-7.476-.107-.469-.184-.945-.309-1.409-.031-.116-.191-.197-.293-.293-.092.116-.246.223-.266.35-.032.225 0 .464.038.691.505 3.096 1.018 6.19 1.525 9.287.027.163.022.336.012.503-.002.043-.072.1-.122.115-.03.007-.098-.046-.118-.086a.737.737 0 0 1-.069-.228c-.078-.492-.151-.987-.227-1.48-.39-2.555-.778-5.11-1.17-7.665a8.857 8.857 0 0 0-.208-1.046c-.028-.104-.187-.172-.286-.257-.088.107-.205.2-.254.323-.042.107-.01.246-.01.37zm-.919 5.645h.006c0 1.784.002 3.57 0 5.355-.002.17.042.43-.189.43-.216.001-.17-.253-.17-.414-.006-.786-.003-1.571-.003-2.357 0-2.677.002-5.356-.003-8.034 0-.24-.007-.486-.064-.716-.027-.108-.176-.252-.276-.258-.094-.006-.221.134-.292.239-.055.08-.059.204-.066.31-.074 1.184-.143 2.37-.218 3.554-.094 1.451-.203 2.901-.29 4.353-.089 1.505-.17 3.012-.237 4.518-.028.641.329 1.154.92 1.408 1.18.507 2.362-.196 2.317-1.392a178.41 178.41 0 0 0-.197-4.038c-.167-2.717-.349-5.432-.528-8.147a1.878 1.878 0 0 0-.103-.548c-.035-.094-.175-.216-.255-.207-.104.01-.253.125-.279.222a2.74 2.74 0 0 0-.07.686c-.005 1.678-.003 3.357-.003 5.036zm-8.35-21.35c-.096-.773.012-1.51.203-2.24.062-.24-.033-.345-.275-.302-.14.025-.273.086-.414.107-.235.034-.482.097-.711.065-1.082-.15-1.987-.658-2.745-1.436-.444-.458-.587-.968-.25-1.554.044-.077.076-.162.11-.244.707-1.722.359-3.43-.938-4.635-.917-.852-2.035-1.046-3.227-1.024-1.042.02-1.985.385-2.92.797-.74.326-1.47.685-2.287.802-.16.023-.436-.017-.419.259.016.257.266.274.466.314a.735.735 0 0 0 .214.009c.425-.045.85-.09 1.273-.144.214-.028.425-.08.674-.127-.078.167-.143.284-.188.408a2.117 2.117 0 0 0-.107.384c-.058.346.12.568.47.607.375.04.707-.073 1-.298.213-.162.41-.344.62-.51.124-.098.26-.18.38-.263-.223.387-.466.751-.643 1.146-.066.148-.044.428.058.535.102.11.383.157.53.096.366-.15.706-.367 1.043-.577.14-.086.247-.227.369-.343-.17.365-.348.715-.494 1.076-.088.217-.127.466.072.65.201.186.461.185.708.119a.917.917 0 0 0 .345-.198c.209-.18.402-.38.603-.569.088-.083.18-.158.272-.238l.059.04c-.034.082-.06.17-.106.246-.154.25-.33.49-.47.747a2.405 2.405 0 0 0-.247.614c-.07.307.077.48.39.502.114.007.235.002.345-.028.256-.073.508-.165.791-.259-.083.156-.149.292-.224.421-.187.325-.413.633-.556.974a2.6 2.6 0 0 0-.217.949c-.006.466.251.593.675.39.163-.078.316-.176.475-.267-.027.398-.086.77-.07 1.137.017.401.271.564.666.464.253-.064.498-.168.73-.248 0 .162-.004.322 0 .48.014.48.308.705.769.553.255-.086.488-.24.74-.367l.048.29c.108.605.529.826 1.077.545.208-.106.39-.265.584-.399.19.468.343.584.75.543zm25.38-8.99l.043-.054c.267.217.537.43.8.65.302.252.626.444 1.033.447.508.005.732-.267.597-.755-.057-.21-.156-.41-.244-.633.06.003.103 0 .144.008.413.073.822.178 1.238.215.332.029.674-.004 1.005-.053.09-.013.156-.186.233-.284-.088-.061-.168-.152-.267-.18-.274-.076-.567-.093-.83-.192-.693-.26-1.38-.534-2.056-.833a6.814 6.814 0 0 0-3.708-.542c-1.96.252-3.572 2.281-3.276 4.235.088.573.273 1.142.488 1.683.201.51.151.929-.19 1.342-.47.572-1.075.96-1.741 1.256-.667.296-1.353.465-2.073.177a.813.813 0 0 0-.156-.04c-.25-.04-.336.048-.286.297.05.253.13.503.156.759.048.494.066.99.1 1.541.15-.056.326-.08.441-.178.125-.106.19-.28.283-.43.305.282.629.586 1.088.516.532-.083.511-.577.607-.976.385.269.755.617 1.228.373.411-.214.263-.651.235-1.015.277.094.54.206.813.269.356.081.6-.11.624-.474.014-.203-.007-.409-.027-.613-.016-.17-.052-.34-.089-.559.14.087.229.146.32.197.101.056.203.114.311.152.325.116.56-.01.55-.351a2.906 2.906 0 0 0-.187-.982c-.15-.369-.394-.697-.592-1.046-.072-.126-.13-.259-.182-.36.347.084.676.205 1.013.238.415.041.59-.211.464-.613a2.626 2.626 0 0 0-.233-.51c-.144-.246-.308-.48-.459-.722-.048-.077-.08-.163-.118-.245l.063-.053.286.247c.274.24.534.5.83.71.22.157.638.1.807-.06.21-.198.166-.444.08-.673-.085-.233-.204-.454-.311-.68-.05-.105-.11-.208-.165-.312l.064-.047c.06.078.11.165.183.232.33.306.687.585 1.139.668.173.031.433.01.537-.098.101-.105.09-.361.059-.537-.032-.177-.137-.348-.236-.504-.133-.212-.29-.407-.436-.608z" fill="#19395F" mask="url(#c)"/></g><circle stroke="#19395F" stroke-width="2" stroke-dasharray="1" cx="28" cy="28" r="28"/></g></svg>